<?xml version="1.0" encoding="UTF-8"?>
<svg width="128px" height="128px" viewBox="0 0 128 128" version="1.1" xmlns="http://www.w3.org/2000/svg" xmlns:xlink="http://www.w3.org/1999/xlink">
    <!-- Generator: Sketch 45.2 (43514) - http://www.bohemiancoding.com/sketch -->
    <title>daisy_icon</title>
    <desc>Created with Sketch.</desc>
    <defs></defs>
    <g id="Page-1" stroke="none" stroke-width="1" fill="none" fill-rule="evenodd">
        <g id="daisy_icon">
            <g id="Group" transform="translate(9.000000, 10.000000)">
                <path d="M95.7,49.96 C96.72,50.44 97.62,50.94 98.56,51.54 C102.72,54.24 102.84,55.98 98.04,57.38 C94.38,58.54 91.56,58.92 89.22,59 C89.8,59.46 90.4,60.04 91,60.6 C93.66,63.3 93.6,64.76 90.32,65.2 C94.22,67.64 97.6,70.98 100.04,75.54 C102.54,80.26 101.68,81.98 96.4,80.76 C92.02,79.78 88.98,78.6 86.6,77.24 C87.02,78.22 87.4,79.26 87.72,80.44 C88.74,84.18 88.08,85.62 85.18,84.62 L85.12,84.58 C87.38,88.86 88.68,93.68 88.54,99.06 C88.42,104.98 86.62,106.12 82.24,102.12 C78.58,98.78 76.16,96.24 74.5,94.18 L74.48,94.08 C74.44,95.1 74.18,96.18 73.92,97.26 C72.68,102.02 71.02,102.7 68.2,98.58 C65.98,95.46 64.7,92.96 63.94,90.7 C63.66,91.4 63.34,92.16 62.96,92.9 C61.22,96.28 59.8,96.68 58.4,93.66 C57.26,98.14 55.12,102.4 51.58,106.1 C47.86,109.96 45.92,109.66 45.46,104.26 C45.04,99.74 45.3,96.48 45.8,93.8 L45.76,93.86 C44.94,94.56 44.08,95.24 43.14,95.86 C39.84,97.96 38.26,97.82 38.36,94.8 L38.4,94.74 C35.02,98.2 30.88,100.9 25.64,102.44 C20,104.08 18.34,102.82 20.8,97.36 C22.84,92.86 24.54,89.82 25.92,87.54 L25.88,87.6 C24.86,87.82 23.8,87.94 22.7,88.02 C17.78,88.28 16.68,86.94 19.7,82.98 C22.04,79.9 24.02,77.94 25.92,76.5 C25.16,76.44 24.34,76.36 23.56,76.2 C19.84,75.56 19,74.4 21.46,72.1 L21.48,72.2 C16.88,72.48 12.12,71.8 7.52,69.5 C2.66,67.06 2.36,65.2 7.38,63.06 C11.5,61.32 14.7,60.48 17.36,60.18 C16.38,59.64 15.56,59.02 14.6,58.3 C11.6,55.84 11.28,54.3 14.14,53.42 L14.24,53.4 C9.92,51.22 6.1,48.12 3,43.64 C-0.36,38.74 0.4,36.76 6.28,37.48 C11.16,38 14.58,38.7 17.18,39.32 L17.22,39.26 C16.76,38.34 16.22,37.38 15.84,36.34 C14.08,31.84 15.04,30.36 19.72,31.98 C23.32,33.24 25.84,34.52 27.78,35.88 C27.56,35.12 27.38,34.3 27.28,33.52 C26.76,29.82 27.62,28.62 30.54,30.26 C28.78,26.04 28.04,21.32 28.7,16.2 C29.44,10.84 31.12,10 34.74,14.1 C37.72,17.54 39.48,20.26 40.6,22.76 L40.54,22.72 C40.8,21.64 41.1,20.62 41.52,19.56 C43,15.92 44.32,15.1 46.04,17.64 C46.74,12.88 48.52,8.22 51.84,3.92 C55.4,-0.74 57.56,-0.68 58.7,5.18 C59.72,10 60.14,13.44 60.34,16.12 C61.1,15.38 61.84,14.62 62.66,13.92 C66.44,10.8 68.2,11.24 68.04,16.26 C67.94,20.08 67.48,22.86 66.78,25.16 L66.88,25.14 C67.54,24.68 68.2,24.32 68.94,24 C72.32,22.32 73.72,22.76 73.08,26.06 C76.62,23.06 80.82,20.92 85.92,20 C91.22,19.02 92.6,20.44 89.78,25.06 C87.44,28.94 85.36,31.46 83.4,33.28 C84.44,33.16 85.58,33.18 86.7,33.22 C90.6,33.46 91.8,34.48 89.96,36.92 L90,36.86 C94.76,36.06 99.7,36.34 104.78,38.14 C110.36,40.16 110.9,42.18 105.74,45.12 C101.5,47.58 98.3,49.12 95.82,50.08" id="Shape" fill="#FFFFFF" fill-rule="nonzero"></path>
                <path d="M54.8,57.26 C54.86,57.3 54.82,57.36 54.82,57.36" id="Shape" stroke="#000000" stroke-linecap="round"></path>
                <path d="M54.82,57.64 C54.76,57.6 54.76,57.6 54.7,57.56" id="Shape" stroke="#000000" stroke-linecap="round"></path>
                <path d="" id="Shape" stroke="#000000" stroke-linecap="round"></path>
                <path d="M67.48,41.22 C68.88,40.54 70.38,40.02 72.06,39.86" id="Shape" stroke="#000000" stroke-linecap="round"></path>
                <path d="M73.54,39.76 C73,39.76 72.54,39.82 72.06,39.86" id="Shape" stroke="#000000" stroke-linecap="round"></path>
                <path d="M74.46,36.02 C77.2,34.52 80.14,33.52 83.4,33.26" id="Shape" stroke="#000000" stroke-linecap="round"></path>
                <path d="" id="Shape" stroke="#000000" stroke-linecap="round"></path>
                <path d="M66.16,59.34 C64.36,58.44 62.62,57.84 60.5,57.44 C58.84,57.16 56.96,57.18 55.4,57.68 C55.4,57.68 55.34,57.64 55.3,57.7" id="Shape" stroke="#000000" stroke-linecap="round"></path>
                <path d="M55.24,57.64 C55.04,57.68 54.94,57.7 54.8,57.62" id="Shape" stroke="#000000" stroke-linecap="round"></path>
                <path d="M54.68,57.46 C54.68,57.46 54.72,57.38 54.68,57.46" id="Shape" stroke="#000000" stroke-linecap="round"></path>
                <path d="M54.58,57.58 C54.62,57.52 54.62,57.52 54.66,57.46" id="Shape" stroke="#000000" stroke-linecap="round"></path>
                <path d="" id="Shape" stroke="#000000" stroke-linecap="round"></path>
                <path d="M54.72,57.38 C54.66,57.34 54.66,57.34 54.56,57.36" id="Shape" stroke="#000000" stroke-linecap="round"></path>
                <path d="" id="Shape" stroke="#000000" stroke-linecap="round"></path>
                <path d="M54.72,57.38 C54.78,57.42 54.78,57.42 54.72,57.38" id="Shape" stroke="#000000" stroke-linecap="round"></path>
                <path d="M54.74,57.5 C54.74,57.5 54.78,57.42 54.74,57.5" id="Shape" stroke="#000000" stroke-linecap="round"></path>
                <path d="M81.22,69.6 C83.44,71.74 85.3,74.18 86.6,77.24" id="Shape" stroke="#000000" stroke-linecap="round"></path>
                <path d="M83.08,65.08 C84.78,65.3 86.84,65.4 89.5,65.26 C89.76,65.26 90.08,65.2 90.34,65.18" id="Shape" stroke="#000000" stroke-linecap="round"></path>
                <path d="M81.22,69.6 C81.38,69.62 81.54,69.64 81.78,69.7 C85.22,70.26 85.68,69.14 83.88,66.2 C83.62,65.78 83.4,65.44 83.1,65.08" id="Shape" stroke="#000000" stroke-linecap="round"></path>
                <path d="M77.04,59.84 C79.34,61.06 81.42,62.76 83.12,65.02" id="Shape" stroke="#000000" stroke-linecap="round"></path>
                <path d="M77.4,69.78 C77.46,69.82 77.42,69.88 77.48,69.92 C78.26,72.28 77.92,73.2 76.1,72.74" id="Shape" stroke="#000000" stroke-linecap="round"></path>
                <path d="M74.46,72.12 C74.64,72.24 74.88,72.3 75.06,72.42 C75.42,72.56 75.76,72.7 76.06,72.8" id="Shape" stroke="#000000" stroke-linecap="round"></path>
                <path d="M69.52,80.04 C69.5,80.48 69.38,80.92 69.34,81.42 C68.76,84.48 67.68,84.94 65.76,82.46 C65.56,82.24 65.4,82.06 65.3,81.8" id="Shape" stroke="#000000" stroke-linecap="round"></path>
                <path d="M89.22,59 C89.8,59.46 90.4,60.04 91,60.6 C93.66,63.3 93.6,64.76 90.32,65.2" id="Shape" stroke="#000000" stroke-linecap="round"></path>
                <path d="M74.46,72.12 C75.9,74.38 76.94,77 77.26,79.94" id="Shape" stroke="#000000" stroke-linecap="round"></path>
                <path d="M69.52,80.04 C70.52,81.22 71.76,82.46 73.56,83.88 L73.62,83.92" id="Shape" stroke="#000000" stroke-linecap="round"></path>
                <path d="M75.14,49 C73.18,48.88 71.26,49.14 69.38,49.6 C67.7,50.02 66.5,50.38 65.38,50.72" id="Shape" stroke="#000000" stroke-linecap="round"></path>
                <path d="M74.82,43.24 C71.24,47.28 69,47.6 66.04,48.76 C63.18,49.9 61.52,51.12 60.18,52.2 C59.4,52.84 59.6,53.24 60.58,52.82 C62.48,51.94 63.78,51.28 65.38,50.72" id="Shape" stroke="#000000" stroke-linecap="round"></path>
                <path d="M73.54,39.76 C73.6,39.8 73.64,39.74 73.7,39.78 C76.16,39.78 76.94,40.38 75.92,41.92" id="Shape" stroke="#000000" stroke-linecap="round"></path>
                <path d="M83.12,42.96 C80.22,42.4 77.46,42.56 74.82,43.24" id="Shape" stroke="#000000" stroke-linecap="round"></path>
                <path d="M85.68,47.72 C89.08,47.8 92.5,48.52 95.76,50.02" id="Shape" stroke="#000000" stroke-linecap="round"></path>
                <path d="M81.14,55 C84.02,55.72 86.82,57 89.28,59.04" id="Shape" stroke="#000000" stroke-linecap="round"></path>
                <path d="M74.82,43.24 C74.94,43.06 75.12,42.9 75.24,42.72 C75.5,42.44 75.7,42.14 75.86,41.88" id="Shape" stroke="#000000" stroke-linecap="round"></path>
                <path d="M85.68,47.72 C88.78,45.66 88.34,44.42 84.7,43.38 C84.18,43.22 83.56,43.08 83.02,43" id="Shape" stroke="#000000" stroke-linecap="round"></path>
                <path d="M83.12,42.96 C84.82,41.84 86.68,40.32 88.94,38.08 C89.38,37.66 89.74,37.26 89.98,36.9" id="Shape" stroke="#000000" stroke-linecap="round"></path>
                <path d="M54.72,57.38 C54.72,57.38 54.78,57.42 54.72,57.38" id="Shape" stroke="#000000" stroke-linecap="round"></path>
                <path d="M28.56,57.58 C28.8,57.48 29.16,57.34 29.56,57.26 C29.76,57.22 29.96,57.18 30.18,57.12" id="Shape" stroke="#000000" stroke-linecap="round"></path>
                <path d="M32.02,43.92 C31.8,43.86 31.5,43.76 31.28,43.7 C28.24,42.8 27.66,43.84 29.02,46.64 C29.22,47.02 29.46,47.46 29.66,47.84" id="Shape" stroke="#000000" stroke-linecap="round"></path>
                <path d="M30.18,57.12 C27.66,56.1 25.3,54.58 23.3,52.48" id="Shape" stroke="#000000" stroke-linecap="round"></path>
                <path d="M44.02,50.2 C45.18,51.4 46.28,52.28 47.92,53.7 C48.84,54.46 48.5,54.86 47.54,54.42 C45.92,53.64 43.86,52.48 41.48,50.14 C38.98,47.72 37.62,45.6 32,43.92" id="Shape" stroke="#000000" stroke-linecap="round"></path>
                <path d="M27.78,35.88 C28.6,38.98 30.08,41.6 32.02,43.92" id="Shape" stroke="#000000" stroke-linecap="round"></path>
                <path d="M30.18,57.12 C35.44,55.94 37.46,57.06 40.56,57.84 C43.5,58.6 45.64,58.58 47.28,58.5 C48.28,58.44 48.34,57.96 47.3,57.8 C45.18,57.4 43.84,57.14 42.24,56.64" id="Shape" stroke="#000000" stroke-linecap="round"></path>
                <path d="M42.16,56.58 C41.06,56.22 39.84,55.78 38.26,55.12 C36.44,54.38 34.78,53.4 33.24,52.22" id="Shape" stroke="#000000" stroke-linecap="round"></path>
                <path d="M29.14,60.76 C29.58,61.04 29.94,61.28 30.38,61.56" id="Shape" stroke="#000000" stroke-linecap="round"></path>
                <path d="M56.08,30.48 C54.74,32 53.76,33.66 53.06,35.4" id="Shape" stroke="#000000" stroke-linecap="round"></path>
                <path d="M51.74,45.22 C51.7,44.04 51.74,42.76 51.86,41.06 C51.98,39.1 52.42,37.2 53.06,35.4" id="Shape" stroke="#000000" stroke-linecap="round"></path>
                <path d="M66.88,25.12 C64.2,26.82 62.1,29.08 60.56,31.62" id="Shape" stroke="#000000" stroke-linecap="round"></path>
                <path d="M30.42,61.52 C31.82,62.34 33.38,62.82 34.88,63.08" id="Shape" stroke="#000000" stroke-linecap="round"></path>
                <path d="M73.56,83.88 C76.46,86.2 77.52,85.38 77.42,81.62 C77.42,81.08 77.34,80.52 77.28,79.94" id="Shape" stroke="#000000" stroke-linecap="round"></path>
                <path d="M45.74,93.86 C48.18,91.74 50.04,89.14 51.32,86.34" id="Shape" stroke="#000000" stroke-linecap="round"></path>
                <path d="M56.28,86.72 C57.94,84.44 58.9,81.98 59.36,79.36" id="Shape" stroke="#000000" stroke-linecap="round"></path>
                <path d="M55.06,24.96 C56.18,21.72 57.86,18.74 60.34,16.12" id="Shape" stroke="#000000" stroke-linecap="round"></path>
                <path d="M43.24,40.34 C43.5,42.1 44.04,43.86 44.82,45.52 C45.44,46.88 46.02,48.16 46.64,49.26" id="Shape" stroke="#000000" stroke-linecap="round"></path>
                <path d="M33.32,52.26 C31.88,51.06 30.62,49.62 29.54,47.88" id="Shape" stroke="#000000" stroke-linecap="round"></path>
                <path d="M43.74,34.14 C43.62,34.6 43.46,35.1 43.34,35.56" id="Shape" stroke="#000000" stroke-linecap="round"></path>
                <path d="M40.5,32.04 C41.68,33.34 42.62,34.48 43.38,35.5" id="Shape" stroke="#000000" stroke-linecap="round"></path>
                <path d="M40.6,22.76 C39.88,25.92 39.9,29.02 40.5,32.04" id="Shape" stroke="#000000" stroke-linecap="round"></path>
                <path d="M74.46,72.12 C69.5,69.96 68.52,67.92 66.5,65.46 C64.56,63.14 62.84,61.86 61.46,60.96 C60.58,60.4 60.28,60.72 61,61.54 C62.46,63.1 63.44,64.18 64.46,65.46" id="Shape" stroke="#000000" stroke-linecap="round"></path>
                <path d="M76.84,68.46 C76.14,66.94 75.22,65.64 74.18,64.54" id="Shape" stroke="#000000" stroke-linecap="round"></path>
                <path d="M66.16,59.34 C67.3,59.9 68.56,60.54 69.84,61.28 C71.48,62.16 72.94,63.3 74.18,64.54" id="Shape" stroke="#000000" stroke-linecap="round"></path>
                <path d="M81.22,69.6 C79.48,69.28 78.06,68.88 76.84,68.44" id="Shape" stroke="#000000" stroke-linecap="round"></path>
                <path d="M54.94,57.44 C54.9,57.5 54.84,57.46 54.8,57.52" id="Shape" stroke="#000000" stroke-linecap="round"></path>
                <path d="M64.44,65.54 C65.18,66.46 65.88,67.54 66.72,68.96 C67.76,70.62 68.52,72.32 69.06,74.18" id="Shape" stroke="#000000" stroke-linecap="round"></path>
                <path d="M54.82,57.36 C54.78,57.42 54.78,57.42 54.82,57.36" id="Shape" stroke="#000000" stroke-linecap="round"></path>
                <path d="" id="Shape" stroke="#000000" stroke-linecap="round"></path>
                <path d="M74.46,36.02 C73.62,37.6 72.82,38.84 72,39.82" id="Shape" stroke="#000000" stroke-linecap="round"></path>
                <path d="M80.8,50.36 C78.96,49.52 77.1,49.12 75.22,49.04" id="Shape" stroke="#000000" stroke-linecap="round"></path>
                <path d="M77.4,69.78 C77.26,69.32 77.04,68.84 76.88,68.38" id="Shape" stroke="#000000" stroke-linecap="round"></path>
                <path d="M34.9,74.9 C38.26,70.1 40.7,69.48 43.72,67.82 C46.66,66.28 48.4,64.68 49.62,63.34 C50.42,62.52 50.1,62.06 49.12,62.76 C47.32,63.9 46.04,64.64 44.6,65.38" id="Shape" stroke="#000000" stroke-linecap="round"></path>
                <path d="M69.52,80.04 C69.78,78 69.52,76.08 69.04,74.26" id="Shape" stroke="#000000" stroke-linecap="round"></path>
                <path d="M81.14,55 C75.6,56.88 73.26,55.98 69.84,55.54 C66.52,55.08 64.22,55.34 62.42,55.68 C61.34,55.86 61.34,56.4 62.54,56.46 C64.62,56.66 66.14,56.76 67.74,57" id="Shape" stroke="#000000" stroke-linecap="round"></path>
                <path d="M67.68,56.96 C69.06,57.14 70.52,57.48 72.58,58.1 C74.12,58.58 75.64,59.1 77.02,59.82" id="Shape" stroke="#000000" stroke-linecap="round"></path>
                <path d="M80.8,50.36 C82.24,49.78 83.82,48.96 85.66,47.76 L85.7,47.7" id="Shape" stroke="#000000" stroke-linecap="round"></path>
                <path d="M80.8,50.36 C81.22,50.54 81.62,50.72 82,50.96 C84.74,52.46 84.88,53.62 81.88,54.68 C81.64,54.78 81.38,54.9 81.12,54.9" id="Shape" stroke="#000000" stroke-linecap="round"></path>
                <path d="M89.96,36.88 C91.8,34.46 90.62,33.42 86.7,33.18 C85.56,33.16 84.44,33.12 83.4,33.24" id="Shape" stroke="#000000" stroke-linecap="round"></path>
                <path d="M83.4,33.26 C85.36,31.44 87.46,28.92 89.78,25.04 C92.6,20.42 91.22,19 85.92,19.98 C80.82,20.92 76.62,23.04 73.08,26.04" id="Shape" stroke="#000000" stroke-linecap="round"></path>
                <path d="M70.78,32.84 C71.52,31.28 72.28,29.3 72.92,26.82 C73.02,26.54 73.02,26.26 73.12,25.98" id="Shape" stroke="#000000" stroke-linecap="round"></path>
                <path d="M89.22,59 C91.56,58.92 94.38,58.54 98.04,57.38 C102.82,55.98 102.72,54.24 98.56,51.54 C97.62,50.94 96.72,50.44 95.7,49.96" id="Shape" stroke="#000000" stroke-linecap="round"></path>
                <path d="M95.82,50.04 C98.3,49.08 101.5,47.54 105.74,45.08 C110.9,42.16 110.36,40.12 104.78,38.1 C99.68,36.3 94.74,36.02 90,36.82" id="Shape" stroke="#000000" stroke-linecap="round"></path>
                <path d="M74.46,36.02 C74.54,35.9 74.66,35.7 74.68,35.54 C76.32,32.46 75.34,31.64 72.02,32.42 C71.62,32.5 71.16,32.66 70.72,32.8" id="Shape" stroke="#000000" stroke-linecap="round"></path>
                <path d="M67.48,41.22 C65.82,42 64.4,43.1 63,44.32 C61.88,45.36 60.92,46.32 59.98,47.22" id="Shape" stroke="#000000" stroke-linecap="round"></path>
                <path d="M77.26,79.94 C78.82,81.22 80.86,82.54 83.68,83.92 C84.22,84.18 84.7,84.4 85.14,84.52" id="Shape" stroke="#000000" stroke-linecap="round"></path>
                <path d="M73.56,83.88 C74.52,87.16 74.94,90.6 74.48,94.18" id="Shape" stroke="#000000" stroke-linecap="round"></path>
                <path d="M60.08,47.18 C58.68,48.66 57.56,50.14 56.5,52.02 C55.7,53.54 55.16,55.3 55.14,56.96 L55.1,57.02" id="Shape" stroke="#000000" stroke-linecap="round"></path>
                <path d="M54.94,57.44 C54.98,57.38 55.06,57.26 55.08,57.08" id="Shape" stroke="#000000" stroke-linecap="round"></path>
                <path d="M86.6,77.24 C88.98,78.6 92.02,79.78 96.4,80.76 C101.7,81.98 102.56,80.24 100.04,75.54 C97.62,70.98 94.22,67.62 90.32,65.2" id="Shape" stroke="#000000" stroke-linecap="round"></path>
                <path d="M74.48,94.18 C76.16,96.24 78.56,98.76 82.22,102.12 C86.6,106.1 88.4,104.98 88.52,99.06 C88.66,93.68 87.36,88.86 85.1,84.58" id="Shape" stroke="#000000" stroke-linecap="round"></path>
                <path d="M86.6,77.24 C87.02,78.22 87.4,79.26 87.72,80.44 C88.74,84.18 88.08,85.62 85.18,84.62" id="Shape" stroke="#000000" stroke-linecap="round"></path>
                <path d="M60.34,16.12 C61.1,15.38 61.84,14.62 62.66,13.92 C66.44,10.8 68.2,11.24 68.04,16.26 C67.94,20.08 67.48,22.86 66.78,25.16" id="Shape" stroke="#000000" stroke-linecap="round"></path>
                <path d="M54.46,56.96 C54.58,57.04 54.7,57.12 54.8,57.26" id="Shape" stroke="#000000" stroke-linecap="round"></path>
                <path d="M54.46,56.96 L54.4,56.92 C52.84,56.34 51.28,55.34 50.16,54.08 C48.7,52.52 47.68,50.96 46.7,49.2" id="Shape" stroke="#000000" stroke-linecap="round"></path>
                <path d="M56.08,30.48 C56.38,30.14 56.68,29.82 57.06,29.52 C59.34,27.38 60.5,27.6 60.54,30.8 C60.54,31.06 60.54,31.34 60.56,31.6" id="Shape" stroke="#000000" stroke-linecap="round"></path>
                <path d="M63.92,90.72 C64.66,92.96 65.96,95.48 68.18,98.6 C70.98,102.72 72.66,102.04 73.9,97.28 C74.16,96.2 74.4,95.14 74.46,94.1" id="Shape" stroke="#000000" stroke-linecap="round"></path>
                <path d="M55.06,24.96 C55.12,25 55.08,25.06 55.06,24.96 C55.64,27.2 55.98,29 56.08,30.48" id="Shape" stroke="#000000" stroke-linecap="round"></path>
                <path d="M46.04,17.62 C46.74,12.86 48.52,8.2 51.84,3.9 C55.4,-0.76 57.56,-0.7 58.7,5.16 C59.72,9.98 60.14,13.42 60.34,16.1" id="Shape" stroke="#000000" stroke-linecap="round"></path>
                <path d="M55.06,24.96 C54.08,21.42 52.76,21.44 50.64,24.56 C50.32,25.06 50.04,25.5 49.78,26.04" id="Shape" stroke="#000000" stroke-linecap="round"></path>
                <path d="M58.32,45 C58.96,43.74 59.7,42.46 60.94,40.7 C61.82,39.34 62.86,38.14 63.96,37" id="Shape" stroke="#000000" stroke-linecap="round"></path>
                <path d="M66.88,25.12 C67.54,24.66 68.2,24.3 68.94,23.98 C72.32,22.3 73.72,22.74 73.08,26.04" id="Shape" stroke="#000000" stroke-linecap="round"></path>
                <path d="M70.78,32.84 C68.08,33.74 65.82,35.18 63.96,36.98" id="Shape" stroke="#000000" stroke-linecap="round"></path>
                <path d="M58.32,45 C57.56,46.44 57,47.86 56.18,49.8 C55.72,50.92 55.24,50.7 55.4,49.64 C55.6,47.82 56.08,45.58 57.58,42.58 C59.1,39.42 60.68,37.52 60.6,31.66" id="Shape" stroke="#000000" stroke-linecap="round"></path>
                <path d="M56.28,86.72 C56.04,87.1 55.74,87.42 55.44,87.76 C53.22,90.38 51.96,90.28 51.44,86.84 C51.4,86.64 51.42,86.48 51.34,86.32" id="Shape" stroke="#000000" stroke-linecap="round"></path>
                <path d="M46.84,80.7 C46.78,80.92 46.82,81.14 46.76,81.36 C46.74,81.8 46.7,82.12 46.72,82.38" id="Shape" stroke="#000000" stroke-linecap="round"></path>
                <path d="M49.98,82.82 C49.94,82.88 49.94,82.88 49.84,82.9 C47.84,84.34 46.88,84.34 46.8,82.42" id="Shape" stroke="#000000" stroke-linecap="round"></path>
                <path d="M40.28,85.8 C39.5,87.68 38.94,90.04 38.48,93.2 C38.38,93.76 38.4,94.3 38.34,94.78" id="Shape" stroke="#000000" stroke-linecap="round"></path>
                <path d="M17.34,60.18 C14.68,60.48 11.48,61.32 7.36,63.06 C2.36,65.2 2.64,67.06 7.5,69.5 C12.12,71.78 16.86,72.48 21.46,72.2" id="Shape" stroke="#000000" stroke-linecap="round"></path>
                <path d="M38.38,94.72 C35,98.18 30.86,100.88 25.62,102.42 C19.98,104.06 18.32,102.8 20.78,97.34 C22.82,92.84 24.52,89.8 25.9,87.52" id="Shape" stroke="#000000" stroke-linecap="round"></path>
                <path d="M21.44,72.1 C18.98,74.4 19.82,75.56 23.54,76.2 C24.32,76.36 25.14,76.44 25.9,76.5" id="Shape" stroke="#000000" stroke-linecap="round"></path>
                <path d="M17.16,39.34 C14.56,38.72 11.14,38 6.26,37.5 C0.38,36.78 -0.38,38.76 2.98,43.66 C6.08,48.14 9.9,51.24 14.22,53.42" id="Shape" stroke="#000000" stroke-linecap="round"></path>
                <path d="M35.4,83.54 C32.54,85.48 29.42,86.9 25.88,87.62" id="Shape" stroke="#000000" stroke-linecap="round"></path>
                <path d="M25.92,76.5 C24.02,77.92 22.04,79.9 19.7,82.98 C16.7,86.94 17.78,88.26 22.7,88.02 C23.8,87.94 24.86,87.82 25.88,87.6" id="Shape" stroke="#000000" stroke-linecap="round"></path>
                <path d="M58.4,93.66 C57.26,98.14 55.12,102.4 51.58,106.1 C47.86,109.96 45.92,109.66 45.46,104.26 C45.04,99.74 45.3,96.48 45.8,93.8" id="Shape" stroke="#000000" stroke-linecap="round"></path>
                <path d="M46.04,17.62 C44.32,15.1 43,15.92 41.52,19.54 C41.1,20.6 40.78,21.62 40.54,22.7" id="Shape" stroke="#000000" stroke-linecap="round"></path>
                <path d="M51.12,81.88 C52.32,80.72 53.28,79.48 54,78.1" id="Shape" stroke="#000000" stroke-linecap="round"></path>
                <path d="M59.24,69.6 C60.42,72.14 61.74,75.54 62.3,80.68 C62.74,84.22 62.66,87.08 63.98,90.76" id="Shape" stroke="#000000" stroke-linecap="round"></path>
                <path d="M51.38,86.38 C51.12,84.62 51.08,83.18 51.12,81.88" id="Shape" stroke="#000000" stroke-linecap="round"></path>
                <path d="M56.28,86.72 C56.6,88.42 57.14,90.44 58.12,92.86 C58.22,93.1 58.36,93.46 58.5,93.64" id="Shape" stroke="#000000" stroke-linecap="round"></path>
                <path d="M45.74,93.86 C44.92,94.56 44.06,95.24 43.12,95.86 C39.82,97.96 38.24,97.82 38.34,94.8" id="Shape" stroke="#000000" stroke-linecap="round"></path>
                <path d="M59.24,69.6 C59.48,71 59.58,72.48 59.68,74.64 C59.7,76.24 59.66,77.8 59.42,79.4" id="Shape" stroke="#000000" stroke-linecap="round"></path>
                <path d="M49.98,82.82 C50.34,82.52 50.76,82.18 51.12,81.88" id="Shape" stroke="#000000" stroke-linecap="round"></path>
                <path d="M63.92,90.72 C63.64,91.42 63.32,92.18 62.94,92.92 C61.2,96.3 59.78,96.7 58.38,93.68" id="Shape" stroke="#000000" stroke-linecap="round"></path>
                <path d="M56.46,68.84 C56.32,70.16 56.06,71.5 55.74,72.96 C55.38,74.76 54.84,76.52 54,78.1" id="Shape" stroke="#000000" stroke-linecap="round"></path>
                <path d="M44.46,62.58 C43.16,62.8 41.82,62.98 40.3,63.14 C38.48,63.36 36.64,63.34 34.88,63.06" id="Shape" stroke="#000000" stroke-linecap="round"></path>
                <path d="M44.54,65.46 C43.28,66.06 41.9,66.66 39.92,67.42 C38.42,67.96 36.86,68.34 35.3,68.58" id="Shape" stroke="#000000" stroke-linecap="round"></path>
                <path d="M44.46,62.58 C46.46,62.2 48.22,61.66 50.12,60.78 C51.64,60.08 53.1,58.92 54.1,57.62 L54.14,57.56" id="Shape" stroke="#000000" stroke-linecap="round"></path>
                <path d="M54.54,57.36 C54.44,57.38 54.3,57.46 54.22,57.6" id="Shape" stroke="#000000" stroke-linecap="round"></path>
                <path d="M30.42,61.52 C29.22,61.88 27.82,62.4 26.28,63.16" id="Shape" stroke="#000000" stroke-linecap="round"></path>
                <path d="M28.56,57.58 C26.78,58.28 27.04,59.24 29.06,60.64 C29.12,60.68 29.12,60.68 29.18,60.72" id="Shape" stroke="#000000" stroke-linecap="round"></path>
                <path d="M27.34,67.9 C26.88,67.78 26.48,67.6 26.06,67.42 C22.88,66.06 22.58,64.9 25.72,63.32 C25.86,63.24 26,63.16 26.22,63.1" id="Shape" stroke="#000000" stroke-linecap="round"></path>
                <path d="M17.34,60.18 C20.16,61.82 23.14,62.8 26.18,63.16" id="Shape" stroke="#000000" stroke-linecap="round"></path>
                <path d="M27.34,67.9 C25.78,68.66 24.06,69.84 22.06,71.54 C21.84,71.74 21.62,71.96 21.44,72.1" id="Shape" stroke="#000000" stroke-linecap="round"></path>
                <path d="M40.28,85.8 C39.78,86.02 39.26,86.28 38.7,86.46 C35.22,87.74 34.04,86.98 35.4,83.52" id="Shape" stroke="#000000" stroke-linecap="round"></path>
                <path d="M50.04,69.1 C49.4,70.1 48.58,71.08 47.48,72.38 C46.24,73.88 44.76,75.22 43.16,76.2" id="Shape" stroke="#000000" stroke-linecap="round"></path>
                <path d="M46.84,80.7 C45.1,82.84 42.94,84.54 40.28,85.8" id="Shape" stroke="#000000" stroke-linecap="round"></path>
                <path d="M50.04,69.1 C51.02,67.72 51.66,66.44 52.72,64.56 C53.26,63.58 53.64,63.82 53.46,64.78 C53.04,66.36 52.36,68.38 50.76,70.98 C49.1,73.7 47.44,75.28 46.88,80.64" id="Shape" stroke="#000000" stroke-linecap="round"></path>
                <path d="M65.22,81.76 C61.7,77.1 61.86,74.56 61.24,71.16 C60.64,67.86 59.7,65.76 58.82,64.12 C58.3,63.16 57.78,63.28 58.08,64.44 C58.58,66.52 58.92,67.9 59.18,69.56" id="Shape" stroke="#000000" stroke-linecap="round"></path>
                <path d="M54.68,57.98 C54.68,57.98 54.74,58.02 54.7,58.08 C55.58,59.44 56.28,61.22 56.46,62.84 C56.76,64.98 56.68,66.86 56.4,68.8" id="Shape" stroke="#000000" stroke-linecap="round"></path>
                <path d="M54.68,57.98 C54.6,57.84 54.56,57.64 54.6,57.58" id="Shape" stroke="#000000" stroke-linecap="round"></path>
                <path d="M43.2,76.24 C41.66,77.26 39.84,78.04 37.88,78.44" id="Shape" stroke="#000000" stroke-linecap="round"></path>
                <path d="M34.9,74.9 C34.74,75.14 34.62,75.34 34.46,75.58 C32.66,78.22 33.44,79.06 36.58,78.72 C37.06,78.68 37.46,78.58 37.94,78.54" id="Shape" stroke="#000000" stroke-linecap="round"></path>
                <path d="M17.34,60.18 C16.36,59.64 15.54,59.02 14.58,58.3 C11.58,55.84 11.26,54.3 14.12,53.42" id="Shape" stroke="#000000" stroke-linecap="round"></path>
                <path d="M34.9,74.9 C32.14,76.02 29.1,76.62 25.96,76.44" id="Shape" stroke="#000000" stroke-linecap="round"></path>
                <path d="M35.4,83.54 L35.44,83.48 C36.28,81.38 37.06,79.76 37.86,78.52" id="Shape" stroke="#000000" stroke-linecap="round"></path>
                <path d="M27.34,67.9 C30.04,68.76 32.7,68.9 35.3,68.56" id="Shape" stroke="#000000" stroke-linecap="round"></path>
                <path d="M43.24,40.34 C43.02,38.78 43.06,37.22 43.34,35.56" id="Shape" stroke="#000000" stroke-linecap="round"></path>
                <path d="M36.28,34.6 C36.3,34.16 36.3,33.74 36.36,33.24 C36.64,29.8 37.68,29.16 40.14,31.62 C40.22,31.76 40.42,31.88 40.5,32.02" id="Shape" stroke="#000000" stroke-linecap="round"></path>
                <path d="M51.74,45.22 C51.78,46.92 51.96,48.28 52.26,50.42 C52.44,51.5 51.96,51.56 51.56,50.68 C50.96,49.14 50.32,47.14 50.1,44.08 C49.86,40.92 50.28,38.64 47.56,33.96" id="Shape" stroke="#000000" stroke-linecap="round"></path>
                <path d="M46.04,17.62 C46.34,17.98 46.58,18.42 46.86,18.94 C48.38,21.78 49.22,24 49.74,25.92" id="Shape" stroke="#000000" stroke-linecap="round"></path>
                <path d="M43.74,34.14 C43.78,34.08 43.72,34.04 43.76,33.98 C44.48,31.62 45.38,31.06 46.56,32.52" id="Shape" stroke="#000000" stroke-linecap="round"></path>
                <path d="M46.56,32.52 C46.76,32.74 46.94,33.02 47.16,33.36 C47.3,33.54 47.36,33.74 47.5,33.94" id="Shape" stroke="#000000" stroke-linecap="round"></path>
                <path d="M49.78,26.04 C48.36,28.64 47.64,31.26 47.46,33.98" id="Shape" stroke="#000000" stroke-linecap="round"></path>
                <path d="M23.96,47.1 C21.26,45 18.9,42.5 17.16,39.34" id="Shape" stroke="#000000" stroke-linecap="round"></path>
                <path d="M23.96,47.1 C24.02,47.14 24.02,47.14 23.96,47.1 C26.28,47.2 28.06,47.46 29.54,47.88" id="Shape" stroke="#000000" stroke-linecap="round"></path>
                <path d="M30.54,30.26 C27.62,28.64 26.76,29.84 27.28,33.52 C27.4,34.3 27.56,35.12 27.78,35.88" id="Shape" stroke="#000000" stroke-linecap="round"></path>
                <path d="M23.3,52.48 C21.28,52.32 18.86,52.52 15.7,53.04 C15.12,53.1 14.58,53.28 14.16,53.36" id="Shape" stroke="#000000" stroke-linecap="round"></path>
                <path d="M23.96,47.1 C20.28,46.92 19.86,48.24 22.2,51.18 C22.52,51.64 22.94,52.1 23.32,52.44" id="Shape" stroke="#000000" stroke-linecap="round"></path>
                <path d="M44.02,50.2 C43.06,49.22 42.06,48.04 40.74,46.4 C39.72,45.12 38.9,43.8 38.22,42.38" id="Shape" stroke="#000000" stroke-linecap="round"></path>
                <path d="M27.78,35.88 C25.84,34.52 23.3,33.24 19.72,31.98 C15.04,30.36 14.06,31.84 15.84,36.34 C16.22,37.38 16.76,38.34 17.22,39.26" id="Shape" stroke="#000000" stroke-linecap="round"></path>
                <path d="M40.6,22.76 C39.48,20.26 37.72,17.54 34.74,14.1 C31.14,10 29.44,10.84 28.7,16.2 C28.02,21.32 28.76,26.04 30.54,30.26" id="Shape" stroke="#000000" stroke-linecap="round"></path>
                <path d="M36.28,34.6 C35.06,33.36 33.4,32.12 31.22,30.7 C30.98,30.54 30.72,30.38 30.48,30.22" id="Shape" stroke="#000000" stroke-linecap="round"></path>
                <path d="M38.12,42.4 C36.98,40.08 36.26,37.5 36.26,34.66" id="Shape" stroke="#000000" stroke-linecap="round"></path>
            </g>
        </g>
    </g>
</svg>