<?xml version="1.0" encoding="UTF-8"?>
<svg width="128px" height="128px" viewBox="0 0 128 128" version="1.1" xmlns="http://www.w3.org/2000/svg" xmlns:xlink="http://www.w3.org/1999/xlink">
    <!-- Generator: Sketch 45.2 (43514) - http://www.bohemiancoding.com/sketch -->
    <title>lotus_icon</title>
    <desc>Created with Sketch.</desc>
    <defs></defs>
    <g id="Page-1" stroke="none" stroke-width="1" fill="none" fill-rule="evenodd">
        <g id="lotus_icon">
            <g id="Group-4" transform="translate(9.000000, 12.000000)">
                <path d="M84.2,33.94 C84.56,30.84 84.48,27.76 83.84,25.12 C81.04,24.24 77.1,23.98 72.96,24.7 L72.96,24.72 C67.92,9 53.98,1.78 52.86,0.38 C52.68,1.14 45.26,8.16 41.82,21.92 C38.98,20.64 36.04,19.78 33.34,19.54 C31.64,21.92 30.18,25.58 29.6,29.74 C13.1,29.68 1.92,40.72 0.26,41.34 C0.94,41.76 5.36,50.94 17.34,58.48 C15.26,60.76 13.52,63.32 12.46,65.82 C14.2,68.18 17.26,70.68 21.02,72.54 L21.02,72.52 C15.86,88.2 22.9,102.22 22.98,104.02 C23.58,103.5 33.68,102.14 44.56,93.08 C46.08,95.8 47.96,98.2 50.04,100 C52.82,99.08 56.14,96.96 59.08,93.96 C72.38,103.72 87.92,101.34 89.64,101.82 C89.34,101.08 91.18,91.06 85.9,77.9 C88.94,77.28 91.84,76.26 94.16,74.84 C94.12,71.92 93.14,68.08 91.18,64.38 L91.2,64.38 C104.58,54.72 107.12,39.22 108.12,37.72 C107.32,37.8 98.36,32.96 84.22,33.9" id="Shape" fill="#FFFFFF" fill-rule="nonzero"></path>
                <path d="M54.72,57.02 C54.74,56.98 54.74,56.96 54.72,56.9 C54.68,56.8 54.5,56.74 54.18,56.64" id="Shape" stroke="#000000" stroke-width="1.5" stroke-linecap="round" stroke-linejoin="round"></path>
                <path d="M54.72,57.02 C54.72,57.04 54.7,57.08 54.68,57.08" id="Shape" stroke="#000000" stroke-width="1.5" stroke-linecap="round" stroke-linejoin="round"></path>
                <path d="M54.82,57.02 C54.8,57.02 54.76,57.04 54.74,57.02" id="Shape" stroke="#000000" stroke-width="1.5" stroke-linecap="round" stroke-linejoin="round"></path>
                <path d="M54.72,57.08 C54.68,57.06 54.66,57.06 54.62,57.04 C54.54,57.04 54.38,57.2 54.22,57.48" id="Shape" stroke="#000000" stroke-width="1.5" stroke-linecap="round" stroke-linejoin="round"></path>
                <path d="M41.84,21.92 C46.44,24.02 50.7,27.3 53.2,30.98 C54.5,32.94 55.4,34.78 55.96,36.5" id="Shape" stroke="#000000" stroke-width="1.5" stroke-linecap="round" stroke-linejoin="round"></path>
                <path d="M41.72,73.02 C34.48,76.64 26.86,75.4 21,72.56" id="Shape" stroke="#000000" stroke-width="1.5" stroke-linecap="round" stroke-linejoin="round"></path>
                <path d="M41.84,21.92 C39,20.64 36.06,19.78 33.36,19.54 C31.66,21.92 30.2,25.58 29.62,29.74" id="Shape" stroke="#000000" stroke-width="1.5" stroke-linecap="round" stroke-linejoin="round"></path>
                <path d="M72.98,24.7 C66.54,25.82 59.66,29.3 55.92,36.48" id="Shape" stroke="#000000" stroke-width="1.5" stroke-linecap="round" stroke-linejoin="round"></path>
                <path d="M55.54,37.3 C55.66,37.02 55.8,36.76 55.94,36.48" id="Shape" stroke="#000000" stroke-width="1.5" stroke-linecap="round" stroke-linejoin="round"></path>
                <path d="M72.98,24.7 C77.1,24 81.04,24.24 83.86,25.12 C84.5,27.78 84.58,30.86 84.22,33.94" id="Shape" stroke="#000000" stroke-width="1.5" stroke-linecap="round" stroke-linejoin="round"></path>
                <path d="M41.84,21.92 C45.28,8.18 52.68,1.14 52.88,0.38 C54,1.78 67.94,9 72.98,24.72" id="Shape" stroke="#000000" stroke-width="1.5" stroke-linecap="round" stroke-linejoin="round"></path>
                <path d="M54.84,57.1 C54.82,57.1 54.8,57.14 54.76,57.16" id="Shape" stroke="#000000" stroke-width="1.5" stroke-linecap="round" stroke-linejoin="round"></path>
                <path d="M54.84,57.1 C54.84,57.12 54.88,57.14 54.92,57.2 C55,57.26 55.18,57.2 55.5,57.08" id="Shape" stroke="#000000" stroke-width="1.5" stroke-linecap="round" stroke-linejoin="round"></path>
                <path d="M54.76,57.14 C54.74,57.18 54.72,57.2 54.7,57.24 C54.66,57.34 54.78,57.5 55,57.76" id="Shape" stroke="#000000" stroke-width="1.5" stroke-linecap="round" stroke-linejoin="round"></path>
                <path d="M74.7,51.8 C74.4,51.74 74.12,51.7 73.82,51.68" id="Shape" stroke="#000000" stroke-width="1.5" stroke-linecap="round" stroke-linejoin="round"></path>
                <path d="M65.94,74.4 C65.88,74.12 65.86,73.8 65.8,73.5" id="Shape" stroke="#000000" stroke-width="1.5" stroke-linecap="round" stroke-linejoin="round"></path>
                <path d="M44.54,93.08 C46.06,95.8 47.94,98.2 50.02,100 C52.8,99.08 56.12,96.96 59.06,93.96" id="Shape" stroke="#000000" stroke-width="1.5" stroke-linecap="round" stroke-linejoin="round"></path>
                <path d="M44.54,93.08 C33.66,102.14 23.58,103.5 22.96,104.02 C22.88,102.22 15.84,88.2 21,72.52" id="Shape" stroke="#000000" stroke-width="1.5" stroke-linecap="round" stroke-linejoin="round"></path>
                <path d="M42.54,72.62 C42.26,72.76 42,72.9 41.76,73.02" id="Shape" stroke="#000000" stroke-width="1.5" stroke-linecap="round" stroke-linejoin="round"></path>
                <path d="M44.54,93.08 C42.06,88.68 40.52,83.54 40.68,79.1 C40.76,76.76 41.14,74.74 41.72,73.02" id="Shape" stroke="#000000" stroke-width="1.5" stroke-linecap="round" stroke-linejoin="round"></path>
                <path d="M74.7,51.8 C82.68,53.12 88.14,58.58 91.18,64.38" id="Shape" stroke="#000000" stroke-width="1.5" stroke-linecap="round" stroke-linejoin="round"></path>
                <path d="M55,57.76 C56.52,59.46 63.46,64.66 65.42,72.02 C65.56,72.54 65.66,73.04 65.78,73.52" id="Shape" stroke="#000000" stroke-width="1.5" stroke-linecap="round" stroke-linejoin="round"></path>
                <path d="M84.22,33.92 C98.36,32.98 107.32,37.82 108.12,37.74 C107.12,39.24 104.58,54.74 91.2,64.4" id="Shape" stroke="#000000" stroke-width="1.5" stroke-linecap="round" stroke-linejoin="round"></path>
                <path d="M74.7,51.8 C76.18,50.72 77.64,49.32 79.1,47.5 C81.86,44 83.62,38.94 84.2,33.92" id="Shape" stroke="#000000" stroke-width="1.5" stroke-linecap="round" stroke-linejoin="round"></path>
                <path d="M59.06,93.96 C72.36,103.72 87.9,101.34 89.62,101.82 C89.32,101.08 91.16,91.06 85.88,77.9" id="Shape" stroke="#000000" stroke-width="1.5" stroke-linecap="round" stroke-linejoin="round"></path>
                <path d="M85.88,77.92 C88.92,77.3 91.82,76.28 94.14,74.86 C94.1,71.94 93.12,68.1 91.16,64.4" id="Shape" stroke="#000000" stroke-width="1.5" stroke-linecap="round" stroke-linejoin="round"></path>
                <path d="M59.06,93.96 C63.6,89.26 67.12,82.4 65.94,74.4" id="Shape" stroke="#000000" stroke-width="1.5" stroke-linecap="round" stroke-linejoin="round"></path>
                <path d="M85.88,77.92 C80.94,78.92 75.56,78.78 71.4,77.26 C69.2,76.44 67.4,75.48 65.94,74.4" id="Shape" stroke="#000000" stroke-width="1.5" stroke-linecap="round" stroke-linejoin="round"></path>
                <path d="M36.22,50.22 C36.58,50.58 36.98,50.9 37.4,51.26 C43.28,56.06 51.96,56.2 54.2,56.66" id="Shape" stroke="#000000" stroke-width="1.5" stroke-linecap="round" stroke-linejoin="round"></path>
                <path d="M17.34,58.5 C20.76,54.78 25.16,51.72 29.46,50.5 C31.74,49.86 33.76,49.6 35.56,49.6" id="Shape" stroke="#000000" stroke-width="1.5" stroke-linecap="round" stroke-linejoin="round"></path>
                <path d="M17.34,58.5 C5.36,50.96 0.94,41.78 0.26,41.36 C1.92,40.72 13.1,29.7 29.6,29.76" id="Shape" stroke="#000000" stroke-width="1.5" stroke-linecap="round" stroke-linejoin="round"></path>
                <path d="M21.02,72.56 C17.26,70.7 14.2,68.2 12.46,65.84 C13.52,63.34 15.26,60.78 17.34,58.5" id="Shape" stroke="#000000" stroke-width="1.5" stroke-linecap="round" stroke-linejoin="round"></path>
                <path d="M36.22,50.22 C36.02,50.02 35.78,49.8 35.56,49.6" id="Shape" stroke="#000000" stroke-width="1.5" stroke-linecap="round" stroke-linejoin="round"></path>
                <path d="M29.62,29.74 C28.7,36.18 29.9,43.84 35.58,49.58" id="Shape" stroke="#000000" stroke-width="1.5" stroke-linecap="round" stroke-linejoin="round"></path>
                <path d="M54.82,57.02 C54.84,57.02 54.9,57 54.92,56.98 C55.02,56.92 55.02,56.72 54.98,56.4" id="Shape" stroke="#000000" stroke-width="1.5" stroke-linecap="round" stroke-linejoin="round"></path>
                <path d="M54.76,57.14 C54.72,57.12 54.72,57.1 54.7,57.1" id="Shape" stroke="#000000" stroke-width="1.5" stroke-linecap="round" stroke-linejoin="round"></path>
                <path d="M54.84,57.1 C54.84,57.08 54.82,57.04 54.82,57.02" id="Shape" stroke="#000000" stroke-width="1.5" stroke-linecap="round" stroke-linejoin="round"></path>
                <path d="M54.98,56.38 C54.76,54.1 52.18,45.8 54.94,38.74 C55.12,38.24 55.34,37.78 55.54,37.3" id="Shape" stroke="#000000" stroke-width="1.5" stroke-linecap="round" stroke-linejoin="round"></path>
                <path d="M73.82,51.68 C73.3,51.62 72.8,51.58 72.26,51.56 C64.68,51.14 57.58,56.14 55.48,57.06" id="Shape" stroke="#000000" stroke-width="1.5" stroke-linecap="round" stroke-linejoin="round"></path>
                <path d="M42.54,72.62 C43,72.38 43.44,72.1 43.88,71.82 C50.26,67.7 53.06,59.46 54.22,57.5" id="Shape" stroke="#000000" stroke-width="1.5" stroke-linecap="round" stroke-linejoin="round"></path>
            </g>
        </g>
    </g>
</svg>