<?xml version="1.0" encoding="UTF-8"?>
<svg width="128px" height="128px" viewBox="0 0 128 128" version="1.1" xmlns="http://www.w3.org/2000/svg" xmlns:xlink="http://www.w3.org/1999/xlink">
    <!-- Generator: Sketch 45.2 (43514) - http://www.bohemiancoding.com/sketch -->
    <title>mint_icon</title>
    <desc>Created with Sketch.</desc>
    <defs></defs>
    <g id="Page-1" stroke="none" stroke-width="1" fill="none" fill-rule="evenodd">
        <g id="mint_icon">
            <g id="Group" transform="translate(9.000000, 12.000000)">
                <path d="M65.84,48.34 L65.82,48.24 C66.62,44.56 67.4,37.18 79.3,32.74 L78.82,34.8 C78.82,34.8 86.48,31.84 90.16,32.64 L89.62,34.28 C89.62,34.28 95.6,32.26 100.12,33.82 L99.38,35.5 C99.38,35.5 103.24,34.28 109.36,40.16 C108.18,48.54 104.38,50.06 104.38,50.06 L105.96,50.92 C103.3,54.94 97.42,56.94 97.42,56.94 L98.92,57.92 C96.54,60.86 88.7,63.2 88.7,63.2 L90.34,64.58 C78.28,68.52 73.06,63.14 70.12,60.76 C70,60.66 70,60.66 69.88,60.58 C69.3,60.12 68.84,59.86 68.38,59.6 L68.28,59.72 C68.16,59.62 67.94,59.56 67.72,59.48 C66.78,62.86 65.28,65.38 66.58,65.64 C66.68,65.62 66.8,65.72 67,65.7 L66.8,65.72 L66.9,65.7 C70.66,65.34 77.96,63.8 85.84,73.68 L83.74,73.84 C83.74,73.84 88.96,80.16 89.32,83.9 L87.64,83.9 C87.64,83.9 91.44,88.92 91.4,93.66 L89.6,93.56 C89.6,93.56 91.92,96.86 88.22,104.5 C79.96,105.96 77.34,102.8 77.34,102.8 L77.02,104.52 C72.44,103.3 68.64,98.28 68.64,98.28 L68.22,99.92 C64.68,98.56 60.04,91.86 60.04,91.86 L59.24,93.86 C51.84,83.6 55.34,77.04 56.7,73.5 C56.68,73.4 56.8,73.38 56.78,73.28 C57.02,72.62 57.16,72.08 57.2,71.54 C57.28,71.32 57.26,71.12 57.22,70.9 C53.76,71.12 50.94,70.42 51,71.78 L50.9,71.8 C50.92,71.9 51.04,72.1 51.06,72.2 L51.26,72.18 L51.28,72.28 C52.78,75.78 56.52,82.18 49.5,92.76 L48.62,90.76 C48.62,90.76 44.2,97.64 40.7,99.14 L40.18,97.52 C40.18,97.52 36.6,102.62 32.02,104.02 L31.6,102.28 C31.6,102.28 29.16,105.54 20.78,104.36 C16.8,96.94 19,93.5 19,93.5 L17.24,93.72 C16.96,88.9 20.54,83.82 20.54,83.82 L18.86,83.92 C19.14,80.2 24.02,73.68 24.02,73.68 L21.88,73.52 C29.36,63.3 36.58,64.5 40.42,64.76 C40.42,64.76 40.52,64.74 40.62,64.74 C41.36,64.76 41.88,64.68 42.4,64.62 C42.6,64.6 42.82,64.56 43.02,64.44 C41.78,61.22 41.52,58.3 40.3,58.76 C40.2,58.88 40,58.9 39.92,59.02 L40.04,59.12 C39.94,59.14 39.94,59.14 39.94,59.14 C37.08,61.6 32.18,67.18 19.94,63.74 L21.56,62.38 C21.56,62.38 13.7,60.3 11.14,57.46 L12.5,56.44 C12.5,56.44 6.46,54.56 3.76,50.68 L5.34,49.74 C5.34,49.74 1.48,48.42 0.02,40.06 C5.92,34.04 9.84,35.04 9.84,35.04 L9.1,33.34 C13.52,31.62 19.56,33.4 19.56,33.4 L18.94,31.78 C22.62,30.9 30.34,33.52 30.34,33.52 L29.76,31.48 C41.76,35.48 42.78,42.84 43.78,46.52 C43.8,46.62 43.8,46.72 43.82,46.84 C44.02,47.56 44.18,48.06 44.44,48.46 C44.56,48.66 44.68,48.74 44.82,48.94 C47.5,46.82 50.22,45.62 49.34,44.58 L49.36,44.68 C49.24,44.58 49.24,44.48 49,44.4 L49.1,44.38 C49,44.4 49,44.4 49.1,44.38 C45.68,42.38 38.98,39.42 38.46,26.72 L40.3,27.86 C40.3,27.86 40.22,27.24 40.2,26.28 L40.08,26.18 C40.08,23.64 40.22,18.78 41.6,16.38 L42.98,17.36 C42.98,17.36 42.84,11.16 45.74,7.3 L47.16,8.5 C47.16,8.5 47.28,4.36 54.7,0.38 C62.34,4.08 62.54,8.16 62.54,8.16 L63.86,6.94 C66.86,10.68 67,16.9 67,16.9 L68.34,15.78 C70.32,19.02 70.18,27.16 70.18,27.16 L71.94,26 C71.94,38.66 65.28,42.02 62.06,44.02 C61.96,44.04 61.96,44.14 61.86,44.14 C61.28,44.52 60.8,44.9 60.52,45.26 L60.54,45.36 C60.34,45.48 60.26,45.72 60.18,45.82 C63.16,47.76 65.02,49.96 65.72,48.82 L65.62,48.84 C65.72,48.82 65.7,48.62 65.78,48.5" id="Shape" fill="#FFFFFF" fill-rule="nonzero"></path>
                <path d="M40.66,64.78 C41.4,64.8 41.92,64.72 42.44,64.66" id="Shape" stroke="#000000" stroke-linecap="round"></path>
                <path d="M54.44,57 L54.34,57.01" id="Shape" stroke="#000000" stroke-linecap="round"></path>
                <path d="M54.76,57.74 C54.66,57.76 54.54,57.66 54.44,57.68" id="Shape" stroke="#000000" stroke-linecap="round"></path>
                <path d="M43.04,64.48 C42.84,64.6 42.64,64.64 42.42,64.66" id="Shape" stroke="#000000" stroke-linecap="round"></path>
                <path d="M54.9,58.04 C54.88,57.94 54.88,57.94 54.88,57.84" id="Shape" stroke="#000000" stroke-linecap="round"></path>
                <path d="M54.64,58.4 C54.54,58.42 54.54,58.52 54.44,58.52 C46.34,61.22 45.16,63.68 43.06,64.58" id="Shape" stroke="#000000" stroke-linecap="round"></path>
                <path d="M54.64,58.4 C54.62,58.3 54.62,58.3 54.64,58.4" id="Shape" stroke="#000000" stroke-linecap="round"></path>
                <path d="M57.26,70.94 C53.8,71.16 50.98,70.46 51.04,71.82" id="Shape" stroke="#000000" stroke-linecap="round"></path>
                <path d="M54.82,58.26 C54.82,58.26 54.72,58.38 54.62,58.38" id="Shape" stroke="#000000" stroke-linecap="round"></path>
                <path d="M40.66,64.78 C40.56,64.8 40.46,64.8 40.46,64.8 C36.62,64.54 29.4,63.32 21.92,73.56 L24.06,73.72 C24.06,73.72 19.18,80.24 18.9,83.96 L20.58,83.86 C20.58,83.86 17,88.96 17.28,93.76 L19.04,93.54 C19.04,93.54 16.84,96.98 20.82,104.4 C29.2,105.58 31.64,102.32 31.64,102.32 L32.06,104.06 C36.64,102.64 40.22,97.56 40.22,97.56 L40.74,99.18 C44.24,97.68 48.66,90.8 48.66,90.8 L49.54,92.8 C56.56,82.22 52.8,75.82 51.32,72.32 L51.3,72.22" id="Shape" stroke="#000000" stroke-linecap="round"></path>
                <path d="M51.08,72.24 C51.06,72.14 50.94,71.94 50.92,71.84" id="Shape" stroke="#000000" stroke-linecap="round"></path>
                <path d="M54.82,58.26 C54.92,58.24 54.92,58.14 54.92,58.14" id="Shape" stroke="#000000" stroke-linecap="round"></path>
                <path d="M54.76,57.74 C54.88,57.84 54.88,57.84 54.76,57.74" id="Shape" stroke="#000000" stroke-linecap="round"></path>
                <path d="M54,57.64 L54.01,57.74" id="Shape" stroke="#000000" stroke-linecap="round"></path>
                <path d="M43.04,64.48 C41.8,61.26 41.54,58.34 40.32,58.8" id="Shape" stroke="#000000" stroke-linecap="round"></path>
                <path d="M39.94,59.06 C40.04,58.94 40.24,58.92 40.32,58.8" id="Shape" stroke="#000000" stroke-linecap="round"></path>
                <path d="M54.7,57.22 C54.72,57.32 54.84,57.52 54.86,57.62 L54.86,57.62" id="Shape" stroke="#000000" stroke-linecap="round"></path>
                <path d="M54.62,58.3 C54.72,58.28 54.72,58.28 54.82,58.18" id="Shape" stroke="#000000" stroke-linecap="round"></path>
                <path d="M54.42,58.32 L54.3,58.22" id="Shape" stroke="#000000" stroke-linecap="round"></path>
                <path d="M54.76,57.74 C54.78,57.84 54.78,57.94 54.8,58.06" id="Shape" stroke="#000000" stroke-linecap="round"></path>
                <path d="M54.42,58.32 C54.52,58.3 54.54,58.42 54.64,58.4" id="Shape" stroke="#000000" stroke-linecap="round"></path>
                <path d="M44.8,48.96 C44.68,48.76 44.56,48.68 44.42,48.48" id="Shape" stroke="#000000" stroke-linecap="round"></path>
                <path d="M43.8,46.88 C43.78,46.78 43.78,46.68 43.76,46.56 C42.78,42.88 41.74,35.52 29.74,31.52 L30.32,33.56 C30.32,33.56 22.6,30.94 18.92,31.82 L19.54,33.44 C19.54,33.44 13.52,31.66 9.08,33.38 L9.82,35.08 C9.82,35.08 5.9,34.1 0,40.1 C1.46,48.46 5.32,49.78 5.32,49.78 L3.74,50.72 C6.44,54.6 12.48,56.48 12.48,56.48 L11.12,57.5 C13.7,60.34 21.54,62.42 21.54,62.42 L19.92,63.78 C32.16,67.22 37.06,61.64 39.92,59.18 C39.92,59.18 39.92,59.18 40.02,59.16" id="Shape" stroke="#000000" stroke-linecap="round"></path>
                <path d="M54.28,58.12 C54.26,58.02 54.16,58.02 54.16,57.92 C49.08,51.06 46.4,50.76 44.92,48.94" id="Shape" stroke="#000000" stroke-linecap="round"></path>
                <path d="M43.8,46.88 C44,47.6 44.16,48.1 44.42,48.5" id="Shape" stroke="#000000" stroke-linecap="round"></path>
                <path d="M49.08,44.42 C48.98,44.44 48.98,44.44 49.08,44.42 C45.66,42.42 38.96,39.46 38.44,26.76 L40.28,27.9 C40.28,27.9 40.2,27.28 40.18,26.32" id="Shape" stroke="#000000" stroke-linecap="round"></path>
                <path d="M54.7,57.22 C59.44,50.4 58.92,47.82 60.14,45.88" id="Shape" stroke="#000000" stroke-linecap="round"></path>
                <path d="M60.5,45.42 C60.3,45.54 60.22,45.78 60.14,45.88" id="Shape" stroke="#000000" stroke-linecap="round"></path>
                <path d="M54.7,57.22 C54.6,57.34 54.62,57.44 54.52,57.46 C54.54,57.56 54.42,57.58 54.44,57.68" id="Shape" stroke="#000000" stroke-linecap="round"></path>
                <path d="M54.9,58.04 C54.9,58.04 54.92,58.14 54.9,58.04" id="Shape" stroke="#000000" stroke-linecap="round"></path>
                <path d="M55,58.04 C54.9,58.04 54.9,58.04 55,58.04" id="Shape" stroke="#000000" stroke-linecap="round"></path>
                <path d="M61.84,44.2 C61.94,44.18 61.94,44.08 62.04,44.08 C65.28,42.1 71.92,38.74 71.92,26.06 L70.16,27.22 C70.16,27.22 70.3,19.08 68.32,15.84 L66.98,16.96 C66.98,16.96 66.84,10.76 63.84,7 L62.52,8.22 C62.52,8.22 62.32,4.12 54.68,0.44 C47.26,4.42 47.14,8.56 47.14,8.56 L45.72,7.36 C42.82,11.2 42.96,17.42 42.96,17.42 L41.58,16.44 C40.18,18.82 40.06,23.7 40.06,26.24" id="Shape" stroke="#000000" stroke-linecap="round"></path>
                <path d="M44.8,48.96 C47.48,46.84 50.2,45.64 49.32,44.6" id="Shape" stroke="#000000" stroke-linecap="round"></path>
                <path d="M54.42,58.32 C54.52,58.3 54.52,58.3 54.42,58.32" id="Shape" stroke="#000000" stroke-linecap="round"></path>
                <path d="M61.84,44.2 C61.26,44.58 60.78,44.96 60.5,45.32" id="Shape" stroke="#000000" stroke-linecap="round"></path>
                <path d="M54.34,57.7 C54.36,57.8 54.24,57.82 54.26,57.92" id="Shape" stroke="#000000" stroke-linecap="round"></path>
                <path d="M54.28,58.12 C54.26,58.02 54.26,58.02 54.26,57.92" id="Shape" stroke="#000000" stroke-linecap="round"></path>
                <path d="M54.42,58.32 C54.32,58.34 54.3,58.22 54.3,58.22" id="Shape" stroke="#000000" stroke-linecap="round"></path>
                <path d="M49.34,44.7 C49.22,44.6 49.22,44.5 48.98,44.42" id="Shape" stroke="#000000" stroke-linecap="round"></path>
                <path d="M54.52,58.3 C54.62,58.28 54.72,58.28 54.82,58.16" id="Shape" stroke="#000000" stroke-linecap="round"></path>
                <path d="M69.9,60.6 C69.32,60.14 68.86,59.88 68.4,59.62" id="Shape" stroke="#000000" stroke-linecap="round"></path>
                <path d="M67.76,59.5 C67.98,59.58 68.2,59.66 68.32,59.74" id="Shape" stroke="#000000" stroke-linecap="round"></path>
                <path d="M65.68,48.88 C64.98,50.02 63.12,47.82 60.14,45.88" id="Shape" stroke="#000000" stroke-linecap="round"></path>
                <path d="M65.76,48.56 C65.66,48.68 65.7,48.88 65.6,48.9" id="Shape" stroke="#000000" stroke-linecap="round"></path>
                <path d="M69.9,60.6 C70.02,60.7 70.02,60.7 70.14,60.78 C73.08,63.16 78.28,68.52 90.36,64.6 L88.72,63.22 C88.72,63.22 96.56,60.88 98.94,57.94 L97.44,56.96 C97.44,56.96 103.32,54.96 105.98,50.94 L104.4,50.08 C104.4,50.08 108.22,48.54 109.38,40.18 C103.26,34.3 99.4,35.52 99.4,35.52 L100.14,33.84 C95.62,32.3 89.64,34.3 89.64,34.3 L90.18,32.66 C86.5,31.86 78.84,34.82 78.84,34.82 L79.32,32.76 C67.42,37.2 66.66,44.58 65.84,48.26 L65.86,48.36" id="Shape" stroke="#000000" stroke-linecap="round"></path>
                <path d="M54.38,58 C54.26,58.02 54.26,57.92 54.38,58" id="Shape" stroke="#000000" stroke-linecap="round"></path>
                <path d="M54.34,57.7 C54.24,57.72 54.24,57.82 54.26,57.92" id="Shape" stroke="#000000" stroke-linecap="round"></path>
                <path d="M54.38,58 C54.4,58.1 54.5,58.2 54.62,58.28" id="Shape" stroke="#000000" stroke-linecap="round"></path>
                <path d="M54.74,57.64 C54.84,57.62 54.84,57.62 54.96,57.72 C63.2,60.28 65.46,58.94 67.74,59.5" id="Shape" stroke="#000000" stroke-linecap="round"></path>
                <path d="M54.74,57.64 C54.64,57.66 54.64,57.66 54.54,57.66" id="Shape" stroke="#000000" stroke-linecap="round"></path>
                <path d="M54.34,57.7 C54.34,57.7 54.44,57.68 54.54,57.68" id="Shape" stroke="#000000" stroke-linecap="round"></path>
                <path d="M57.22,71.58 C57.18,72.12 57.04,72.66 56.8,73.32" id="Shape" stroke="#000000" stroke-linecap="round"></path>
                <path d="M57.26,70.94 C57.08,68.64 55.16,66.78 55.04,58.24 C55.02,58.14 55.02,58.04 55.02,58.04" id="Shape" stroke="#000000" stroke-linecap="round"></path>
                <path d="M67.76,59.5 C66.82,62.88 65.32,65.4 66.62,65.66" id="Shape" stroke="#000000" stroke-linecap="round"></path>
                <path d="M54.88,57.84 C54.86,57.74 54.86,57.74 54.76,57.64" id="Shape" stroke="#000000" stroke-linecap="round"></path>
                <path d="M57.26,70.94 C57.28,71.14 57.32,71.36 57.24,71.58" id="Shape" stroke="#000000" stroke-linecap="round"></path>
                <path d="M56.82,73.32 C56.84,73.42 56.72,73.44 56.74,73.54 C55.38,77.08 51.88,83.64 59.28,93.9 L60.08,91.9 C60.08,91.9 64.72,98.6 68.26,99.96 L68.68,98.32 C68.68,98.32 72.48,103.34 77.06,104.56 L77.38,102.84 C77.38,102.84 80,106 88.26,104.54 C91.96,96.9 89.64,93.6 89.64,93.6 L91.44,93.7 C91.48,88.94 87.68,83.94 87.68,83.94 L89.36,83.94 C89,80.18 83.78,73.88 83.78,73.88 L85.88,73.72 C78,63.84 70.7,65.38 66.94,65.74 L66.84,65.76" id="Shape" stroke="#000000" stroke-linecap="round"></path>
                <path d="M55,58.04 C54.9,58.04 54.9,58.04 55,58.04" id="Shape" stroke="#000000" stroke-linecap="round"></path>
                <path d="M66.62,65.66 C66.72,65.64 66.84,65.74 67.04,65.72" id="Shape" stroke="#000000" stroke-linecap="round"></path>
                <path d="M54.28,58.12 C54.28,58.12 54.26,58.02 54.28,58.12" id="Shape" stroke="#000000" stroke-linecap="round"></path>
                <path d="M54.74,57.64 C54.62,57.54 54.62,57.54 54.54,57.66" id="Shape" stroke="#000000" stroke-linecap="round"></path>
                <path d="M54.44,57.68 C54.54,57.66 54.54,57.66 54.44,57.68" id="Shape" stroke="#000000" stroke-linecap="round"></path>
                <path d="M54.88,57.84 C54.9,57.94 54.9,57.94 54.9,58.04" id="Shape" stroke="#000000" stroke-linecap="round"></path>
                <path d="M54.38,58 C54.48,57.88 54.46,57.78 54.54,57.66" id="Shape" stroke="#000000" stroke-linecap="round"></path>
            </g>
        </g>
    </g>
</svg>