<?xml version="1.0" encoding="UTF-8"?>
<svg width="128px" height="128px" viewBox="0 0 128 128" version="1.1" xmlns="http://www.w3.org/2000/svg" xmlns:xlink="http://www.w3.org/1999/xlink">
    <!-- Generator: Sketch 45.2 (43514) - http://www.bohemiancoding.com/sketch -->
    <title>passion_icon</title>
    <desc>Created with Sketch.</desc>
    <defs></defs>
    <g id="Page-1" stroke="none" stroke-width="1" fill="none" fill-rule="evenodd">
        <g id="passion_icon">
            <g id="Group" transform="translate(2.000000, 4.000000)">
                <path d="M77.14,98.56 C80.4,104.4 84.34,109.64 88.64,113.82 C94.52,119.5 98.92,118.74 100.16,109.52 C101.34,100.68 99.34,90.02 91.94,80.2 C91.02,78.98 90.1,77.86 89.2,76.84 C91.52,77.5 93.98,78.04 96.68,78.46 C104.7,79.68 112.26,79.86 106.28,72.42 C103.68,69.2 100.76,66.46 97.5,64.36 C97.5,64.28 97.44,64.16 97.34,64.1 C97.34,64.1 96.86,63.8 96.46,63.52 C96.34,63.44 96.34,63.32 96.48,63.28 C96.94,63.14 97.5,62.98 97.5,62.98 C97.98,62.84 97.78,62.14 97.3,62.28 C97.3,62.28 96.76,62.44 96.28,62.58 C95.64,62.78 95.1,62.74 94.48,62.5 C93.94,62.3 93.54,62.08 93.3,61.56 C93.2,61.34 93.46,61.44 93.7,61.46 C94.44,61.54 95.2,61.6 95.94,61.64 C96.68,61.68 97.44,61.72 98.18,61.74 C98.66,61.76 99.3,61.76 99.3,61.76 C99.8,61.76 99.82,61.04 99.32,61.04 C99.32,61.04 98.7,61.02 98.2,61 C98.02,61 97.78,61.08 97.9,60.96 C98.24,60.58 98.48,60.32 98.48,60.32 C98.58,60.22 98.6,60.1 98.58,60 C105.14,58.7 111.36,56.58 116.66,53.76 C123.88,49.92 124.54,45.5 116.14,41.48 C108.12,37.66 97.34,36.24 85.72,40.26 C84.26,40.78 82.92,41.28 81.68,41.82 L81.7,41.84 C83.04,39.84 84.32,37.68 85.56,35.22 C89.2,27.96 91.74,20.84 82.78,24.24 C78.92,25.7 75.42,27.66 72.4,30.1 C72.3,30.08 72.2,30.1 72.08,30.18 C72.08,30.18 71.64,30.54 71.26,30.84 C71.14,30.92 71.06,30.88 71.06,30.74 C71.06,30.24 71.08,29.7 71.08,29.7 C71.08,29.2 70.36,29.18 70.36,29.68 C70.36,29.68 70.36,30.24 70.34,30.72 C70.32,31.38 70.12,31.88 69.72,32.42 C69.36,32.88 69.04,33.18 68.46,33.26 C68.22,33.3 68.4,33.08 68.48,32.86 C68.78,32.18 69.06,31.48 69.34,30.78 C69.62,30.08 69.88,29.38 70.14,28.66 C70.3,28.2 70.5,27.6 70.5,27.6 C70.66,27.14 69.98,26.9 69.82,27.36 C69.82,27.36 69.62,27.96 69.46,28.42 C69.4,28.58 69.42,28.84 69.32,28.68 C69.08,28.26 68.9,27.94 68.9,27.94 C68.84,27.82 68.72,27.74 68.62,27.76 L68.64,27.78 C69.42,21.14 69.34,14.58 68.3,8.68 C66.88,0.62 62.86,-1.36 56.46,5.38 C50.34,11.84 45.68,21.64 45.9,33.92 C45.94,35.46 46.02,36.9 46.14,38.24 C44.64,36.34 42.98,34.46 41.02,32.54 C35.24,26.84 29.24,22.24 29.72,31.8 C29.92,35.92 30.7,39.86 32.1,43.48 C32.04,43.56 32.02,43.68 32.08,43.8 C32.08,43.8 32.28,44.32 32.44,44.78 C32.5,44.92 32.42,44.98 32.28,44.94 C31.82,44.78 31.28,44.58 31.28,44.58 C30.82,44.42 30.58,45.1 31.04,45.26 C31.04,45.26 31.56,45.44 32.04,45.62 C32.66,45.84 33.1,46.2 33.46,46.76 C33.78,47.24 33.96,47.64 33.88,48.22 C33.84,48.46 33.7,48.22 33.5,48.06 C32.92,47.56 32.36,47.08 31.8,46.6 C31.22,46.12 30.64,45.64 30.04,45.2 C29.66,44.9 29.14,44.52 29.14,44.52 C28.76,44.22 28.3,44.8 28.7,45.1 C28.7,45.1 29.2,45.48 29.6,45.78 C29.74,45.9 29.98,45.96 29.8,45.98 C29.32,46.08 28.96,46.16 28.96,46.16 C28.82,46.2 28.72,46.28 28.68,46.38 L28.7,46.36 C22.64,43.56 16.36,41.62 10.42,40.78 C2.3,39.64 -0.8,42.84 3.62,51.02 C7.86,58.86 15.72,66.3 27.5,69.88 C28.98,70.32 30.36,70.68 31.7,70.98 C29.44,71.82 27.14,72.82 24.7,74.08 C17.5,77.82 11.26,82.1 20.48,84.6 C24.46,85.68 28.46,86.16 32.32,85.94 L32.34,85.92 C32.42,86 32.5,86.06 32.64,86.04 C32.64,86.04 33.2,86.02 33.7,85.98 C33.84,85.96 33.9,86.08 33.8,86.18 C33.5,86.58 33.16,87.02 33.16,87.02 C32.86,87.4 33.44,87.86 33.74,87.46 C33.74,87.46 34.08,87 34.38,86.62 C34.8,86.08 35.26,85.8 35.9,85.62 C36.44,85.48 36.9,85.42 37.4,85.68 C37.6,85.78 37.34,85.86 37.12,85.98 C36.48,86.36 35.84,86.74 35.2,87.14 C34.56,87.54 33.94,87.96 33.32,88.38 C32.92,88.66 32.4,89.02 32.4,89.02 C31.98,89.32 32.42,89.92 32.82,89.62 C32.82,89.62 33.34,89.26 33.74,88.98 C33.9,88.9 34.02,88.68 34,88.86 C33.94,89.36 33.9,89.7 33.9,89.7 C33.9,89.84 33.94,89.96 34.02,90.02 C29.48,94.92 25.7,100.3 23.06,105.68 C19.46,113.04 21.54,117 30.7,115.3 C39.46,113.7 48.98,108.5 56.02,98.42 C56.9,97.16 57.68,95.96 58.36,94.78 C58.46,97.18 58.7,99.68 59.14,102.4 C60.46,110.4 62.6,117.66 67.84,109.64 C70.1,106.18 71.78,102.54 72.78,98.78 C72.88,98.74 72.96,98.66 72.98,98.52 C72.98,98.52 73.14,97.98 73.26,97.5 C73.3,97.36 73.4,97.34 73.5,97.46 C73.78,97.86 74.1,98.34 74.1,98.34 C74.38,98.74 74.98,98.34 74.7,97.92 C74.7,97.92 74.38,97.46 74.1,97.04 C73.72,96.5 73.58,95.96 73.62,95.3 C73.66,94.72 73.72,94.28 74.14,93.86 C74.32,93.68 74.28,93.98 74.34,94.2 C74.5,94.94 74.68,95.66 74.86,96.38 C75.04,97.12 75.24,97.84 75.46,98.56 C75.6,99.04 75.78,99.64 75.78,99.64 C75.92,100.12 76.62,99.9 76.48,99.44 C76.48,99.44 76.3,98.84 76.16,98.36 C76.1,98.18 75.94,98 76.12,98.06 C76.56,98.26 76.88,98.42 76.88,98.42 C77,98.48 77.12,98.46 77.24,98.4" id="Shape" stroke="#000000" stroke-width="2"></path>
                <path d="M77.14,98.56 C80.4,104.4 84.34,109.64 88.64,113.82 C94.52,119.5 98.92,118.74 100.16,109.52 C101.34,100.68 99.34,90.02 91.94,80.2 C91.02,78.98 90.1,77.86 89.2,76.84 C91.52,77.5 93.98,78.04 96.68,78.46 C104.7,79.68 112.26,79.86 106.28,72.42 C103.68,69.2 100.76,66.46 97.5,64.36 C97.5,64.28 97.44,64.16 97.34,64.1 C97.34,64.1 96.86,63.8 96.46,63.52 C96.34,63.44 96.34,63.32 96.48,63.28 C96.94,63.14 97.5,62.98 97.5,62.98 C97.98,62.84 97.78,62.14 97.3,62.28 C97.3,62.28 96.76,62.44 96.28,62.58 C95.64,62.78 95.1,62.74 94.48,62.5 C93.94,62.3 93.54,62.08 93.3,61.56 C93.2,61.34 93.46,61.44 93.7,61.46 C94.44,61.54 95.2,61.6 95.94,61.64 C96.68,61.68 97.44,61.72 98.18,61.74 C98.66,61.76 99.3,61.76 99.3,61.76 C99.8,61.76 99.82,61.04 99.32,61.04 C99.32,61.04 98.7,61.02 98.2,61 C98.02,61 97.78,61.08 97.9,60.96 C98.24,60.58 98.48,60.32 98.48,60.32 C98.58,60.22 98.6,60.1 98.58,60 C105.14,58.7 111.36,56.58 116.66,53.76 C123.88,49.92 124.54,45.5 116.14,41.48 C108.12,37.66 97.34,36.24 85.72,40.26 C84.26,40.78 82.92,41.28 81.68,41.82 L81.7,41.84 C83.04,39.84 84.32,37.68 85.56,35.22 C89.2,27.96 91.74,20.84 82.78,24.24 C78.92,25.7 75.42,27.66 72.4,30.1 C72.3,30.08 72.2,30.1 72.08,30.18 C72.08,30.18 71.64,30.54 71.26,30.84 C71.14,30.92 71.06,30.88 71.06,30.74 C71.06,30.24 71.08,29.7 71.08,29.7 C71.08,29.2 70.36,29.18 70.36,29.68 C70.36,29.68 70.36,30.24 70.34,30.72 C70.32,31.38 70.12,31.88 69.72,32.42 C69.36,32.88 69.04,33.18 68.46,33.26 C68.22,33.3 68.4,33.08 68.48,32.86 C68.78,32.18 69.06,31.48 69.34,30.78 C69.62,30.08 69.88,29.38 70.14,28.66 C70.3,28.2 70.5,27.6 70.5,27.6 C70.66,27.14 69.98,26.9 69.82,27.36 C69.82,27.36 69.62,27.96 69.46,28.42 C69.4,28.58 69.42,28.84 69.32,28.68 C69.08,28.26 68.9,27.94 68.9,27.94 C68.84,27.82 68.72,27.74 68.62,27.76 L68.64,27.78 C69.42,21.14 69.34,14.58 68.3,8.68 C66.88,0.62 62.86,-1.36 56.46,5.38 C50.34,11.84 45.68,21.64 45.9,33.92 C45.94,35.46 46.02,36.9 46.14,38.24 C44.64,36.34 42.98,34.46 41.02,32.54 C35.24,26.84 29.24,22.24 29.72,31.8 C29.92,35.92 30.7,39.86 32.1,43.48 C32.04,43.56 32.02,43.68 32.08,43.8 C32.08,43.8 32.28,44.32 32.44,44.78 C32.5,44.92 32.42,44.98 32.28,44.94 C31.82,44.78 31.28,44.58 31.28,44.58 C30.82,44.42 30.58,45.1 31.04,45.26 C31.04,45.26 31.56,45.44 32.04,45.62 C32.66,45.84 33.1,46.2 33.46,46.76 C33.78,47.24 33.96,47.64 33.88,48.22 C33.84,48.46 33.7,48.22 33.5,48.06 C32.92,47.56 32.36,47.08 31.8,46.6 C31.22,46.12 30.64,45.64 30.04,45.2 C29.66,44.9 29.14,44.52 29.14,44.52 C28.76,44.22 28.3,44.8 28.7,45.1 C28.7,45.1 29.2,45.48 29.6,45.78 C29.74,45.9 29.98,45.96 29.8,45.98 C29.32,46.08 28.96,46.16 28.96,46.16 C28.82,46.2 28.72,46.28 28.68,46.38 L28.7,46.36 C22.64,43.56 16.36,41.62 10.42,40.78 C2.3,39.64 -0.8,42.84 3.62,51.02 C7.86,58.86 15.72,66.3 27.5,69.88 C28.98,70.32 30.36,70.68 31.7,70.98 C29.44,71.82 27.14,72.82 24.7,74.08 C17.5,77.82 11.26,82.1 20.48,84.6 C24.46,85.68 28.46,86.16 32.32,85.94 L32.34,85.92 C32.42,86 32.5,86.06 32.64,86.04 C32.64,86.04 33.2,86.02 33.7,85.98 C33.84,85.96 33.9,86.08 33.8,86.18 C33.5,86.58 33.16,87.02 33.16,87.02 C32.86,87.4 33.44,87.86 33.74,87.46 C33.74,87.46 34.08,87 34.38,86.62 C34.8,86.08 35.26,85.8 35.9,85.62 C36.44,85.48 36.9,85.42 37.4,85.68 C37.6,85.78 37.34,85.86 37.12,85.98 C36.48,86.36 35.84,86.74 35.2,87.14 C34.56,87.54 33.94,87.96 33.32,88.38 C32.92,88.66 32.4,89.02 32.4,89.02 C31.98,89.32 32.42,89.92 32.82,89.62 C32.82,89.62 33.34,89.26 33.74,88.98 C33.9,88.9 34.02,88.68 34,88.86 C33.94,89.36 33.9,89.7 33.9,89.7 C33.9,89.84 33.94,89.96 34.02,90.02 C29.48,94.92 25.7,100.3 23.06,105.68 C19.46,113.04 21.54,117 30.7,115.3 C39.46,113.7 48.98,108.5 56.02,98.42 C56.9,97.16 57.68,95.96 58.36,94.78 C58.46,97.18 58.7,99.68 59.14,102.4 C60.46,110.4 62.6,117.66 67.84,109.64 C70.1,106.18 71.78,102.54 72.78,98.78 C72.88,98.74 72.96,98.66 72.98,98.52 C72.98,98.52 73.14,97.98 73.26,97.5 C73.3,97.36 73.4,97.34 73.5,97.46 C73.78,97.86 74.1,98.34 74.1,98.34 C74.38,98.74 74.98,98.34 74.7,97.92 C74.7,97.92 74.38,97.46 74.1,97.04 C73.72,96.5 73.58,95.96 73.62,95.3 C73.66,94.72 73.72,94.28 74.14,93.86 C74.32,93.68 74.28,93.98 74.34,94.2 C74.5,94.94 74.68,95.66 74.86,96.38 C75.04,97.12 75.24,97.84 75.46,98.56 C75.6,99.04 75.78,99.64 75.78,99.64 C75.92,100.12 76.62,99.9 76.48,99.44 C76.48,99.44 76.3,98.84 76.16,98.36 C76.1,98.18 75.94,98 76.12,98.06 C76.56,98.26 76.88,98.42 76.88,98.42 C77,98.48 77.12,98.46 77.24,98.4" id="Shape" fill="#FFFFFF" fill-rule="nonzero"></path>
                <g id="Shape" stroke="#000000" stroke-width="0.5" stroke-linecap="round" stroke-linejoin="round">
                    <path d="M52.42,65.06 C51.28,64.72 50.02,64.2 48.66,63.5"></path>
                    <path d="M35.5,49.96 C35.28,49.82 35.04,49.68 34.82,49.56"></path>
                    <path d="M57.04,72.1 C58.68,69.36 58.26,67.28 56.1,67.98 C53.38,68.86 48.84,68.88 45.94,67.62"></path>
                    <path d="M46.88,71.76 C46.86,71.74 46.84,71.7 46.82,71.68 C46.36,71.1 45.88,70.54 45.5,69.92 C45.16,69.32 44.74,68.76 44.36,68.18 C44.28,68.08 44.24,67.98 44.18,67.88"></path>
                    <path d="M34.5,48.48 C34.48,48.88 34.6,49.2 34.82,49.58"></path>
                    <path d="M44.24,58.84 C42.7,58.28 41.18,58.12 39.52,58.24 C38.48,58.32 37.78,58.3 37.64,57.28 C37.48,56.06 37.46,55.98 37.44,55.88 C37.12,54.9 36.48,53.96 36.48,53.96 C36.04,53.32 35.68,52.76 35.64,51.98 C35.62,51.14 35.4,50.46 34.92,49.76 C34.86,49.68 34.82,49.62 34.8,49.56"></path>
                    <path d="M34.5,48.48 C34.5,48.44 34.5,48.4 34.5,48.34 C34.62,47.58 34.4,47 33.98,46.36 C33.6,45.78 33.28,45.18 33.04,44.52 C32.86,44.06 32.68,43.54 32.68,43.54 C32.54,43.2 32.16,43.24 32.02,43.48"></path>
                    <path d="M35.5,49.96 C35.16,49.48 34.84,48.98 34.52,48.48"></path>
                    <path d="M44.24,58.84 C42.74,57.58 41.42,56.28 39.3,54.32 C37.86,52.98 36.6,51.52 35.5,49.96"></path>
                    <path d="M40.4,68.54 C40.6,68.6 40.76,68.66 40.96,68.72 C41.7,68.94 42.44,68.98 43.22,68.96 C43.54,68.94 43.86,68.92 43.68,68.64 C43.56,68.44 43.44,68.24 43.32,68.04"></path>
                    <path d="M45.94,67.6 C45.4,67.36 44.92,67.08 44.52,66.76 C42.28,64.96 44.26,63.88 47.72,63.66 C48.12,63.64 48.44,63.58 48.66,63.48"></path>
                    <path d="M77.2,71.98 C76.66,71.72 76.14,71.44 75.6,71.16"></path>
                    <path d="M78.4,67.94 C78.4,68.18 78.38,68.46 78.38,68.74 C78.38,68.78 78.38,68.86 78.3,69.64 C78.24,70.34 78.46,70.7 79.02,71.08 C79.74,71.54 80.36,72.08 80.88,72.76 C81.26,73.24 81.6,73.46 82.22,73.44 C82.92,73.4 83.62,73.42 84.3,73.5 C84.92,73.56 85.54,73.66 86.14,73.78"></path>
                    <path d="M80.66,73.66 C80.54,73.5 80.44,73.34 80.3,73.2 C79.82,72.6 79.26,72.12 78.62,71.7 C78.34,71.54 78.08,71.38 78.08,71.68 C78.06,71.92 78.04,72.16 78,72.38"></path>
                    <path d="M85.7,75.72 C85.62,75.54 85.5,75.28 85.38,75 C85.14,74.46 84.82,74.24 84.22,74.18 C83.56,74.12 82.92,74.08 82.26,74.12 C82.14,74.12 82.08,74.18 82.08,74.26"></path>
                    <path d="M69.28,61 C66.32,62.24 65.46,64.18 67.62,64.88 C70.34,65.76 74,68.42 75.62,71.16"></path>
                    <path d="M80.66,73.66 C79.78,73.26 78.9,72.84 78,72.38"></path>
                    <path d="M67.18,70.98 C65.1,68.56 62.96,68.32 62.96,70.6 C62.96,73.46 61.56,77.78 59.48,80.14"></path>
                    <path d="M57.04,72.1 C56.5,73 55.74,73.96 54.72,74.92 C53.76,75.86 52.82,76.46 51.5,75.66 C50.46,75.02 49.38,74.42 48.52,73.54 C47.96,72.94 47.36,72.38 46.84,71.76"></path>
                    <path d="M44.16,67.88 C44.74,67.78 45.34,67.7 45.94,67.6"></path>
                    <path d="M40.4,68.54 C41.34,68.36 42.32,68.18 43.3,68.02"></path>
                    <path d="M61.14,65.02 C61.52,67.42 61.2,70.12 59.06,73.2"></path>
                    <path d="M61.74,64.9 C64.14,65.28 66.6,66.4 68.88,69.42"></path>
                    <path d="M77.3,67.24 C77.3,67.28 77.3,67.3 77.3,67.34 C77.34,68.08 77.4,68.82 77.32,69.54 C77.26,70.24 77.26,70.92 77.22,71.62 C77.22,71.74 77.22,71.86 77.2,71.98"></path>
                    <path d="M53.7,50.86 C53.44,50.32 53.16,49.78 52.88,49.24"></path>
                    <path d="M53.7,50.86 C53.76,50.28 53.86,49.74 54.06,49.26 C55.06,46.58 56.72,48.12 58,51.34 C58.14,51.72 58.3,51.98 58.46,52.18"></path>
                    <path d="M58.44,52.14 C58.2,53.66 58.1,54.98 58.12,56.18"></path>
                    <path d="M50.04,53.02 C50.06,52.98 50.06,52.96 50.1,52.94 C50.5,52.32 50.88,51.68 51.38,51.14 C51.84,50.62 52.24,50.06 52.7,49.52 C52.78,49.42 52.84,49.34 52.94,49.24"></path>
                    <path d="M52.86,62.78 C51.84,62.54 50.68,62.12 49.46,61.46 C48.28,60.82 47.4,60.12 47.76,58.62 C48.06,57.42 48.28,56.22 48.86,55.14 C49.26,54.42 49.6,53.68 50.04,53"></path>
                    <path d="M61.24,64.06 C61.26,64.08 61.28,64.1 61.3,64.12 C61.38,64.2 61.42,64.3 61.44,64.36"></path>
                    <path d="M68.3,58.9 C64.74,60.14 62.9,62.14 61.8,64.3"></path>
                    <path d="M52.86,62.78 C55.98,63.5 57.82,62.46 56.5,60.62 C54.82,58.32 53.42,54 53.72,50.84"></path>
                    <path d="M44.24,58.84 C44.34,58.88 44.44,58.92 44.56,58.96 C45.54,59.34 46.18,59.34 46.44,58.3 C46.76,57 47.16,55.76 47.8,54.56 C48.14,53.92 48.12,53.52 47.52,53.1 C46.78,52.62 46.06,52.1 45.36,51.58 C44.88,51.22 44.44,50.98 43.84,50.96 C43.28,50.94 42.72,50.94 42.18,50.98 C41.62,51.02 41.08,51.08 40.54,51.14 C39.84,51.24 39.22,51.1 38.54,50.86 C37.8,50.6 37.2,50.18 36.6,49.66 C36.22,49.32 35.76,48.9 35.76,48.9 C35.38,48.56 35.86,48.02 36.24,48.36 C36.24,48.36 36.72,48.78 37.08,49.12 C37.6,49.58 38.16,49.92 38.82,50.18 C39.36,50.4 39.86,50.5 40.46,50.42 C40.84,50.36 40.78,50.12 40.68,49.76 C40.48,49.1 40.16,48.6 39.66,48.14 C39.14,47.66 38.62,47.3 38,47.02 C37.56,46.82 37.04,46.58 37.04,46.58 C36.6,46.38 36.9,45.72 37.34,45.92 C37.34,45.92 37.86,46.16 38.3,46.36 C38.36,46.4 38.38,46.32 38.36,46.26 C38.16,45.8 37.94,45.26 37.94,45.26 C37.74,44.8 38.42,44.52 38.62,44.96 C38.62,44.96 38.84,45.5 39.04,45.96 C39.32,46.6 39.68,47.12 40.18,47.62 C40.78,48.18 41.16,48.78 41.4,49.56 C41.54,50.02 41.7,50.3 42.16,50.26 C42.16,50.26 42.7,50.22 43.16,50.22 C43.34,50.22 43.5,50.22 43.62,50.2 C43.8,50.2 43.8,50.1 43.7,49.96 C43.34,49.48 42.9,48.72 42.68,47.96 C42.48,47.3 42.18,46.76 41.7,46.24 C41.22,45.72 40.72,45.3 40.12,44.94 C39.5,44.56 38.9,44.18 38.3,43.78 C37.88,43.5 37.4,43.18 37.4,43.18 C36.98,42.9 37.4,42.3 37.8,42.56 C37.8,42.56 38.3,42.9 38.7,43.16 C38.86,43.26 38.98,43.26 38.98,43.08 C38.94,42.58 38.92,42.06 38.92,42.06 C38.88,41.56 39.62,41.54 39.66,42.02 C39.66,42.02 39.68,42.54 39.72,43.04 C39.74,43.64 40,43.98 40.5,44.3 C41.14,44.7 41.72,45.16 42.24,45.74 C42.5,46 42.62,46.36 42.86,46.06 C43.18,45.68 43.16,45.28 43.14,44.76 C43.1,44.18 42.92,43.88 42.4,43.68 C41.94,43.5 41.5,43.32 41.5,43.32 C41.04,43.14 41.32,42.46 41.78,42.66 C41.78,42.66 42.24,42.84 42.68,43.02 C43,43.14 43.22,43.06 43.28,42.72 C43.38,42.24 43.46,41.78 43.46,41.78 C43.56,41.3 44.26,41.44 44.18,41.9 C44.18,41.9 44.1,42.34 44,42.84 C43.88,43.48 43.84,44.1 43.9,44.72 C43.94,45.42 43.92,45.98 43.46,46.52 C43.14,46.9 43.28,47.26 43.42,47.72 C43.42,47.72 43.6,48.32 43.86,48.84 C44.22,49.52 44.74,50.06 45.2,50.44 C45.4,50.62 45.3,50.54 45.86,50.98 C46.54,51.5 47.26,52 47.96,52.48 C48.5,52.84 48.9,52.86 49.26,52.3 C49.26,52.3 49.42,52.06 49.64,51.74"></path>
                    <path d="M60.84,64.52 C58.66,65.64 56.02,66.16 52.4,65.08"></path>
                    <path d="M51.08,45.86 C51.08,46.04 51.08,46.24 51.08,46.44 C51.1,47.22 51.28,47.92 51.58,48.64 C51.7,48.94 51.8,49.22 52.02,48.98 C52.16,48.8 52.32,48.62 52.5,48.44"></path>
                    <path d="M46.46,41.16 C46.38,41.08 46.34,41.02 46.34,41.02 C46.02,40.66 45.48,41.12 45.8,41.5 C45.8,41.5 46.2,41.94 46.52,42.32 C46.6,42.4 46.66,42.48 46.72,42.54"></path>
                    <path d="M46.06,38.22 C46.66,39 47.24,39.76 47.78,40.56"></path>
                    <path d="M46.46,41.16 C46.6,41.32 46.84,41.6 47.06,41.84 C47.18,41.98 47.32,42.02 47.36,41.84 C47.46,41.36 47.56,40.86 47.56,40.86 C47.58,40.72 47.68,40.62 47.8,40.58"></path>
                    <path d="M48.22,41.22 C48.18,41.4 48.12,41.7 48.06,41.98 C47.94,42.56 48.08,42.94 48.52,43.32 C49.02,43.76 49.52,44.18 50.08,44.52 C50.2,44.58 50.28,44.58 50.3,44.5"></path>
                    <path d="M51.08,45.86 C51.56,46.7 52.02,47.56 52.48,48.46"></path>
                    <path d="M48.22,41.22 C48.94,42.3 49.64,43.38 50.32,44.52"></path>
                    <path d="M48.22,41.22 C48.26,41.08 48.26,41 48.26,41 C48.32,40.68 48,40.5 47.78,40.58"></path>
                    <path d="M46.72,42.54 C47.14,43 47.58,43.44 48.04,43.86 C48.56,44.34 49.1,44.76 49.68,45.14 C50.2,45.46 50.36,45.86 50.36,46.46 C50.38,47.32 50.58,48.12 50.9,48.92 C51.14,49.56 51.12,50 50.66,50.52 C50.14,51.12 50.1,51.16 50.04,51.2 C49.86,51.4 49.68,51.62 49.56,51.8"></path>
                    <path d="M52.9,49.24 C53.2,48.86 53.52,48.48 53.86,48.14 C54.32,47.68 54.68,47.16 55,46.58 C55.34,45.92 55.54,45.24 55.64,44.52 C55.74,43.8 55.86,43.1 55.98,42.38 C56.06,41.9 56.16,41.3 56.16,41.3 C56.24,40.82 55.52,40.68 55.44,41.18 C55.44,41.18 55.34,41.74 55.26,42.22 C55.06,41.78 54.8,41.28 54.8,41.28 C54.58,40.84 53.94,41.16 54.14,41.6 C54.14,41.6 54.4,42.14 54.6,42.58 C54.88,43.2 55,43.76 54.88,44.42 C54.78,45.06 54.62,45.66 54.3,46.26 C54.2,46.44 54.1,46.3 54.04,46.12 C53.72,45.44 53.38,44.78 52.96,44.14 C52.68,43.74 52.36,43.22 52.36,43.22 C52.08,42.82 51.48,43.2 51.74,43.62 C51.74,43.62 52.06,44.12 52.34,44.54 C52.74,45.14 53.08,45.78 53.38,46.42 C53.6,46.9 53.7,47.24 53.3,47.64 C53.02,47.94 52.74,48.2 52.46,48.48"></path>
                    <path d="M51.08,45.86 C51.08,45.34 51.08,44.8 51.1,44.3 C51.12,43.6 51.2,42.9 51.3,42.22 C51.38,41.6 51.56,41.02 51.86,40.46 C52.08,40.02 52.3,39.62 52.3,39.62 C52.54,39.2 51.88,38.84 51.66,39.28 C51.66,39.28 51.44,39.68 51.22,40.12 C51.16,40.22 51.18,40.06 51.14,39.94 C51,39.46 50.84,38.86 50.84,38.86 C50.7,38.38 50,38.58 50.14,39.06 C50.14,39.06 50.32,39.66 50.46,40.12 C50.66,40.78 50.72,41.4 50.6,42.08 C50.5,42.8 50.42,43.52 50.4,44.26 C50.4,44.38 50.36,44.46 50.34,44.5"></path>
                    <path d="M68.36,34.04 C67.98,34.5 67.6,34.96 67.26,35.44"></path>
                    <path d="M68.36,34.04 C68.4,34.04 68.46,34.02 68.5,34.02 C69.26,33.9 69.74,33.52 70.22,32.92 C70.64,32.38 71.14,31.9 71.68,31.46 C72.06,31.16 72.5,30.8 72.5,30.8 C72.78,30.58 72.62,30.22 72.36,30.16"></path>
                    <path d="M85.7,75.72 C84.48,75.28 83.28,74.8 82.08,74.28"></path>
                    <path d="M68.36,34.04 C67.96,34.14 67.68,34.36 67.4,34.66"></path>
                    <path d="M68.44,28.72 C68.28,29.9 68.1,31.12 67.88,32.32"></path>
                    <path d="M58.24,91.94 C58,91.88 57.84,91.54 58.1,91.32 C58.1,91.32 58.16,91.26 58.28,91.18"></path>
                    <path d="M67.24,35.46 C66.1,36.98 65.1,38.64 64.28,40.44 C63.06,43.06 62.24,44.68 61.5,46.52"></path>
                    <path d="M31.6,70.98 C32.52,70.64 33.44,70.34 34.36,70.06"></path>
                    <path d="M68.44,28.72 C68.5,28.82 68.56,28.92 68.64,29.06 C68.94,29.56 68.86,29.98 68.62,30.52 C68.38,31.12 68.12,31.72 67.88,32.3"></path>
                    <path d="M59.06,82.8 C58.92,83.8 58.78,84.76 58.66,85.72"></path>
                    <path d="M29.46,46.76 C30.56,47.28 31.64,47.84 32.72,48.4"></path>
                    <path d="M67.42,34.66 C67.38,34.72 67.32,34.78 67.26,34.86 C66.74,35.52 66.16,35.94 65.38,36.22 C64.64,36.48 64.22,37 63.74,37.64 C63.74,37.64 63.04,38.52 62.22,39.14 C62.14,39.2 62.06,39.26 60.96,39.78 C60.02,40.24 60.22,40.88 60.62,41.86 C61.24,43.4 61.56,44.86 61.52,46.52"></path>
                    <path d="M29.46,46.76 C29.58,46.74 29.7,46.72 29.84,46.68 C30.42,46.56 30.78,46.78 31.22,47.14 C31.72,47.56 32.22,47.98 32.7,48.4"></path>
                    <path d="M67.42,34.66 C67.36,34.92 67.32,35.16 67.24,35.44"></path>
                    <path d="M76.68,97.72 C76.1,96.64 75.54,95.56 75.02,94.48"></path>
                    <path d="M72.68,98.86 C72.44,98.98 72.1,98.76 72.18,98.42 C72.18,98.42 72.34,97.88 72.46,97.4 C72.64,96.72 72.74,96.06 72.78,95.36 C72.82,94.58 72.96,94 73.52,93.46 C73.56,93.42 73.58,93.4 73.62,93.34"></path>
                    <path d="M72.24,57.96 C70.72,58.18 69.42,58.5 68.3,58.9"></path>
                    <path d="M76.68,97.72 C76.58,97.66 76.44,97.6 76.3,97.56 C75.76,97.32 75.58,96.94 75.46,96.36 C75.32,95.74 75.16,95.1 75,94.46"></path>
                    <path d="M39.46,84.64 C39.26,84.82 39.06,84.98 38.88,85.18"></path>
                    <path d="M74.02,92.3 C74,92.7 73.88,93.04 73.62,93.36"></path>
                    <path d="M34.56,89.38 C35.4,88.5 36.26,87.64 37.14,86.8"></path>
                    <path d="M74.02,92.3 C74.04,92.22 74.04,92.14 74.04,92.06 C74.06,91.22 74.3,90.54 74.78,89.86 C75.22,89.22 75.24,88.54 75.28,87.76 C75.28,87.76 75.32,86.64 75.64,85.66 C75.66,85.58 75.7,85.48 76.28,84.4 C76.78,83.48 76.2,83.08 75.34,82.52 C73.94,81.64 72.8,80.62 71.88,79.28"></path>
                    <path d="M73.7,91.58 C73.72,89.66 73.54,87.74 73.2,85.82 C72.64,82.98 72.36,81.18 71.86,79.26"></path>
                    <path d="M74.02,92.3 C73.9,92.06 73.8,91.82 73.7,91.58"></path>
                    <path d="M73.62,93.36 C73.66,92.76 73.68,92.16 73.7,91.58"></path>
                    <path d="M61.36,64.62 C61.38,64.6 61.4,64.58 61.4,64.56"></path>
                    <path d="M61.36,64.62 C61.38,64.62 61.4,64.62 61.42,64.64"></path>
                    <path d="M61.18,64.4 C61.24,64.4 61.28,64.44 61.34,64.46"></path>
                    <path d="M61.58,64.58 C61.52,64.62 61.48,64.62 61.42,64.62"></path>
                    <path d="M61.3,64.66 C61.32,64.72 61.34,64.76 61.4,64.78"></path>
                    <path d="M61.3,64.6 C61.32,64.62 61.34,64.62 61.36,64.62"></path>
                    <path d="M69.28,61 C70.24,60.58 71.44,60.26 72.82,60.08 C74.16,59.9 75.28,59.96 75.86,61.36 C76.34,62.5 76.84,63.6 77.02,64.82 C77.12,65.62 77.28,66.42 77.32,67.24"></path>
                    <path d="M61.4,64.78 C61.46,64.82 61.54,64.86 61.64,64.88 C61.66,64.88 61.68,64.88 61.74,64.9"></path>
                    <path d="M61.18,64.4 C61.1,64.38 61.02,64.42 60.9,64.46 C60.88,64.48 60.84,64.48 60.82,64.5"></path>
                    <path d="M90.86,61.16 C89.04,60.56 87.18,60.1 85.22,59.88 C82.36,59.52 80.56,59.26 78.58,59.12"></path>
                    <path d="M61.38,64.5 C61.36,64.5 61.34,64.5 61.3,64.52"></path>
                    <path d="M61.44,64.52 C61.44,64.54 61.42,64.56 61.42,64.58"></path>
                    <path d="M61.14,65.02 C61.14,64.98 61.14,64.96 61.12,64.92 C61.1,64.8 61.1,64.72 61.14,64.64"></path>
                    <path d="M89.2,76.86 C88.26,76.6 87.34,76.3 86.42,76"></path>
                    <path d="M61.3,64.6 C61.3,64.62 61.3,64.64 61.3,64.66"></path>
                    <path d="M59.2,81.94 C59.3,81.36 59.4,80.76 59.5,80.16"></path>
                    <path d="M61.38,64.5 C61.36,64.48 61.36,64.48 61.34,64.44"></path>
                    <path d="M72.36,30.14 C72.26,30.12 72.16,30.14 72.04,30.22 C72.04,30.22 71.6,30.58 71.22,30.88 C71.1,30.96 71.02,30.92 71.02,30.78 C71.02,30.28 71.04,29.74 71.04,29.74 C71.04,29.24 70.32,29.22 70.32,29.72 C70.32,29.72 70.32,30.28 70.3,30.76 C70.28,31.42 70.08,31.92 69.68,32.46 C69.32,32.92 69,33.22 68.42,33.3 C68.18,33.34 68.36,33.12 68.44,32.9 C68.74,32.22 69.02,31.52 69.3,30.82 C69.58,30.12 69.84,29.42 70.1,28.7 C70.26,28.24 70.46,27.64 70.46,27.64 C70.62,27.18 69.94,26.94 69.78,27.4 C69.78,27.4 69.58,28 69.42,28.46 C69.36,28.62 69.38,28.88 69.28,28.72 C69.04,28.3 68.86,27.98 68.86,27.98 C68.8,27.86 68.68,27.78 68.58,27.8"></path>
                    <path d="M68.84,50.22 C68.04,50.02 67.24,49.9 66.44,49.76 C65.22,49.54 64.02,49.7 62.8,49.8 C61.26,49.92 60.88,50.96 60.62,52.28 C60.38,53.66 60.32,54.88 60.42,55.94"></path>
                    <path d="M61.5,46.48 C61.5,46.6 61.48,46.7 61.48,46.82 C61.42,47.88 61.64,48.48 62.68,48.4 C64.02,48.3 65.32,48.3 66.64,48.54 C67.36,48.66 67.74,48.52 67.94,47.82 C68.16,46.96 68.42,46.14 68.72,45.3 C68.92,44.74 69,44.24 68.86,43.66 C68.7,43.12 68.54,42.6 68.32,42.08 C68.12,41.58 67.9,41.08 67.66,40.58 C67.36,39.94 67.28,39.3 67.34,38.6 C67.38,37.82 67.56,37.1 67.88,36.38 C68.06,35.92 68.32,35.36 68.32,35.36 C68.5,34.9 69.18,35.18 68.98,35.66 C68.98,35.66 68.72,36.24 68.54,36.68 C68.26,37.32 68.1,37.96 68.08,38.64 C68.04,39.22 68.1,39.74 68.36,40.28 C68.52,40.62 68.76,40.5 69.04,40.28 C69.6,39.9 69.98,39.44 70.26,38.82 C70.56,38.2 70.74,37.58 70.82,36.86 C70.88,36.36 70.92,35.82 70.92,35.82 C70.98,35.32 71.7,35.4 71.64,35.9 C71.64,35.9 71.58,36.46 71.54,36.94 C71.52,37.02 71.6,37.02 71.66,36.96 C72.04,36.64 72.48,36.26 72.48,36.26 C72.86,35.94 73.34,36.48 72.94,36.82 C72.94,36.82 72.48,37.2 72.12,37.52 C71.58,37.98 71.2,38.48 70.9,39.12 C70.56,39.86 70.1,40.4 69.44,40.88 C69.04,41.16 68.84,41.38 69,41.84 C69,41.84 69.2,42.32 69.34,42.78 C69.4,42.96 69.44,43.12 69.5,43.24 C69.56,43.42 69.66,43.38 69.76,43.24 C70.1,42.74 70.68,42.1 71.36,41.66 C71.94,41.26 72.36,40.8 72.7,40.2 C73.04,39.6 73.3,38.98 73.44,38.3 C73.6,37.6 73.78,36.9 73.98,36.2 C74.1,35.72 74.28,35.16 74.28,35.16 C74.4,34.68 75.12,34.88 74.98,35.36 C74.98,35.36 74.82,35.92 74.68,36.4 C74.62,36.56 74.68,36.7 74.86,36.64 C75.32,36.46 75.8,36.28 75.8,36.28 C76.26,36.1 76.52,36.78 76.06,36.96 C76.06,36.96 75.58,37.14 75.12,37.32 C74.54,37.54 74.3,37.86 74.18,38.46 C74,39.2 73.74,39.9 73.34,40.56 C73.16,40.88 72.86,41.12 73.22,41.26 C73.68,41.44 74.06,41.3 74.52,41.12 C75.06,40.9 75.3,40.64 75.32,40.08 C75.36,39.58 75.4,39.1 75.4,39.1 C75.44,38.6 76.16,38.66 76.12,39.16 C76.12,39.16 76.08,39.64 76.04,40.14 C76.02,40.5 76.16,40.66 76.52,40.62 C77.02,40.56 77.46,40.5 77.46,40.5 C77.96,40.44 78.04,41.16 77.56,41.22 C77.56,41.22 77.1,41.28 76.62,41.34 C75.98,41.42 75.4,41.58 74.78,41.82 C74.12,42.08 73.6,42.22 72.94,41.96 C72.48,41.78 72.18,42.02 71.78,42.3 C71.78,42.3 71.26,42.66 70.84,43.06 C70.3,43.6 69.96,44.28 69.72,44.84 C69.62,45.08 69.64,44.98 69.42,45.64 C69.12,46.46 68.88,47.28 68.66,48.1 C68.48,48.74 68.58,49.1 69.22,49.26 C69.22,49.26 69.48,49.32 69.86,49.46"></path>
                    <path d="M72.36,30.14 C75.38,27.68 78.88,25.74 82.74,24.28 C91.68,20.88 89.16,28 85.52,35.26 C84.3,37.72 83.02,39.88 81.66,41.88"></path>
                    <path d="M77.78,43.84 C77.48,44.38 77.18,44.94 76.94,45.5 C76.66,46.14 76.42,46.78 76.24,47.46 C76.08,48.04 75.76,48.32 75.2,48.52 C74.4,48.8 73.7,49.24 73.02,49.78 C72.48,50.2 72.06,50.32 71.44,50.04 C70.72,49.72 70.66,49.7 70.62,49.66 C70.38,49.56 70.1,49.46 69.88,49.38"></path>
                    <path d="M67.86,32.34 C67.82,32.44 67.78,32.52 67.76,32.62 C67.48,33.28 67.12,33.86 66.68,34.42 C66.26,34.96 65.78,35.32 65.12,35.54 C64.78,35.66 64.7,35.4 64.74,35.04 C64.82,34.22 64.88,33.44 65,32.62 C65.12,31.88 65.32,31.22 65.68,30.56 C66.04,29.9 66.38,29.22 66.68,28.54 C66.98,27.88 67.32,27.24 67.7,26.62 C67.96,26.2 68.26,25.68 68.26,25.68 C68.52,25.26 67.9,24.88 67.64,25.3 C67.64,25.3 67.32,25.82 67.08,26.24 C66.98,26.42 66.86,26.56 66.76,26.36 C66.56,25.9 66.38,25.5 66.38,25.5 C66.16,25.06 65.52,25.34 65.72,25.8 C65.72,25.8 65.9,26.2 66.1,26.66 C66.36,27.22 66.28,27.66 66.02,28.22 C65.7,28.9 65.38,29.56 65.04,30.22 C64.92,30.46 64.8,30.66 64.66,30.44 C64.34,29.92 64.22,29.4 64.2,28.78 C64.18,28.08 64.28,27.38 64.48,26.7 C64.6,26.22 64.78,25.62 64.78,25.62 C64.9,25.14 64.22,24.96 64.08,25.42 C64.08,25.42 63.9,26.02 63.78,26.5 C63.7,26.78 63.7,27.08 63.5,26.9 C63.12,26.56 62.94,26.38 62.94,26.38 C62.56,26.04 62.1,26.58 62.44,26.92 C62.44,26.92 62.64,27.1 63,27.44 C63.4,27.82 63.46,28.24 63.48,28.8 C63.5,29.56 63.62,30.2 64.04,30.84 C64.38,31.38 64.38,31.88 64.26,32.5 C64.12,33.32 63.96,34.14 63.88,34.94 C63.8,35.76 63.48,36.38 62.96,37.02 C62.3,37.86 61.42,38.3 60.48,38.76 C59.56,39.22 59.06,38.88 58.46,38.04 C57.76,37.04 57.08,36.02 56.56,34.92 C56.16,34.02 55.9,33.44 56.64,32.8 C57.36,32.18 57.98,31.5 58.56,30.74 C59,30.14 59.38,29.48 59.7,28.78 C60,28.12 60.04,28.06 60.08,28 C60.38,27.42 60.7,26.88 60.7,26.88 C61.04,26.3 61.4,25.76 61.86,25.3 C62.2,24.94 62.56,24.58 62.56,24.58 C62.9,24.22 62.38,23.72 62.02,24.08 C62.02,24.08 61.68,24.42 61.34,24.78 C61.34,24.76 61.38,24.74 61.38,24.72 C61.44,24.22 61.5,23.6 61.5,23.6 C61.56,23.1 60.82,23.02 60.78,23.52 C60.78,23.52 60.72,24.14 60.66,24.64 C60.58,25.34 60.4,25.94 60.04,26.54 C59.68,27.18 59.34,27.84 59.04,28.5 C59.02,28.52 59.02,28.52 59.02,28.48 C58.86,27.8 58.9,27.16 59.08,26.5 C59.2,26.02 59.4,25.44 59.4,25.44 C59.52,24.96 58.84,24.78 58.7,25.24 C58.7,25.24 58.52,25.84 58.38,26.3 C58.16,27.08 58.12,27.82 58.32,28.64 C58.46,29.28 58.36,29.78 57.94,30.3 C57.4,31.02 56.74,31.6 56.68,31.64 C56.08,32.18 56.08,32.18 56.08,32.18 C56,32.26 56.06,32.12 56.06,32.02 C56.26,30.86 56.24,29.74 56.08,28.56 C55.96,27.7 55.88,27.08 56.54,26.54 C57.16,26.02 57.22,25.96 57.28,25.9 C57.78,25.4 58.22,24.82 58.22,24.82 C58.62,24.3 59.02,23.8 59.46,23.32 C59.8,22.96 60.12,22.6 60.12,22.6 C60.46,22.24 59.94,21.74 59.58,22.1 C59.58,22.1 59.24,22.44 58.92,22.82 C58.74,23.02 58.58,22.92 58.5,22.68 C58.32,22.22 58.14,21.7 58.14,21.7 C57.96,21.24 57.28,21.5 57.46,21.96 C57.46,21.96 57.66,22.48 57.82,22.94 C58.02,23.5 58,23.9 57.64,24.38 C57.2,24.98 56.66,25.5 56.1,25.96 C55.9,26.12 55.84,25.9 55.84,25.62 C55.86,24.7 55.82,23.78 55.88,22.86 C55.92,22.04 56,21.26 56.24,20.48 C56.4,19.96 56.6,19.32 56.6,19.32 C56.76,18.8 56,18.58 55.84,19.1 C55.84,19.1 55.64,19.74 55.48,20.26 C55.42,20.48 55.26,20.54 55.14,20.38 C54.86,19.98 54.48,19.44 54.48,19.44 C54.2,19.04 53.6,19.44 53.88,19.86 C53.88,19.86 54.26,20.4 54.54,20.8 C54.98,21.44 55.02,22.06 54.98,22.86 C54.94,23.8 54.86,24.72 54.84,25.66 C54.84,26.7 54.84,27.72 54.98,28.76 C55.12,29.8 55,30.8 54.84,31.82 C54.6,33.18 54.7,34.36 55.28,35.62 C55.84,36.82 56.4,37.98 57.14,39.06 C57.9,40.14 58.4,41.36 58.9,42.6 C59.44,43.96 59.48,45.3 59.4,46.76 C59.3,48.42 58.82,50.24 58.54,51.82 C58.52,51.94 58.48,52.08 58.48,52.22"></path>
                    <path d="M68.44,28.72 C68.3,28.48 68.22,28.32 68.22,28.32 C68.04,28.02 68.32,27.76 68.56,27.78"></path>
                    <path d="M72.04,53.04 C68.96,53.72 65.3,56.4 63.62,58.72 C62.28,60.56 60.7,59.12 60.44,55.94"></path>
                    <path d="M46.06,38.22 C44.56,36.32 42.9,34.44 40.94,32.52 C35.16,26.82 29.16,22.22 29.64,31.78 C29.84,35.9 30.62,39.84 32.02,43.46"></path>
                    <path d="M73.32,51.78 C72.9,52.18 72.48,52.62 72.04,53.04"></path>
                    <path d="M73.32,51.78 C73.2,51.74 73.1,51.7 73,51.66 C72.36,51.42 71.7,51.2 71.06,50.92 C70.38,50.64 69.68,50.46 68.96,50.26 C68.94,50.26 68.88,50.24 68.86,50.24"></path>
                    <path d="M61.24,64.06 C59.52,62.36 58.2,59.98 58.12,56.2"></path>
                    <path d="M72.24,57.96 C72.38,57.76 72.6,57.54 72.9,57.26 C75.58,55.06 76.52,53.02 73.66,52.88 C73.14,52.86 72.58,52.92 72.02,53.04"></path>
                    <path d="M46.06,38.22 C45.92,36.88 45.86,35.44 45.82,33.9 C45.6,21.62 50.26,11.8 56.38,5.36 C62.8,-1.38 66.8,0.6 68.22,8.66 C69.26,14.56 69.36,21.14 68.56,27.76"></path>
                    <path d="M32,43.46 C31.94,43.54 31.92,43.66 31.98,43.78 C31.98,43.78 32.18,44.3 32.34,44.76 C32.4,44.9 32.32,44.96 32.18,44.92 C31.72,44.76 31.18,44.56 31.18,44.56 C30.72,44.4 30.48,45.08 30.94,45.24 C30.94,45.24 31.46,45.42 31.94,45.6 C32.56,45.82 33,46.18 33.36,46.74 C33.68,47.22 33.86,47.62 33.78,48.2 C33.74,48.44 33.6,48.2 33.4,48.04 C32.82,47.54 32.26,47.06 31.7,46.58 C31.12,46.1 30.54,45.62 29.94,45.18 C29.56,44.88 29.04,44.5 29.04,44.5 C28.66,44.2 28.2,44.78 28.6,45.08 C28.6,45.08 29.1,45.46 29.5,45.76 C29.64,45.88 29.88,45.94 29.7,45.96 C29.22,46.06 28.86,46.14 28.86,46.14 C28.72,46.18 28.62,46.26 28.58,46.36"></path>
                    <path d="M35.1,69.82 C35.28,69.92 35.54,70.06 35.78,70.22 C36.3,70.52 36.68,70.5 37.2,70.18 C37.76,69.86 38.32,69.48 38.82,69.08 C38.92,69 38.92,68.92 38.88,68.86"></path>
                    <path d="M45.56,71.84 C45.42,71.64 45.26,71.42 45.12,71.18 C45.08,71.14 45.06,71.08 44.66,70.4 C44.32,69.8 43.92,69.64 43.22,69.66 C42.36,69.7 41.56,69.66 40.74,69.4 C40.16,69.24 39.74,69.26 39.28,69.64 C38.74,70.08 38.16,70.46 37.56,70.82 C37.02,71.12 36.46,71.42 35.9,71.66"></path>
                    <path d="M34.5,71.5 C34.7,71.42 35.02,71.28 35.32,71.14 C35.48,71.06 35.56,70.94 35.42,70.86 C34.98,70.62 34.54,70.36 34.54,70.36 C34.4,70.28 34.34,70.18 34.36,70.06"></path>
                    <path d="M35.1,69.82 C36.34,69.46 37.6,69.14 38.88,68.84"></path>
                    <path d="M34.5,71.5 C34.4,71.54 34.34,71.58 34.34,71.58 C33.88,71.78 34.18,72.44 34.64,72.26 C34.64,72.26 35.18,72.02 35.64,71.82 C35.74,71.78 35.84,71.72 35.92,71.68"></path>
                    <path d="M32.72,48.4 C32.78,48.46 32.88,48.52 32.94,48.58 C33.48,49.06 33.94,49.56 34.34,50.16 C34.74,50.74 34.9,51.3 34.92,52 C34.92,52.36 34.66,52.36 34.34,52.2 C33.6,51.86 32.86,51.56 32.14,51.2 C31.48,50.86 30.92,50.44 30.4,49.92 C29.88,49.38 29.34,48.86 28.8,48.34 C28.26,47.84 27.76,47.32 27.28,46.78 C26.96,46.4 26.56,45.94 26.56,45.94 C26.24,45.56 25.68,46.04 26.02,46.42 C26.02,46.42 26.42,46.88 26.74,47.26 C26.88,47.42 26.98,47.58 26.76,47.62 C26.26,47.68 25.82,47.74 25.82,47.74 C25.32,47.8 25.4,48.52 25.9,48.46 C25.9,48.46 26.34,48.4 26.84,48.34 C27.46,48.26 27.86,48.46 28.32,48.9 C28.86,49.38 29.4,49.92 29.9,50.44 C30.08,50.64 30.22,50.8 29.98,50.88 C29.38,51.04 28.84,50.98 28.26,50.8 C27.58,50.6 26.98,50.3 26.38,49.9 C25.96,49.62 25.46,49.28 25.46,49.28 C25.04,49 24.64,49.6 25.04,49.88 C25.04,49.88 25.56,50.24 25.96,50.5 C26.2,50.66 26.48,50.74 26.24,50.88 C25.82,51.12 25.56,51.26 25.56,51.26 C25.14,51.5 25.48,52.14 25.9,51.9 C25.9,51.9 26.14,51.76 26.58,51.52 C27.06,51.24 27.48,51.32 28.02,51.5 C28.74,51.74 29.4,51.78 30.14,51.6 C30.76,51.44 31.22,51.6 31.8,51.9 C32.52,52.28 33.24,52.68 34,53.02 C34.74,53.34 35.24,53.84 35.7,54.54 C36.3,55.42 36.44,56.4 36.58,57.46 C36.72,58.48 36.24,58.84 35.26,59.14 C34.08,59.48 32.92,59.84 31.72,59.98 C30.74,60.1 30.12,60.14 29.72,59.26 C29.34,58.38 28.9,57.58 28.34,56.8 C27.9,56.18 27.4,55.64 26.84,55.1 C26.32,54.62 26.26,54.56 26.22,54.5 C25.76,54.06 25.34,53.56 25.34,53.56 C24.88,53.08 24.5,52.54 24.18,51.96 C23.96,51.52 23.72,51.06 23.72,51.06 C23.5,50.62 22.84,50.96 23.08,51.4 C23.08,51.4 23.3,51.84 23.54,52.26 C23.52,52.24 23.5,52.22 23.48,52.2 C23.02,51.98 22.46,51.74 22.46,51.74 C22,51.52 21.7,52.2 22.16,52.4 C22.16,52.4 22.74,52.66 23.18,52.86 C23.82,53.14 24.34,53.52 24.82,54.02 C25.32,54.56 25.84,55.08 26.38,55.58 C26.4,55.6 26.38,55.6 26.36,55.6 C25.66,55.54 25.08,55.32 24.5,54.94 C24.08,54.66 23.58,54.32 23.58,54.32 C23.16,54.04 22.76,54.64 23.16,54.92 C23.16,54.92 23.66,55.26 24.08,55.54 C24.76,56 25.46,56.26 26.26,56.34 C26.92,56.4 27.34,56.66 27.74,57.2 C28.26,57.92 28.6,58.74 28.62,58.82 C28.94,59.56 28.94,59.56 28.94,59.56 C28.98,59.66 28.86,59.58 28.78,59.5 C27.74,58.96 26.66,58.62 25.52,58.42 C24.66,58.26 24.04,58.16 23.72,57.36 C23.42,56.6 23.38,56.52 23.34,56.44 C23.02,55.82 22.58,55.22 22.58,55.22 C22.2,54.7 21.86,54.14 21.54,53.58 C21.3,53.16 21.06,52.72 21.06,52.72 C20.82,52.3 20.18,52.64 20.42,53.06 C20.42,53.06 20.66,53.48 20.9,53.92 C21.02,54.16 20.9,54.26 20.62,54.28 C20.12,54.32 19.58,54.32 19.58,54.32 C19.08,54.36 19.12,55.06 19.62,55.06 C19.62,55.06 20.18,55.02 20.66,55.02 C21.26,55 21.64,55.16 21.98,55.64 C22.42,56.26 22.74,56.9 23.02,57.62 C23.1,57.86 22.88,57.84 22.64,57.76 C21.76,57.46 20.88,57.22 20.02,56.88 C19.26,56.6 18.52,56.28 17.86,55.82 C17.42,55.52 16.88,55.14 16.88,55.14 C16.44,54.84 15.98,55.48 16.42,55.8 C16.42,55.8 16.98,56.18 17.4,56.48 C17.58,56.6 17.62,56.78 17.4,56.84 C16.92,56.98 16.3,57.18 16.3,57.18 C15.82,57.32 16.04,58.02 16.52,57.86 C16.52,57.86 17.16,57.66 17.62,57.52 C18.36,57.3 18.98,57.44 19.7,57.72 C20.58,58.06 21.42,58.42 22.32,58.72 C23.3,59.06 24.3,59.36 25.3,59.54 C26.34,59.72 27.24,60.14 28.16,60.64 C29.38,61.3 30.52,61.56 31.9,61.4 C33.2,61.24 34.5,61.06 35.76,60.7 C37.04,60.32 38.34,60.22 39.68,60.12 C41.14,60.02 42.42,60.4 43.8,60.92 C45.36,61.52 46.92,62.54 48.34,63.3 C48.46,63.36 48.58,63.42 48.68,63.48"></path>
                    <path d="M35.1,69.82 C34.98,69.76 34.92,69.72 34.92,69.72 C34.62,69.54 34.36,69.8 34.36,70.06"></path>
                    <path d="M44.16,67.88 C43.88,67.48 43.62,67.06 43.42,66.64 C43.12,66.06 42.74,65.56 42.28,65.08 C41.76,64.54 41.18,64.14 40.52,63.82 C39.88,63.5 39.24,63.18 38.58,62.84 C38.14,62.62 37.62,62.34 37.62,62.34 C37.18,62.12 36.84,62.76 37.28,62.98 C37.28,62.98 37.78,63.24 38.22,63.48 C37.74,63.56 37.18,63.62 37.18,63.62 C36.7,63.7 36.8,64.4 37.28,64.34 C37.28,64.34 37.86,64.26 38.36,64.2 C39.02,64.1 39.6,64.18 40.2,64.48 C40.8,64.76 41.3,65.12 41.78,65.58 C41.92,65.72 41.74,65.78 41.56,65.8 C40.8,65.88 40.06,66.04 39.34,66.22 C38.86,66.34 38.3,66.5 38.3,66.5 C37.82,66.62 38.02,67.32 38.48,67.2 C38.48,67.2 39.04,67.06 39.52,66.92 C40.22,66.74 40.92,66.6 41.62,66.52 C42.16,66.46 42.5,66.48 42.74,66.96 C42.92,67.32 43.1,67.68 43.3,68.02"></path>
                    <path d="M40.4,68.54 C39.9,68.38 39.42,68.22 38.92,68.04 C38.28,67.8 37.62,67.52 36.98,67.22 C36.42,66.94 35.92,66.6 35.48,66.14 C35.14,65.78 34.82,65.46 34.82,65.46 C34.48,65.1 33.96,65.6 34.3,65.96 C34.3,65.96 34.62,66.28 34.96,66.64 C35.04,66.72 34.9,66.66 34.76,66.68 C34.28,66.66 33.64,66.64 33.64,66.64 C33.16,66.62 33.12,67.36 33.62,67.36 C33.62,67.36 34.24,67.38 34.74,67.4 C35.42,67.42 36.04,67.56 36.66,67.88 C37.3,68.22 37.98,68.48 38.66,68.74 C38.76,68.78 38.84,68.84 38.88,68.88"></path>
                    <path d="M38.88,85.18 C38.96,85.16 39.04,85.14 39.12,85.12 C39.92,84.88 40.64,84.9 41.44,85.12 C42.18,85.34 42.84,85.14 43.58,84.94 C43.58,84.94 44.68,84.62 45.7,84.62 C45.78,84.62 45.88,84.62 47.1,84.84 C48.12,85.04 48.34,84.38 48.6,83.36 C49,81.76 49.62,80.36 50.62,79.06"></path>
                    <path d="M37.14,86.8 C36.58,87.14 36.02,87.46 35.48,87.82 C35,88.12 34.68,88.4 34.6,89 C34.58,89.14 34.56,89.28 34.56,89.4"></path>
                    <path d="M58.24,91.94 C58.34,91.98 58.46,91.96 58.58,91.84 C58.58,91.84 58.96,91.5 59.32,91.18 C59.46,91.06 59.54,91.16 59.56,91.34 C59.6,91.66 59.62,92.02 59.66,92.24"></path>
                    <path d="M58.24,91.94 C58.22,92.9 58.22,93.86 58.26,94.84"></path>
                    <path d="M33.92,90.08 C34.12,90.24 34.48,90.18 34.52,89.84 C34.52,89.84 34.54,89.66 34.56,89.4"></path>
                    <path d="M58.26,94.86 C57.58,96.04 56.8,97.24 55.92,98.5 C48.88,108.58 39.34,113.78 30.6,115.38 C21.46,117.06 19.38,113.12 22.96,105.76 C25.58,100.36 29.36,95 33.92,90.1"></path>
                    <path d="M56.42,76.3 C56.34,76.38 56.22,76.48 56.14,76.56 C54.98,77.68 53.54,78.86 52.48,80.14 C51.56,81.28 50.78,82.36 50.44,83.8 C50.12,85.08 49.8,86.36 49.78,87.7 C49.76,89.02 49.52,90.3 49.26,91.58 C48.98,92.94 48.4,93.94 47.38,94.9 C46.64,95.62 45.96,96.36 45.46,97.28 C44.98,98.18 44.38,99.04 43.74,99.86 C43.18,100.6 42.56,101.3 41.98,102.02 C41.5,102.62 41.14,103.16 41.14,103.94 C41.14,104.44 41.12,105.1 41.12,105.1 C41.12,105.6 40.38,105.58 40.4,105.08 C40.4,105.08 40.42,104.42 40.42,103.92 C40.42,103.7 40.24,103.68 40.08,103.82 C39.66,104.16 39.12,104.54 39.12,104.54 C38.7,104.88 38.2,104.22 38.64,103.92 C38.64,103.92 39.16,103.52 39.6,103.18 C40.26,102.68 40.78,102.1 41.28,101.46 C41.86,100.74 42.38,99.98 42.94,99.24 C43.1,99.04 43.18,98.82 42.92,98.82 C42.18,98.86 41.44,98.96 40.74,99.18 C40.16,99.36 39.9,99.66 39.74,100.24 C39.62,100.72 39.46,101.26 39.46,101.26 C39.34,101.74 38.62,101.54 38.76,101.08 C38.76,101.08 38.92,100.54 39.04,100.06 C39.1,99.8 39.04,99.64 38.78,99.7 C38.28,99.8 37.82,99.88 37.82,99.88 C37.32,99.98 37.2,99.26 37.68,99.16 C37.68,99.16 38.16,99.08 38.64,98.98 C39.28,98.86 39.9,98.7 40.54,98.5 C40.54,98.5 41.24,98.28 41.94,98.16 C42.02,98.14 42.1,98.12 42.92,98.08 C43.78,98.02 44.08,97.46 44.48,96.7 C45.02,95.66 45.66,94.72 46.52,93.92 C46.6,93.84 46.72,93.76 46.6,93.78 C46.6,93.78 46.6,93.78 45.8,93.86 C45.72,93.88 44.84,93.94 43.98,94.22 C43.34,94.42 42.98,94.74 42.7,95.36 C42.36,96.12 41.92,96.7 41.28,97.2 C40.9,97.5 40.4,97.9 40.4,97.9 C40.02,98.2 39.56,97.64 39.94,97.32 C39.94,97.32 40.42,96.94 40.82,96.62 C41.36,96.18 41.74,95.7 42.02,95.06 C42.04,95.04 42.02,95.04 42,95.04 C41.36,95.4 40.7,95.74 40.02,96.04 C39.38,96.32 38.86,96.72 38.4,97.22 C38.06,97.6 37.64,98.04 37.64,98.04 C37.3,98.42 36.78,97.92 37.1,97.54 C37.1,97.54 37.52,97.08 37.86,96.72 C37.88,96.7 37.9,96.68 37.94,96.66 C37.46,96.74 36.98,96.82 36.98,96.82 C36.48,96.92 36.36,96.2 36.84,96.1 C36.84,96.1 37.34,96 37.84,95.92 C38.48,95.8 39.12,95.6 39.72,95.32 C39.72,95.32 40.3,95.06 40.88,94.76 C40.94,94.74 41.02,94.68 41.64,94.34 C42.3,93.98 42.98,93.68 43.72,93.42 C44.64,93.14 45.54,92.96 46.48,92.88 C47.44,92.78 47.6,92.16 47.8,91.2 C48.04,90 48.06,88.78 48.1,87.56 C48.12,86.54 47.9,85.98 46.92,85.78 C45.86,85.6 44.9,85.42 43.88,85.74 C43.1,85.96 42.46,86.28 41.92,86.9 C41.36,87.52 40.76,88.08 40.16,88.66 C39.7,89.1 39.4,89.5 39.36,90.14 C39.32,90.9 39.06,91.5 38.62,92.14 C38.3,92.6 38.1,92.96 38.2,93.52 C38.3,94.02 38.36,94.28 38.36,94.28 C38.46,94.78 37.74,94.92 37.64,94.42 C37.64,94.42 37.6,94.14 37.48,93.66 C37.42,93.38 37.24,93.64 37.02,93.82 C36.64,94.12 36.14,94.52 36.14,94.52 C35.76,94.82 35.3,94.26 35.68,93.94 C35.68,93.94 36.18,93.56 36.56,93.24 C37.12,92.8 37.58,92.3 38,91.74 C38.34,91.24 38.58,90.74 38.6,90.12 C38.6,89.86 38.4,89.94 38.16,90.04 C37.5,90.36 36.84,90.7 36.18,91.08 C35.64,91.38 35.32,91.7 35.2,92.3 C35.1,92.78 35.02,93.2 35.02,93.2 C34.92,93.68 34.22,93.54 34.3,93.04 C34.3,93.04 34.4,92.6 34.5,92.12 C34.54,91.92 34.36,91.96 34.16,92.04 C33.7,92.24 33.14,92.48 33.14,92.48 C32.68,92.68 32.4,92 32.84,91.8 C32.84,91.8 33.4,91.56 33.86,91.36 C34.52,91.08 35.18,90.76 35.82,90.4 C36.48,90.04 37.16,89.68 37.82,89.34 C38.48,89.02 39.04,88.58 39.56,88.08 C40.14,87.52 40.66,86.9 41.2,86.3 C41.44,86.02 41.54,85.78 41.18,85.68 C40.52,85.48 39.92,85.48 39.26,85.66 C38.58,85.84 37.94,86.14 37.32,86.5 C37.24,86.56 37.16,86.6 37.06,86.66"></path>
                    <path d="M37.74,85.12 C37.7,85.1 37.64,85.08 37.62,85.06 C36.92,84.7 36.32,84.74 35.58,84.96 C34.92,85.14 34.24,85.26 33.54,85.28 C33.04,85.32 32.48,85.34 32.48,85.34 C32.12,85.36 32.04,85.74 32.2,85.94"></path>
                    <path d="M28.6,46.34 C22.54,43.54 16.26,41.6 10.32,40.76 C2.2,39.62 -0.9,42.82 3.52,51 C7.76,58.84 15.62,66.28 27.4,69.86 C28.88,70.3 30.26,70.66 31.6,70.96"></path>
                    <path d="M31.6,70.98 C29.34,71.82 27.04,72.82 24.6,74.08 C17.4,77.82 11.16,82.1 20.38,84.6 C24.36,85.68 28.36,86.16 32.22,85.94"></path>
                    <path d="M33.92,90.08 C33.84,90.02 33.78,89.9 33.8,89.76 C33.8,89.76 33.84,89.4 33.9,88.92 C33.92,88.74 33.8,88.96 33.64,89.04 C33.24,89.32 32.72,89.68 32.72,89.68 C32.32,89.96 31.9,89.36 32.3,89.08 C32.3,89.08 32.82,88.72 33.22,88.44 C33.84,88.02 34.46,87.6 35.1,87.2 C35.74,86.8 36.38,86.4 37.02,86.04 C37.22,85.92 37.5,85.84 37.3,85.74 C36.8,85.48 36.34,85.54 35.8,85.68 C35.16,85.86 34.7,86.16 34.28,86.68 C33.98,87.06 33.64,87.52 33.64,87.52 C33.34,87.9 32.76,87.46 33.06,87.08 C33.06,87.08 33.4,86.64 33.7,86.24 C33.8,86.12 33.74,86.02 33.6,86.04 C33.1,86.08 32.54,86.1 32.54,86.1 C32.4,86.12 32.32,86.04 32.24,85.98"></path>
                    <path d="M39.46,84.64 C38.9,84.82 38.32,84.96 37.74,85.12"></path>
                    <path d="M38.88,85.18 C38.48,85.28 38.14,85.28 37.74,85.14"></path>
                    <path d="M89.2,76.86 C91.52,77.52 93.98,78.06 96.68,78.48 C104.7,79.7 112.26,79.88 106.28,72.44 C103.68,69.22 100.76,66.48 97.5,64.38"></path>
                    <path d="M98.56,60.04 C105.12,58.74 111.34,56.62 116.64,53.8 C123.86,49.96 124.52,45.54 116.12,41.52 C108.1,37.7 97.32,36.28 85.7,40.3 C84.24,40.82 82.9,41.32 81.66,41.86"></path>
                    <path d="M89.2,76.86 C90.1,77.88 91,78.98 91.94,80.22 C99.34,90.04 101.34,100.7 100.16,109.54 C98.92,118.76 94.54,119.5 88.64,113.84 C84.32,109.66 80.38,104.42 77.14,98.58"></path>
                    <path d="M75.02,94.46 C75,94.36 74.98,94.28 74.96,94.16 C74.8,93.46 74.74,92.78 74.76,92.06 C74.78,91.38 74.98,90.8 75.36,90.22 C75.58,89.92 75.78,90.08 75.96,90.4 C76.38,91.1 76.8,91.78 77.16,92.52 C77.48,93.18 77.7,93.84 77.82,94.56 C77.92,95.3 78.06,96.06 78.2,96.78 C78.34,97.5 78.46,98.22 78.5,98.94 C78.54,99.44 78.58,100.04 78.58,100.04 C78.62,100.54 79.34,100.48 79.32,99.98 C79.32,99.98 79.26,99.38 79.24,98.88 C79.22,98.68 79.24,98.5 79.42,98.6 C79.86,98.84 80.24,99.08 80.24,99.08 C80.68,99.32 81.04,98.68 80.6,98.46 C80.6,98.46 80.2,98.24 79.78,97.98 C79.24,97.68 79.04,97.26 78.92,96.66 C78.76,95.94 78.64,95.2 78.54,94.48 C78.5,94.22 78.5,94 78.72,94.08 C79.28,94.3 79.7,94.66 80.08,95.16 C80.52,95.74 80.82,96.32 81.08,96.98 C81.24,97.44 81.48,98.04 81.48,98.04 C81.64,98.5 82.34,98.26 82.16,97.78 C82.16,97.78 81.94,97.18 81.76,96.72 C81.66,96.46 81.48,96.22 81.76,96.24 C82.26,96.3 82.54,96.32 82.54,96.32 C83.04,96.38 83.12,95.64 82.62,95.6 C82.62,95.6 82.34,95.56 81.84,95.52 C81.3,95.46 80.98,95.14 80.68,94.7 C80.22,94.08 79.74,93.66 79.02,93.38 C78.44,93.16 78.14,92.74 77.86,92.18 C77.5,91.44 77.14,90.7 76.72,89.98 C76.3,89.28 76.2,88.58 76.24,87.76 C76.26,86.68 76.72,85.82 77.22,84.88 C77.7,83.98 78.3,83.96 79.28,84.28 C80.44,84.7 81.58,85.08 82.66,85.68 C83.52,86.14 84.06,86.5 83.84,87.46 C83.62,88.38 83.52,89.32 83.5,90.26 C83.48,91.02 83.58,91.78 83.72,92.52 C83.86,93.22 83.86,93.3 83.88,93.38 C83.98,94.02 84.04,94.66 84.04,94.66 C84.1,95.32 84.12,95.96 84.04,96.62 C83.98,97.12 83.92,97.62 83.92,97.62 C83.86,98.12 84.58,98.2 84.64,97.72 C84.64,97.72 84.7,97.24 84.78,96.76 C84.78,96.78 84.78,96.82 84.8,96.84 C85.04,97.26 85.36,97.82 85.36,97.82 C85.6,98.24 86.22,97.88 85.98,97.46 C85.98,97.46 85.66,96.9 85.42,96.48 C85.06,95.88 84.86,95.26 84.8,94.58 C84.72,93.84 84.62,93.12 84.46,92.4 C84.44,92.38 84.48,92.38 84.48,92.38 C85,92.84 85.36,93.36 85.6,94.02 C85.76,94.48 85.98,95.06 85.98,95.06 C86.14,95.52 86.84,95.28 86.66,94.8 C86.66,94.8 86.46,94.22 86.28,93.76 C86,92.98 85.6,92.38 84.98,91.84 C84.48,91.4 84.28,90.94 84.28,90.28 C84.28,89.4 84.48,88.54 84.52,88.46 C84.7,87.66 84.7,87.66 84.7,87.66 C84.74,87.56 84.76,87.7 84.82,87.8 C85.34,88.84 86.02,89.76 86.84,90.6 C87.44,91.22 87.88,91.68 87.66,92.52 C87.46,93.32 87.44,93.38 87.42,93.48 C87.3,94.18 87.3,94.9 87.3,94.9 C87.3,95.56 87.26,96.2 87.16,96.84 C87.1,97.34 87.04,97.8 87.04,97.8 C86.98,98.3 87.7,98.38 87.76,97.9 C87.76,97.9 87.82,97.42 87.88,96.94 C87.9,96.68 88.08,96.66 88.32,96.8 C88.72,97.06 89.18,97.38 89.18,97.38 C89.58,97.64 90,97.06 89.58,96.76 C89.58,96.76 89.12,96.44 88.72,96.18 C88.22,95.84 88.02,95.5 88.02,94.9 C88.02,94.14 88.16,93.42 88.36,92.7 C88.42,92.46 88.62,92.6 88.76,92.8 C89.3,93.56 89.88,94.28 90.36,95.06 C90.82,95.74 91.22,96.42 91.48,97.2 C91.66,97.72 91.86,98.34 91.86,98.34 C92.04,98.86 92.8,98.6 92.62,98.08 C92.62,98.08 92.4,97.44 92.24,96.94 C92.18,96.72 92.24,96.58 92.44,96.64 C92.9,96.8 93.54,97.02 93.54,97.02 C94,97.18 94.24,96.5 93.78,96.34 C93.78,96.34 93.16,96.12 92.68,95.96 C91.94,95.72 91.54,95.2 91.12,94.56 C90.6,93.78 90.12,92.96 89.6,92.2 C89.02,91.36 88.4,90.52 87.66,89.78 C86.94,89.04 86.44,88.16 85.98,87.22 C85.38,85.98 84.6,85.1 83.4,84.4 C82.26,83.76 81.1,83.14 79.86,82.7 C78.6,82.26 77.5,81.56 76.36,80.86 C75.12,80.1 74.3,79.02 73.5,77.78 C72.6,76.38 71.92,74.62 71.22,73.18 C71.16,73.06 71.1,72.94 71.06,72.82"></path>
                    <path d="M77.78,43.84 C77.84,43.76 77.88,43.66 77.94,43.58 C78.18,43.14 78.5,42.64 78.5,42.64 C78.74,42.2 79.38,42.58 79.12,43 C79.12,43 79.08,43.06 79.02,43.16"></path>
                    <path d="M79.98,44.24 C79.92,44.16 79.8,44.1 79.66,44.12 C79.66,44.12 79.16,44.18 78.66,44.24 C78.48,44.26 78.46,44.12 78.56,43.96 C78.72,43.68 78.9,43.36 79.02,43.18"></path>
                    <path d="M79.98,44.24 C80.56,43.48 81.12,42.68 81.66,41.88"></path>
                    <path d="M60.26,90.98 C60.26,91.08 60.28,91.18 60.28,91.28 C60.34,91.78 60.4,92.36 60.4,92.36 C60.46,92.86 59.74,92.92 59.68,92.42 C59.68,92.42 59.66,92.34 59.66,92.24"></path>
                    <path d="M76.68,97.72 C76.94,97.84 77.08,97.9 77.08,97.9 C77.4,98.04 77.34,98.4 77.14,98.54"></path>
                    <path d="M63.38,81.82 C63.74,81.7 64.02,81.6 64.02,81.6 C64.64,81.36 64.94,81.58 65.18,82.22 C65.48,83.04 65.76,83.84 66.02,84.68 C66.2,85.36 66.18,85.26 66.24,85.5 C66.4,86.08 66.5,86.82 66.38,87.6 C66.3,88.18 66.08,88.76 66.08,88.76 C65.92,89.22 65.82,89.6 65.34,89.7 C64.66,89.86 64.32,90.3 63.94,90.88 C63.6,91.42 63.2,91.9 62.74,92.34 C62.38,92.68 62.04,93 62.04,93 C61.68,93.34 62.18,93.88 62.52,93.54 C62.52,93.54 62.86,93.24 63.22,92.88 C63.48,92.62 63.7,92.66 63.88,92.98 C64.14,93.4 64.4,93.82 64.4,93.82 C64.66,94.24 65.28,93.86 65.02,93.44 C65.02,93.44 64.76,93.02 64.5,92.6 C64.2,92.12 64.24,91.76 64.54,91.28 C64.82,90.84 65.02,90.52 65.52,90.4 C65.88,90.3 65.78,90.66 65.82,91.04 C65.9,91.8 66.1,92.52 66.38,93.24 C66.62,93.8 66.6,94.22 66.28,94.72 C66.02,95.12 65.72,95.56 65.72,95.56 C65.46,95.96 66.06,96.36 66.34,95.96 C66.34,95.96 66.62,95.52 66.9,95.12 C67,94.96 67.12,95.06 67.18,95.22 C67.34,95.68 67.56,96.24 67.56,96.24 C67.72,96.7 68.4,96.46 68.24,95.98 C68.24,95.98 68.04,95.44 67.86,94.96 C67.6,94.28 67.34,93.62 67.06,92.96 C66.78,92.32 66.62,91.66 66.54,90.98 C66.46,90.28 66.52,89.68 66.76,89.02 C67.04,88.26 67.14,87.4 67.12,86.8 C67.1,86.64 67.2,86.54 67.34,86.64 C67.44,86.72 67.56,86.8 67.72,86.9 C68.1,87.16 68.56,87.46 68.56,87.46 C68.96,87.72 68.92,88.02 68.78,88.48 C68.52,89.26 68.48,89.98 68.62,90.78 C68.74,91.46 68.74,92.12 68.58,92.78 C68.46,93.24 68.34,93.84 68.34,93.84 C68.22,94.3 68.94,94.48 69.04,94 C69.04,94 69.18,93.42 69.28,92.94 C69.3,92.86 69.34,92.82 69.38,92.88 C69.62,93.3 69.9,93.8 69.9,93.8 C70.14,94.22 70.78,93.86 70.52,93.44 C70.52,93.44 70.24,92.96 70,92.52 C69.66,91.92 69.44,91.3 69.3,90.62 C69.16,89.96 69.2,89.36 69.44,88.72 C69.56,88.38 69.68,88.14 70,88.32 C70.52,88.6 70.86,89 71.18,89.48 C71.56,90.06 71.8,90.68 71.96,91.34 C72.06,91.82 72.2,92.44 72.2,92.44 C72.3,92.92 73.02,92.76 72.9,92.28 C72.9,92.28 72.76,91.66 72.66,91.18 C72.5,90.42 72.22,89.74 71.78,89.08 C71.38,88.48 70.96,88 70.34,87.66 C69.86,87.4 69.38,87.12 68.92,86.82 C68.44,86.52 68,86.2 67.56,85.86 C67.1,85.48 66.86,85.04 66.7,84.46 C66.46,83.6 66.16,82.78 65.84,81.96 C65.58,81.28 65.8,80.92 66.46,80.6 C67.68,80 68.72,79.26 69.76,78.38 C70.56,77.7 71.08,78.08 71.66,78.96 C71.72,79.04 71.8,79.14 71.86,79.22"></path>
                    <path d="M72.68,98.86 C71.68,102.62 70,106.26 67.74,109.72 C62.5,117.74 60.36,110.48 59.04,102.48 C58.6,99.76 58.36,97.28 58.26,94.86"></path>
                    <path d="M72.68,98.86 C72.78,98.82 72.86,98.74 72.88,98.6 C72.88,98.6 73.04,98.06 73.16,97.58 C73.2,97.44 73.3,97.42 73.4,97.54 C73.68,97.94 74,98.42 74,98.42 C74.28,98.82 74.88,98.42 74.6,98 C74.6,98 74.28,97.54 74,97.12 C73.62,96.58 73.48,96.04 73.52,95.38 C73.56,94.8 73.62,94.36 74.04,93.94 C74.22,93.76 74.18,94.06 74.24,94.28 C74.4,95.02 74.58,95.74 74.76,96.46 C74.94,97.2 75.14,97.92 75.36,98.64 C75.5,99.12 75.68,99.72 75.68,99.72 C75.82,100.2 76.52,99.98 76.38,99.52 C76.38,99.52 76.2,98.92 76.06,98.44 C76,98.26 75.84,98.08 76.02,98.14 C76.46,98.34 76.78,98.5 76.78,98.5 C76.9,98.56 77.02,98.54 77.14,98.48"></path>
                    <path d="M29.46,46.76 C29.2,46.82 29.02,46.86 29.02,46.86 C28.68,46.94 28.52,46.6 28.6,46.36"></path>
                    <path d="M75.96,49.02 C76.44,48.86 76.96,48.7 77.46,48.54 C78.14,48.36 78.8,48.2 79.5,48.08 C80.12,47.98 80.72,47.96 81.34,48.06 C81.82,48.14 82.26,48.22 82.26,48.22 C82.74,48.3 82.88,47.58 82.38,47.5 C82.38,47.5 81.94,47.42 81.46,47.34 C81.34,47.32 81.5,47.28 81.6,47.22 C82,46.94 82.52,46.6 82.52,46.6 C82.92,46.32 82.52,45.72 82.1,46 C82.1,46 81.58,46.36 81.18,46.62 C80.62,47 80.04,47.24 79.36,47.38 C78.66,47.5 77.94,47.64 77.24,47.84 C77.14,47.88 77.04,47.88 76.98,47.84"></path>
                    <path d="M97.62,60.22 C97.8,60.02 97.92,59.9 97.92,59.9 C98.14,59.64 98.48,59.82 98.54,60.06"></path>
                    <path d="M73.32,51.78 C73.76,51.96 74.24,52.14 74.66,52.34 C75.24,52.64 75.84,52.82 76.5,52.92 C77.24,53.04 77.94,53.02 78.66,52.9 C79.36,52.78 80.08,52.66 80.8,52.56 C81.28,52.48 81.88,52.42 81.88,52.42 C82.36,52.34 82.26,51.64 81.78,51.7 C81.78,51.7 81.22,51.78 80.74,51.84 C81.1,51.5 81.5,51.1 81.5,51.1 C81.86,50.76 81.36,50.24 81,50.58 C81,50.58 80.56,51 80.22,51.34 C79.74,51.82 79.22,52.08 78.56,52.2 C77.92,52.32 77.3,52.34 76.64,52.22 C76.44,52.18 76.56,52.04 76.68,51.92 C77.24,51.42 77.76,50.86 78.22,50.26 C78.54,49.88 78.9,49.42 78.9,49.42 C79.22,49.04 78.64,48.58 78.34,48.96 C78.34,48.96 77.98,49.42 77.66,49.8 C77.2,50.36 76.72,50.88 76.18,51.38 C75.78,51.76 75.48,51.92 75,51.68 C74.66,51.5 74.28,51.32 73.92,51.14"></path>
                    <path d="M79.5,44.86 C79.3,44.9 79.02,44.9 78.72,44.94 C78.12,45 77.82,45.26 77.6,45.8 C77.32,46.4 77.12,47.02 76.94,47.64 C76.9,47.78 76.94,47.82 77.04,47.86"></path>
                    <path d="M75.96,49.02 C75.78,49.08 75.6,49.14 75.4,49.2 C74.66,49.46 74.04,49.86 73.44,50.34 C73.18,50.54 72.96,50.74 73.26,50.86 C73.48,50.94 73.7,51.04 73.92,51.14"></path>
                    <path d="M78.6,59.12 C80.16,58.66 81.46,57.9 82.74,56.82 C83.54,56.14 84.1,55.76 84.82,56.5 C85.68,57.4 85.74,57.46 85.82,57.5 C86.64,58.12 87.72,58.48 87.72,58.48 C88.46,58.74 89.1,58.98 89.56,59.6 C90.08,60.26 90.64,60.7 91.44,60.98 C91.52,61 91.6,61.04 91.68,61.06"></path>
                    <path d="M90.86,61.16 C91.12,61.14 91.38,61.1 91.64,61.08"></path>
                    <path d="M91.66,61.08 C92.04,61.24 92.32,61.44 92.54,61.78"></path>
                    <path d="M90.86,61.16 C91.42,61.36 91.98,61.56 92.54,61.78"></path>
                    <path d="M72.24,57.96 C72.38,57.94 72.5,57.92 72.62,57.9 C74.2,57.68 76.1,57.58 77.7,57.16 C79.12,56.78 80.38,56.34 81.5,55.4 C82.52,54.54 83.52,53.68 84.34,52.64 C85.14,51.6 86.08,50.7 87.04,49.8 C88.06,48.86 89.14,48.4 90.5,48.22 C91.54,48.08 92.52,47.88 93.46,47.42 C94.38,46.98 95.38,46.64 96.36,46.32 C97.26,46.04 98.16,45.84 99.08,45.6 C99.82,45.4 100.42,45.16 100.88,44.54 C101.18,44.16 101.58,43.62 101.58,43.62 C101.88,43.24 102.44,43.66 102.16,44.06 C102.16,44.06 101.76,44.58 101.46,44.98 C101.34,45.16 101.46,45.26 101.66,45.26 C102.2,45.26 102.86,45.24 102.86,45.24 C103.4,45.24 103.4,46.04 102.86,46.04 C102.86,46.04 102.2,46.04 101.66,46.06 C100.84,46.06 100.08,46.26 99.28,46.46 C98.4,46.7 97.52,47.02 96.64,47.28 C96.4,47.36 96.2,47.5 96.4,47.62 C97.04,48.02 97.68,48.38 98.4,48.62 C98.96,48.82 99.38,48.72 99.84,48.34 C100.22,48.04 100.66,47.68 100.66,47.68 C101.04,47.38 101.5,47.94 101.12,48.26 C101.12,48.26 100.68,48.62 100.3,48.92 C100.1,49.08 100.06,49.26 100.28,49.38 C100.74,49.6 101.16,49.8 101.16,49.8 C101.62,50.02 101.3,50.68 100.86,50.46 C100.86,50.46 100.42,50.26 99.98,50.04 C99.38,49.76 98.78,49.52 98.16,49.32 C98.16,49.32 97.48,49.08 96.84,48.76 C96.78,48.72 96.7,48.68 96,48.24 C95.28,47.78 94.7,48.06 93.92,48.42 C92.88,48.94 91.8,49.32 90.62,49.48 C90.5,49.5 90.36,49.48 90.46,49.56 C90.46,49.56 90.46,49.56 91.16,49.98 C91.22,50.02 91.98,50.48 92.82,50.76 C93.44,50.98 93.94,50.92 94.52,50.58 C95.22,50.16 95.94,49.98 96.76,49.94 C97.26,49.92 97.86,49.9 97.86,49.9 C98.36,49.88 98.38,50.6 97.9,50.64 C97.9,50.64 97.28,50.66 96.8,50.68 C96.1,50.7 95.5,50.88 94.9,51.24 C94.88,51.26 94.88,51.26 94.9,51.26 C95.64,51.36 96.36,51.46 97.08,51.62 C97.76,51.76 98.4,51.74 99.08,51.6 C99.56,51.5 100.18,51.36 100.18,51.36 C100.68,51.26 100.82,51.98 100.32,52.08 C100.32,52.08 99.7,52.2 99.22,52.32 C99.2,52.32 99.16,52.32 99.14,52.32 C99.56,52.52 100,52.76 100,52.76 C100.44,52.98 100.14,53.64 99.68,53.42 C99.68,53.42 99.22,53.2 98.78,52.98 C98.18,52.68 97.56,52.5 96.92,52.36 C96.92,52.36 96.28,52.24 95.66,52.12 C95.58,52.1 95.52,52.1 94.8,52 C94.04,51.9 93.32,51.76 92.58,51.52 C91.68,51.22 90.82,50.82 90.02,50.34 C89.18,49.84 88.7,50.26 87.96,50.94 C87.06,51.78 86.32,52.74 85.58,53.7 C84.96,54.52 84.78,55.08 85.5,55.82 C86.26,56.6 86.92,57.3 87.94,57.66 C88.7,57.94 89.42,58.06 90.2,57.88 C91,57.72 91.84,57.6 92.64,57.48 C93.26,57.4 93.74,57.24 94.14,56.74 C94.62,56.14 95.18,55.82 95.9,55.56 C96.42,55.38 96.82,55.2 97.04,54.7 C97.26,54.24 97.36,54 97.36,54 C97.58,53.54 98.22,53.86 98.02,54.3 C98.02,54.3 97.9,54.56 97.7,55 C97.58,55.26 97.88,55.16 98.16,55.14 C98.66,55.12 99.28,55.12 99.28,55.12 C99.78,55.1 99.8,55.82 99.32,55.86 C99.32,55.86 98.7,55.88 98.2,55.88 C97.48,55.9 96.82,56.04 96.14,56.26 C95.56,56.46 95.1,56.72 94.7,57.2 C94.54,57.4 94.76,57.46 95.02,57.52 C95.76,57.64 96.48,57.76 97.2,57.84 C97.82,57.92 98.26,57.86 98.7,57.42 C99.06,57.1 99.4,56.8 99.4,56.8 C99.76,56.48 100.26,57 99.88,57.34 C99.88,57.34 99.56,57.64 99.18,57.96 C99.02,58.1 99.2,58.18 99.4,58.24 C99.88,58.34 100.48,58.5 100.48,58.5 C100.96,58.6 100.8,59.32 100.32,59.2 C100.32,59.2 99.72,59.06 99.24,58.94 C98.54,58.78 97.82,58.64 97.1,58.56 C96.34,58.48 95.6,58.36 94.86,58.24 C94.14,58.12 93.44,58.12 92.7,58.24 C91.9,58.36 91.12,58.56 90.32,58.72 C89.96,58.8 89.74,58.94 89.96,59.24 C90.38,59.8 90.86,60.14 91.52,60.38 C92.2,60.62 92.86,60.78 93.58,60.84 C93.68,60.86 93.78,60.84 93.88,60.86"></path>
                    <path d="M97.62,60.22 C96.42,60.44 95.22,60.62 94.02,60.8"></path>
                    <path d="M98.56,60.04 C98.6,60.14 98.58,60.26 98.46,60.36 C98.46,60.36 98.22,60.62 97.88,61 C97.76,61.14 97.98,61.06 98.18,61.04 C98.68,61.04 99.3,61.08 99.3,61.08 C99.8,61.08 99.78,61.8 99.28,61.8 C99.28,61.8 98.66,61.8 98.16,61.78 C97.42,61.76 96.66,61.72 95.92,61.68 C95.18,61.64 94.42,61.58 93.68,61.5 C93.44,61.48 93.18,61.36 93.28,61.6 C93.54,62.1 93.94,62.34 94.46,62.54 C95.08,62.78 95.62,62.82 96.26,62.62 C96.74,62.48 97.28,62.32 97.28,62.32 C97.76,62.18 97.96,62.88 97.48,63.02 C97.48,63.02 96.92,63.18 96.46,63.32 C96.32,63.36 96.32,63.48 96.44,63.56 C96.84,63.82 97.32,64.14 97.32,64.14 C97.44,64.2 97.5,64.32 97.48,64.4"></path>
                    <path d="M97.62,60.22 C97.54,60.3 97.46,60.4 97.34,60.52 C96.94,60.96 96.52,61 95.96,60.96 C95.32,60.9 94.66,60.86 94.02,60.8"></path>
                    <path d="M61.3,64.6 C61.3,64.58 61.3,64.56 61.32,64.52"></path>
                    <path d="M61.42,64.56 C61.4,64.54 61.38,64.52 61.38,64.5"></path>
                    <path d="M61.26,64.54 C61.28,64.52 61.28,64.52 61.32,64.52"></path>
                    <path d="M79.98,44.24 C80.14,44.42 80.06,44.8 79.72,44.84 C79.72,44.84 79.64,44.86 79.5,44.86"></path>
                    <path d="M61.44,64.52 C61.44,64.48 61.46,64.42 61.46,64.36"></path>
                    <path d="M61.16,64.68 C61.18,64.62 61.22,64.58 61.26,64.54"></path>
                    <path d="M73.94,51.16 C74.64,50.44 75.32,49.74 75.98,49.02"></path>
                    <path d="M77.02,47.88 C77.88,46.9 78.72,45.9 79.52,44.88"></path>
                    <path d="M61.58,64.58 C61.64,64.54 61.7,64.48 61.76,64.38 C61.76,64.36 61.78,64.32 61.82,64.3"></path>
                    <path d="M59.2,81.94 C58.72,82.06 58.26,82.2 57.78,82.28 C57.12,82.38 56.54,82.6 55.94,82.9 C55.28,83.22 54.72,83.66 54.2,84.2 C53.68,84.72 53.18,85.24 52.66,85.74 C52.3,86.08 51.88,86.5 51.88,86.5 C51.52,86.84 52.02,87.36 52.38,87.02 C52.38,87.02 52.78,86.62 53.14,86.28 C53.06,86.76 52.96,87.32 52.96,87.32 C52.88,87.8 53.6,87.94 53.68,87.44 C53.68,87.44 53.78,86.86 53.86,86.36 C53.98,85.7 54.24,85.18 54.7,84.7 C55.16,84.22 55.66,83.84 56.24,83.54 C56.42,83.46 56.42,83.64 56.38,83.8 C56.22,84.54 56.14,85.28 56.1,86.04 C56.06,86.54 56.04,87.12 56.04,87.12 C56,87.62 56.74,87.64 56.76,87.16 C56.76,87.16 56.8,86.58 56.82,86.08 C56.86,85.36 56.96,84.64 57.1,83.94 C57.22,83.4 57.32,83.08 57.86,83 C58.24,82.94 58.66,82.88 59.04,82.8"></path>
                    <path d="M58.66,85.72 C58.76,85.56 58.88,85.4 58.98,85.24 C59.42,84.6 59.68,83.92 59.9,83.16 C59.98,82.84 60.06,82.54 59.74,82.64 C59.5,82.7 59.28,82.76 59.06,82.8"></path>
                    <path d="M45.56,71.84 C45.78,72.16 45.96,72.36 45.96,72.36 C46.38,72.88 46.24,73.24 45.72,73.64 C45.04,74.16 44.36,74.7 43.66,75.2 C43.06,75.6 43.16,75.54 42.94,75.68 C42.44,76 41.76,76.34 41,76.46 C40.42,76.56 39.8,76.52 39.8,76.52 C39.32,76.5 38.94,76.52 38.66,76.1 C38.28,75.52 37.76,75.3 37.1,75.12 C36.48,74.96 35.9,74.74 35.34,74.44 C34.9,74.2 34.5,73.98 34.5,73.98 C34.06,73.74 33.7,74.38 34.14,74.62 C34.14,74.62 34.54,74.84 34.98,75.08 C35.3,75.26 35.32,75.46 35.08,75.74 C34.76,76.12 34.46,76.48 34.46,76.48 C34.14,76.86 34.7,77.32 35.02,76.94 C35.02,76.94 35.34,76.56 35.64,76.2 C36.02,75.76 36.34,75.68 36.9,75.84 C37.38,75.96 37.78,76.08 38.04,76.48 C38.24,76.78 37.88,76.82 37.54,76.98 C36.84,77.3 36.22,77.7 35.64,78.2 C35.18,78.6 34.78,78.72 34.2,78.56 C33.72,78.44 33.22,78.3 33.22,78.3 C32.74,78.18 32.56,78.86 33.04,79 C33.04,79 33.54,79.14 34.02,79.26 C34.18,79.32 34.16,79.44 34.02,79.54 C33.64,79.84 33.18,80.22 33.18,80.22 C32.8,80.52 33.24,81.1 33.64,80.8 C33.64,80.8 34.12,80.44 34.48,80.12 C35.04,79.68 35.6,79.22 36.16,78.74 C36.68,78.28 37.26,77.92 37.88,77.64 C38.52,77.36 39.12,77.22 39.82,77.24 C40.62,77.26 41.48,77.1 42.04,76.88 C42.2,76.84 42.3,76.88 42.24,77.04 C42.2,77.16 42.16,77.32 42.1,77.48 C41.96,77.92 41.82,78.46 41.82,78.46 C41.7,78.92 41.4,78.98 40.92,78.98 C40.1,78.96 39.4,79.14 38.7,79.54 C38.08,79.88 37.48,80.06 36.78,80.12 C36.28,80.16 35.7,80.2 35.7,80.2 C35.2,80.24 35.26,80.96 35.76,80.94 C35.76,80.94 36.36,80.9 36.84,80.86 C36.92,80.84 36.98,80.9 36.92,80.94 C36.58,81.32 36.22,81.72 36.22,81.72 C35.88,82.1 36.44,82.58 36.76,82.22 C36.76,82.22 37.12,81.8 37.46,81.44 C37.94,80.92 38.44,80.54 39.06,80.18 C39.66,79.86 40.24,79.7 40.92,79.7 C41.3,79.72 41.56,79.74 41.48,80.12 C41.38,80.7 41.1,81.14 40.74,81.6 C40.3,82.12 39.8,82.56 39.2,82.92 C38.78,83.18 38.24,83.48 38.24,83.48 C37.82,83.72 38.18,84.36 38.6,84.1 C38.6,84.1 39.14,83.78 39.56,83.54 C40.24,83.14 40.8,82.66 41.3,82.06 C41.74,81.5 42.06,80.96 42.2,80.26 C42.3,79.72 42.42,79.18 42.56,78.66 C42.68,78.12 42.88,77.6 43.06,77.08 C43.28,76.52 43.64,76.18 44.14,75.82 C44.86,75.32 45.58,74.78 46.26,74.24 C46.84,73.78 47.24,73.88 47.74,74.4 C48.68,75.36 49.72,76.14 50.86,76.86 C51.76,77.42 51.58,78.02 50.92,78.84 C50.86,78.92 50.8,79.02 50.72,79.1"></path>
                    <path d="M59.2,81.94 C59.3,81.9 59.44,81.88 59.54,81.84 C60.2,81.66 60.86,81.44 61.54,81.3 C62.26,81.14 62.94,80.86 63.64,80.6 C63.66,80.58 63.7,80.58 63.72,80.56"></path>
                    <path d="M58.5,87.28 C58.44,87.3 58.36,87.36 58.32,87.44 C57.88,88.02 57.4,88.56 56.88,89.08 C56.4,89.58 56.08,90.12 55.84,90.76 C55.68,91.22 55.46,91.82 55.46,91.82 C55.3,92.28 54.6,92.04 54.78,91.58 C54.78,91.58 55,91 55.16,90.52 C55.2,90.4 55.3,90.26 55.2,90.32 C54.76,90.54 54.36,90.74 54.36,90.74 C53.92,90.96 53.6,90.3 54.04,90.08 C54.04,90.08 54.44,89.88 54.88,89.66 C55.46,89.38 55.92,89.02 56.36,88.58 C56.84,88.08 57.3,87.56 57.74,87 C58.06,86.6 58.36,86.16 58.68,85.74"></path>
                    <path d="M58.5,87.28 C58.56,87.26 58.66,87.28 58.7,87.42 C58.94,88.02 59.12,88.66 59.26,89.3 C59.38,89.88 59.28,90.26 58.84,90.66 C58.62,90.86 58.42,91.06 58.26,91.18"></path>
                    <path d="M58.5,87.28 C58.38,88.58 58.3,89.88 58.24,91.18"></path>
                    <path d="M63.38,81.82 C63.16,81.9 62.9,81.98 62.64,82.04 C62.58,82.06 62.52,82.06 61.76,82.24 C61.08,82.38 60.8,82.72 60.62,83.38 C60.4,84.2 60.1,84.96 59.6,85.68 C59.26,86.18 59.16,86.58 59.38,87.16 C59.64,87.82 59.82,88.48 59.96,89.14 C60.1,89.76 60.18,90.36 60.24,90.98"></path>
                    <path d="M92.54,61.8 C92.58,61.84 92.6,61.88 92.6,61.92 C92.94,62.62 93.46,62.94 94.2,63.2 C94.84,63.44 95.46,63.76 96.04,64.14 C96.44,64.4 96.92,64.72 96.92,64.72 C97.22,64.92 97.52,64.66 97.5,64.38"></path>
                    <path d="M59.06,73.22 C58.38,74.2 57.52,75.24 56.42,76.3"></path>
                    <path d="M59.5,80.16 C59.1,80.6 58.7,80.96 58.26,81.26 C55.86,82.84 55.44,80.62 56.3,77.26 C56.38,76.88 56.44,76.56 56.44,76.3"></path>
                    <path d="M50.62,79.08 C48.94,80.14 47.34,80.98 44.78,82.38 C43.06,83.34 41.26,84.08 39.46,84.66"></path>
                    <path d="M87.16,74.74 C86.96,74.7 86.6,74.6 86.28,74.56 C86.1,74.52 85.96,74.58 86.04,74.74 C86.24,75.2 86.44,75.66 86.44,75.66 C86.5,75.8 86.48,75.94 86.42,76.02"></path>
                    <path d="M85.7,75.72 C85.76,75.86 85.78,75.92 85.78,75.92 C85.92,76.24 86.28,76.18 86.42,75.98"></path>
                    <path d="M80.66,73.66 C80.96,74.08 81.28,74.5 81.56,74.92 C81.96,75.5 82.3,76.1 82.62,76.72 C82.92,77.28 83.12,77.86 83.2,78.48 C83.28,78.96 83.32,79.4 83.32,79.4 C83.4,79.88 84.1,79.78 84.04,79.3 C84.04,79.3 83.98,78.86 83.92,78.38 C83.9,78.26 84,78.4 84.1,78.48 C84.48,78.78 84.98,79.18 84.98,79.18 C85.36,79.48 85.82,78.9 85.42,78.6 C85.42,78.6 84.94,78.22 84.54,77.9 C84,77.48 83.58,77.02 83.26,76.4 C82.92,75.76 82.56,75.14 82.16,74.52 C82.1,74.44 82.06,74.36 82.08,74.28"></path>
                    <path d="M86.14,73.78 C86.24,73.8 86.34,73.82 86.44,73.84 C86.92,73.94 87.5,74.06 87.5,74.06 C87.98,74.16 87.82,74.88 87.34,74.78 C87.34,74.78 87.26,74.76 87.16,74.74"></path>
                    <path d="M78.4,67.94 C78.4,67.56 78.4,67.28 78.4,67.28 C78.36,66.62 78.68,66.42 79.34,66.38 C80.2,66.34 81.06,66.32 81.94,66.34 C82.64,66.36 82.54,66.36 82.8,66.4 C83.4,66.44 84.14,66.56 84.82,66.9 C85.34,67.14 85.82,67.56 85.82,67.56 C86.2,67.86 86.52,68.06 86.5,68.56 C86.46,69.26 86.76,69.72 87.2,70.28 C87.6,70.78 87.94,71.3 88.22,71.88 C88.44,72.32 88.62,72.74 88.62,72.74 C88.84,73.18 89.48,72.86 89.28,72.44 C89.28,72.44 89.08,72.02 88.88,71.58 C88.74,71.26 88.84,71.08 89.18,71 C89.66,70.88 90.14,70.76 90.14,70.76 C90.62,70.66 90.46,69.94 89.96,70.06 C89.96,70.06 89.48,70.18 89,70.3 C88.46,70.44 88.12,70.3 87.76,69.86 C87.44,69.48 87.18,69.16 87.22,68.66 C87.24,68.28 87.54,68.48 87.92,68.56 C88.68,68.7 89.4,68.76 90.18,68.7 C90.78,68.64 91.16,68.78 91.56,69.26 C91.88,69.64 92.2,70.06 92.2,70.06 C92.52,70.44 93.08,70 92.78,69.6 C92.78,69.6 92.46,69.2 92.14,68.8 C92.02,68.66 92.16,68.58 92.32,68.56 C92.82,68.54 93.4,68.52 93.4,68.52 C93.9,68.5 93.88,67.78 93.36,67.78 C93.36,67.78 92.76,67.8 92.28,67.82 C91.56,67.84 90.84,67.88 90.12,67.96 C89.44,68.02 88.76,67.98 88.08,67.84 C87.4,67.7 86.82,67.44 86.28,67.02 C85.64,66.52 84.84,66.16 84.28,66 C84.12,65.96 84.06,65.86 84.2,65.76 C84.32,65.68 84.42,65.6 84.58,65.48 C84.96,65.2 85.36,64.86 85.36,64.86 C85.74,64.54 86,64.68 86.4,64.98 C87.06,65.48 87.72,65.74 88.52,65.84 C89.2,65.92 89.82,66.14 90.42,66.5 C90.84,66.76 91.34,67.06 91.34,67.06 C91.76,67.32 92.14,66.7 91.72,66.44 C91.72,66.44 91.22,66.14 90.8,65.88 C90.74,65.84 90.7,65.78 90.78,65.76 C91.26,65.66 91.8,65.54 91.8,65.54 C92.28,65.44 92.14,64.72 91.66,64.82 C91.66,64.82 91.12,64.94 90.64,65.04 C89.96,65.18 89.32,65.2 88.62,65.12 C87.94,65.04 87.4,64.82 86.84,64.42 C86.56,64.2 86.36,64.02 86.62,63.76 C87.04,63.36 87.52,63.16 88.1,63 C88.76,62.82 89.42,62.78 90.12,62.84 C90.62,62.9 91.22,62.94 91.22,62.94 C91.72,63 91.78,62.26 91.28,62.22 C91.28,62.22 90.66,62.16 90.18,62.12 C89.4,62.06 88.66,62.1 87.92,62.3 C87.22,62.48 86.64,62.74 86.14,63.24 C85.74,63.62 85.34,63.98 84.9,64.34 C84.46,64.7 84.04,65.02 83.56,65.32 C83.06,65.66 82.56,65.72 81.94,65.7 C81.06,65.66 80.18,65.7 79.3,65.74 C78.56,65.78 78.3,65.46 78.22,64.74 C78.04,63.4 77.64,62.16 77.12,60.92 C76.72,59.94 77.24,59.56 78.26,59.28 C78.36,59.24 78.48,59.22 78.6,59.18"></path>
                    <path d="M68.88,69.42 C69.6,70.36 70.32,71.5 71,72.88"></path>
                    <path d="M63.72,80.56 C64.48,80.26 65.2,79.86 65.94,79.52 C67.06,78.98 67.92,78.16 68.88,77.34 C70.06,76.34 69.76,75.26 69.16,74.06 C68.56,72.82 67.86,71.78 67.18,70.98"></path>
                    <path d="M75.62,71.16 C75.92,71.66 76.14,72.16 76.28,72.66 C77.04,75.42 74.8,75.14 71.88,73.28 C71.56,73.06 71.26,72.92 71.02,72.86"></path>
                    <path d="M77.2,71.98 C77.18,72.46 77.16,72.96 77.08,73.44 C76.98,74.1 77,74.72 77.1,75.38 C77.2,76.12 77.44,76.78 77.78,77.44 C78.12,78.08 78.44,78.72 78.76,79.38 C78.98,79.82 79.24,80.34 79.24,80.34 C79.46,80.78 80.1,80.46 79.9,80.02 C79.9,80.02 79.64,79.52 79.44,79.08 C79.86,79.32 80.38,79.58 80.38,79.58 C80.82,79.8 81.16,79.16 80.72,78.94 C80.72,78.94 80.2,78.66 79.76,78.44 C79.16,78.12 78.76,77.72 78.44,77.1 C78.14,76.52 77.92,75.92 77.82,75.28 C77.78,75.08 77.96,75.14 78.12,75.24 C78.78,75.6 79.46,75.94 80.16,76.2 C80.62,76.38 81.18,76.6 81.18,76.6 C81.64,76.78 81.9,76.1 81.44,75.92 C81.44,75.92 80.9,75.7 80.42,75.52 C79.74,75.28 79.1,74.96 78.48,74.62 C78,74.36 77.74,74.14 77.84,73.6 C77.9,73.2 77.96,72.82 78.02,72.42"></path>
                </g>
            </g>
        </g>
    </g>
</svg>