<?xml version="1.0" encoding="UTF-8"?>
<svg width="128px" height="128px" viewBox="0 0 128 128" version="1.1" xmlns="http://www.w3.org/2000/svg" xmlns:xlink="http://www.w3.org/1999/xlink">
    <!-- Generator: Sketch 45.2 (43514) - http://www.bohemiancoding.com/sketch -->
    <title>practice_icon</title>
    <desc>Created with Sketch.</desc>
    <defs></defs>
    <g id="Page-1" stroke="none" stroke-width="1" fill="none" fill-rule="evenodd">
        <g id="practice_icon" stroke="#000000" stroke-width="1.5" fill="#FFFFFF">
            <path d="M62.5700294,89.0497866 C61.2216279,100.098798 65.4856024,75.33296 76.1636564,86.2710014 C86.8412574,97.2090428 77.1411003,115.551743 77.1411003,115.551743 C77.1411003,115.551743 65.0571214,115.150438 57.245723,108.922064 C50.0867842,103.233141 50.0702519,98.7617202 50.9780337,87.1189046 C51.6088881,78.8183312 46.7314067,36.0714654 37.8368029,29.3792357 C28.9421991,22.687006 48.2579494,38.7624709 33.4464128,42.5406223 C18.6349215,46.3187737 7.59990577,28.747113 7.59990577,28.747113 C7.59990577,28.747113 13.9894359,18.4828648 23.2887413,14.8319623 C31.795357,11.476612 35.6756916,13.6978691 45.3047824,20.3054489 C52.178188,25.0022527 91.6365303,42.1515471 101.879762,37.7947199 C112.122541,33.4378927 88.542952,42.1280848 92.6764799,27.4118467 C96.8104607,12.6956313 117.545588,11.9248692 117.545588,11.9248692 C117.545588,11.9248692 123.239947,22.5904845 121.75204,32.4693717 C120.404544,41.5139891 116.540515,43.7638313 106.003778,48.7990716 C98.499473,52.4032036 63.918431,78.000775 62.5700294,89.0497866 Z" id="Shape" transform="translate(64.799953, 63.738306) rotate(-180.000000) translate(-64.799953, -63.738306) "></path>
        </g>
    </g>
</svg>