<?xml version="1.0" encoding="UTF-8"?>
<svg width="128px" height="128px" viewBox="0 0 128 128" version="1.1" xmlns="http://www.w3.org/2000/svg" xmlns:xlink="http://www.w3.org/1999/xlink">
    <!-- Generator: Sketch 45.2 (43514) - http://www.bohemiancoding.com/sketch -->
    <title>starflower_icon</title>
    <desc>Created with Sketch.</desc>
    <defs></defs>
    <g id="Page-1" stroke="none" stroke-width="1" fill="none" fill-rule="evenodd">
        <g id="starflower_icon">
            <g id="Group" transform="translate(15.000000, 17.000000)">
                <path d="M68.32,20.6 C83.72,23.8 96.34,34.76 96.34,34.76 C96.34,34.76 92.42,48.96 83.2,60.34 C84.98,76 78.38,91.36 78.38,91.36 C78.38,91.36 63.7,92.08 50.06,86.8 C35.7,93.32 19.08,91.88 19.08,91.88 C19.08,91.88 13.86,78.08 14.66,63.48 L14.58,63.46 C3.94,51.86 0.22,35.52 0.22,35.52 C0.22,35.52 11.68,26.24 25.84,22.52 C33.62,8.82 48,0.2 48,0.2 C48,0.2 60.3,8.26 68.24,20.58" id="Shape" fill="#FFFFFF" fill-rule="nonzero"></path>
                <path d="M47.7,22.3 C54.58,19.38 61.64,19.22 68.22,20.64" id="Shape" stroke="#000000" stroke-width="1.5" stroke-linecap="round"></path>
                <path d="M46.74,72.78 C53.92,67.5 49.08,54.1 48.62,51.14" id="Shape" stroke="#000000" stroke-width="1.5" stroke-linecap="round"></path>
                <path d="M65.7,73.38 C61.88,79.82 56.2,84.04 50.08,86.8" id="Shape" stroke="#000000" stroke-width="1.5" stroke-linecap="round"></path>
                <path d="M65.7,73.38 C66.36,72.22 67.06,70.98 67.64,69.6 C69.56,65.12 69.76,61.78 68.92,59.2" id="Shape" stroke="#000000" stroke-width="1.5" stroke-linecap="round"></path>
                <path d="M83.2,60.34 C84.98,76 78.38,91.36 78.38,91.36 C78.38,91.36 63.7,92.08 50.06,86.8" id="Shape" stroke="#000000" stroke-width="1.5" stroke-linecap="round"></path>
                <path d="M75.26,41.3 C80.22,46.88 82.5,53.62 83.24,60.26" id="Shape" stroke="#000000" stroke-width="1.5" stroke-linecap="round"></path>
                <path d="M47.96,50.56 C45.9,48.44 34.08,40.46 36.8,31.96" id="Shape" stroke="#000000" stroke-width="1.5" stroke-linecap="round"></path>
                <path d="M48.62,50.96 C48.54,50.94 48.44,50.98 48.34,51.04" id="Shape" stroke="#000000" stroke-width="1.5" stroke-linecap="round"></path>
                <path d="M48.04,51.1 C48.14,51.04 48.14,51.04 48.26,51" id="Shape" stroke="#000000" stroke-width="1.5" stroke-linecap="round"></path>
                <path d="M48.04,51.1 C48.22,51.08 48.22,51.08 48.26,51" id="Shape" stroke="#000000" stroke-width="1.5" stroke-linecap="round"></path>
                <path d="M48.64,50.62 C48.62,50.7 48.58,50.78 48.6,50.96" id="Shape" stroke="#000000" stroke-width="1.5" stroke-linecap="round"></path>
                <path d="M48.24,51 C48.26,50.92 48.22,50.82 48.08,50.68" id="Shape" stroke="#000000" stroke-width="1.5" stroke-linecap="round"></path>
                <path d="M47.96,50.56 C48.04,50.58 48.08,50.7 48.08,50.7" id="Shape" stroke="#000000" stroke-width="1.5" stroke-linecap="round"></path>
                <path d="M47.96,50.56 C48.02,50.66 48.06,50.78 48.08,50.7" id="Shape" stroke="#000000" stroke-width="1.5" stroke-linecap="round"></path>
                <path d="M48.32,50.52 C48.26,50.68 48.16,50.72 48.08,50.7" id="Shape" stroke="#000000" stroke-width="1.5" stroke-linecap="round"></path>
                <path d="M48.48,50.3 C48.38,50.36 48.34,50.42 48.32,50.5" id="Shape" stroke="#000000" stroke-width="1.5" stroke-linecap="round"></path>
                <path d="M48.48,50.3 C48.46,50.38 48.42,50.46 48.32,50.5" id="Shape" stroke="#000000" stroke-width="1.5" stroke-linecap="round"></path>
                <path d="M48.64,50.62 C48.48,50.56 48.4,50.54 48.32,50.52" id="Shape" stroke="#000000" stroke-width="1.5" stroke-linecap="round"></path>
                <path d="M32.18,74.16 C24.9,72.48 19.14,68.46 14.58,63.46" id="Shape" stroke="#000000" stroke-width="1.5" stroke-linecap="round"></path>
                <path d="M50.06,86.8 C35.7,93.32 19.08,91.88 19.08,91.88 C19.08,91.88 13.86,78.08 14.66,63.48" id="Shape" stroke="#000000" stroke-width="1.5" stroke-linecap="round"></path>
                <path d="M48.04,51.1 C45.38,52.44 34.1,61.18 26.84,55.94" id="Shape" stroke="#000000" stroke-width="1.5" stroke-linecap="round"></path>
                <path d="M32.18,74.16 C33.56,74.46 34.88,74.66 36.32,74.82 C41.18,75.2 44.42,74.42 46.64,72.84" id="Shape" stroke="#000000" stroke-width="1.5" stroke-linecap="round"></path>
                <path d="M25.84,22.54 C22.56,28.4 20.38,35.14 21.1,42.58" id="Shape" stroke="#000000" stroke-width="1.5" stroke-linecap="round"></path>
                <path d="M25.84,22.54 C11.68,26.24 0.22,35.54 0.22,35.54 C0.22,35.54 3.94,51.88 14.58,63.48" id="Shape" stroke="#000000" stroke-width="1.5" stroke-linecap="round"></path>
                <path d="M26.92,55.96 C24.74,54.42 22.88,51.48 21.8,46.82 C21.5,45.4 21.3,44.02 21.16,42.66" id="Shape" stroke="#000000" stroke-width="1.5" stroke-linecap="round"></path>
                <path d="M68.82,59.16 C66.02,50.66 51.76,51.18 48.78,50.66" id="Shape" stroke="#000000" stroke-width="1.5" stroke-linecap="round"></path>
                <path d="M25.84,22.54 C33.62,8.82 48,0.2 48,0.2 C48,0.2 60.3,8.26 68.24,20.58" id="Shape" stroke="#000000" stroke-width="1.5" stroke-linecap="round"></path>
                <path d="M36.8,31.96 C37.62,29.36 39.74,26.78 43.94,24.32 C45.18,23.52 46.44,22.92 47.68,22.4" id="Shape" stroke="#000000" stroke-width="1.5" stroke-linecap="round"></path>
                <path d="M83.2,60.34 C92.42,48.96 96.34,34.76 96.34,34.76 C96.34,34.76 83.74,23.8 68.32,20.6" id="Shape" stroke="#000000" stroke-width="1.5" stroke-linecap="round"></path>
                <path d="M75.26,41.3 C74.3,40.26 73.36,39.24 72.28,38.34 C68.6,35.12 65.42,33.94 62.78,33.98" id="Shape" stroke="#000000" stroke-width="1.5" stroke-linecap="round"></path>
                <path d="M48.64,50.62 C48.72,50.64 48.8,50.68 48.88,50.7" id="Shape" stroke="#000000" stroke-width="1.5" stroke-linecap="round"></path>
                <path d="M48.48,50.3 C49.82,47.7 53.84,33.98 62.76,33.96" id="Shape" stroke="#000000" stroke-width="1.5" stroke-linecap="round"></path>
                <path d="M48.62,50.96 C48.6,51.04 48.64,51.14 48.64,51.14" id="Shape" stroke="#000000" stroke-width="1.5" stroke-linecap="round"></path>
                <path d="M48.62,50.96 C48.7,50.98 48.68,51.06 48.64,51.14" id="Shape" stroke="#000000" stroke-width="1.5" stroke-linecap="round"></path>
                <path d="M48.64,50.62 C48.66,50.54 48.74,50.56 48.88,50.7" id="Shape" stroke="#000000" stroke-width="1.5" stroke-linecap="round"></path>
            </g>
        </g>
    </g>
</svg>