<?xml version="1.0" encoding="UTF-8"?>
<svg width="128px" height="128px" viewBox="0 0 128 128" version="1.1" xmlns="http://www.w3.org/2000/svg" xmlns:xlink="http://www.w3.org/1999/xlink">
    <!-- Generator: Sketch 45.2 (43514) - http://www.bohemiancoding.com/sketch -->
    <title>succulent_icon</title>
    <desc>Created with Sketch.</desc>
    <defs></defs>
    <g id="Page-1" stroke="none" stroke-width="1" fill="none" fill-rule="evenodd">
        <g id="succulent_icon">
            <g id="Group-6" transform="translate(15.000000, 17.000000)">
                <path d="M34.36,19.08 C34.46,18.38 34.56,17.74 34.72,17.1 C36.9,7.46 45.58,6.9 49.8,0.04 C54.02,6.92 62.68,7.46 64.88,17.1 C65.02,17.76 65.14,18.4 65.24,19.08 C68.18,19.06 71.12,19.36 74.08,18.14 C73.88,20.92 74.76,23.34 75.56,25.78 L75.56,25.8 C75.68,26.16 75.82,26.52 75.92,26.86 L75.92,26.84 C76.6,26.72 77.24,26.64 77.9,26.56 C87.74,25.68 90.94,33.76 98.78,35.64 C93.56,41.78 95.7,50.2 87.22,55.26 C86.66,55.6 86.06,55.92 85.46,56.2 C86.38,58.98 87.02,61.86 89.08,64.3 C86.36,64.96 84.34,66.54 82.26,68.08 L82.26,68.1 C81.96,68.34 81.66,68.54 81.36,68.76 L81.38,68.76 C81.7,69.36 81.98,69.98 82.24,70.56 C86.12,79.64 79.46,85.18 80.06,93.22 C72.62,90.14 65.28,94.8 57.84,88.3 C57.34,87.86 56.88,87.4 56.4,86.92 C54.06,88.66 51.5,90.16 49.82,92.88 C48.36,90.48 46.22,89.06 44.12,87.58 L44.12,87.56 C43.82,87.36 43.52,87.14 43.22,86.9 C42.74,87.4 42.26,87.86 41.78,88.28 C34.36,94.78 27.02,90.14 19.56,93.2 C20.16,85.16 13.5,79.62 17.38,70.54 C17.64,69.94 17.92,69.34 18.24,68.74 L18.24,68.76 C15.84,67.04 13.64,65.08 10.54,64.34 C12.36,62.2 13.06,59.72 13.84,57.28 L13.86,57.28 C13.96,56.92 14.06,56.56 14.2,56.22 C13.6,55.92 13,55.62 12.44,55.28 C3.96,50.22 6.1,41.82 0.88,35.66 C8.7,33.78 11.92,25.7 21.76,26.58 C22.42,26.64 23.06,26.72 23.74,26.86 C24.62,24.08 25.82,21.36 25.56,18.18 C28.14,19.24 30.72,19.14 33.3,19.12 L33.32,19.12 C33.68,19.12 34.06,19.12 34.44,19.12" id="Shape" fill="#FFFFFF" fill-rule="nonzero"></path>
                <path d="M75.92,26.86 C75.82,26.5 75.68,26.14 75.56,25.8" id="Shape" stroke="#000000" stroke-width="1.5" stroke-linecap="round"></path>
                <path d="M69.1,45.28 C72,42.72 74.5,39.42 75.82,36.32 C77.4,32.64 76.8,29.7 75.9,26.84" id="Shape" stroke="#000000" stroke-width="1.5" stroke-linecap="round"></path>
                <path d="M56.4,86.9 C56.88,87.38 57.34,87.84 57.84,88.28 C65.26,94.78 72.6,90.12 80.06,93.2 C79.46,85.16 86.12,79.62 82.24,70.54 C81.98,69.96 81.7,69.34 81.38,68.74" id="Shape" stroke="#000000" stroke-width="1.5" stroke-linecap="round"></path>
                <path d="M82.26,68.1 C81.96,68.34 81.66,68.54 81.36,68.76" id="Shape" stroke="#000000" stroke-width="1.5" stroke-linecap="round"></path>
                <path d="M18.22,68.72 C17.9,69.32 17.62,69.92 17.36,70.52 C13.48,79.6 20.14,85.14 19.54,93.18 C26.98,90.12 34.32,94.76 41.76,88.26 C42.24,87.84 42.72,87.38 43.2,86.88" id="Shape" stroke="#000000" stroke-width="1.5" stroke-linecap="round"></path>
                <path d="M61.74,67.98 C65.08,69.94 68.96,71.3 72.34,71.6 C76.32,71.96 78.94,70.48 81.38,68.74" id="Shape" stroke="#000000" stroke-width="1.5" stroke-linecap="round"></path>
                <path d="M43.2,86.88 C43.5,87.12 43.8,87.32 44.1,87.54" id="Shape" stroke="#000000" stroke-width="1.5" stroke-linecap="round"></path>
                <path d="M14.16,56.18 C13.56,55.88 12.96,55.58 12.4,55.24 C3.92,50.18 6.06,41.78 0.84,35.62 C8.66,33.74 11.88,25.66 21.72,26.54 C22.38,26.6 23.02,26.68 23.7,26.82" id="Shape" stroke="#000000" stroke-width="1.5" stroke-linecap="round"></path>
                <path d="M37.88,67.98 C37.06,71.76 36.96,75.86 37.72,79.16 C38.6,83.06 40.82,85.1 43.22,86.88" id="Shape" stroke="#000000" stroke-width="1.5" stroke-linecap="round"></path>
                <path d="M14.16,56.18 C14.04,56.54 13.92,56.9 13.82,57.24" id="Shape" stroke="#000000" stroke-width="1.5" stroke-linecap="round"></path>
                <path d="M14.16,56.18 C15.1,53.34 16.36,50.62 19.8,48.56 C22.7,46.82 26.64,45.64 30.5,45.26" id="Shape" stroke="#000000" stroke-width="1.5" stroke-linecap="round"></path>
                <path d="M65.24,19.08 C65.14,18.4 65.04,17.76 64.88,17.1 C62.68,7.48 54.02,6.92 49.8,0.04 C45.58,6.9 36.9,7.44 34.72,17.1 C34.58,17.72 34.46,18.38 34.36,19.08" id="Shape" stroke="#000000" stroke-width="1.5" stroke-linecap="round"></path>
                <path d="M85.44,56.2 C86.04,55.9 86.64,55.6 87.2,55.26 C95.68,50.2 93.54,41.8 98.76,35.64 C90.94,33.76 87.72,25.68 77.88,26.56 C77.22,26.62 76.58,26.7 75.9,26.84" id="Shape" stroke="#000000" stroke-width="1.5" stroke-linecap="round"></path>
                <path d="M49.8,31.24 C48.24,27.7 45.9,24.32 43.36,22.1 C40.36,19.48 37.36,19.12 34.38,19.1" id="Shape" stroke="#000000" stroke-width="1.5" stroke-linecap="round"></path>
                <path d="M34.38,19.08 C34,19.08 33.62,19.08 33.26,19.08" id="Shape" stroke="#000000" stroke-width="1.5" stroke-linecap="round"></path>
                <path d="M69.1,45.28 C68.08,45.18 67.06,45.14 66.08,45.16" id="Shape" stroke="#000000" stroke-width="1.5" stroke-linecap="round"></path>
                <path d="M64.4,45.24 C64.94,45.2 65.52,45.16 66.1,45.16" id="Shape" stroke="#000000" stroke-width="1.5" stroke-linecap="round"></path>
                <path d="M85.44,56.2 C84.5,53.34 83.24,50.62 79.8,48.56 C76.9,46.82 72.96,45.64 69.1,45.26" id="Shape" stroke="#000000" stroke-width="1.5" stroke-linecap="round"></path>
                <path d="M49.88,51.6 L49.8,51.56" id="Shape" stroke="#000000" stroke-width="1.5" stroke-linecap="round"></path>
                <path d="M49.88,51.6 C49.84,51.6 49.82,51.58 49.8,51.56" id="Shape" stroke="#000000" stroke-width="1.5" stroke-linecap="round"></path>
                <path d="M49.88,51.6 C50.46,51.74 51.86,49.38 55.3,47.62 C57.44,46.52 59.78,45.78 63.96,45.3 C64.1,45.28 64.26,45.26 64.4,45.26" id="Shape" stroke="#000000" stroke-width="1.5" stroke-linecap="round"></path>
                <path d="M85.44,56.2 C86.36,58.98 87,61.86 89.06,64.3 C86.34,64.96 84.32,66.54 82.24,68.08" id="Shape" stroke="#000000" stroke-width="1.5" stroke-linecap="round"></path>
                <path d="M49,51.66 L49.015,51.56" id="Shape" stroke="#000000" stroke-width="1.5" stroke-linecap="round"></path>
                <path d="M49.78,51.66 C49.82,52.26 52.5,52.86 55.26,55.58 C56.78,57.1 58.08,58.86 59.58,61.92" id="Shape" stroke="#000000" stroke-width="1.5" stroke-linecap="round"></path>
                <path d="M56.4,86.9 C54.06,88.64 51.5,90.14 49.82,92.86 C48.36,90.46 46.22,89.04 44.12,87.56" id="Shape" stroke="#000000" stroke-width="1.5" stroke-linecap="round"></path>
                <path d="M49.78,51.66 C49.78,51.62 49.78,51.6 49.8,51.56" id="Shape" stroke="#000000" stroke-width="1.5" stroke-linecap="round"></path>
                <path d="M61.74,67.98 C61.64,67.52 61.54,67.08 61.4,66.64" id="Shape" stroke="#000000" stroke-width="1.5" stroke-linecap="round"></path>
                <path d="M59.58,61.92 C59.76,62.3 59.94,62.68 60.12,63.1 C60.62,64.2 61.04,65.38 61.38,66.64" id="Shape" stroke="#000000" stroke-width="1.5" stroke-linecap="round"></path>
                <path d="M56.4,86.9 C58.82,85.12 61.04,83.08 61.92,79.16 C62.68,75.86 62.58,71.76 61.76,67.98" id="Shape" stroke="#000000" stroke-width="1.5" stroke-linecap="round"></path>
                <path d="M49.7,51.58 C49.14,51.82 49.4,54.54 47.66,58 C46.56,60.14 45.12,62.14 42.02,64.96 C41.92,65.06 41.82,65.16 41.68,65.26" id="Shape" stroke="#000000" stroke-width="1.5" stroke-linecap="round"></path>
                <path d="M37.88,67.98 C38.28,67.74 38.68,67.5 39.06,67.24" id="Shape" stroke="#000000" stroke-width="1.5" stroke-linecap="round"></path>
                <path d="M13.82,57.26 C13.04,59.72 12.36,62.18 10.52,64.32 C13.62,65.08 15.82,67.02 18.22,68.74" id="Shape" stroke="#000000" stroke-width="1.5" stroke-linecap="round"></path>
                <path d="M41.68,65.24 C40.88,65.96 39.98,66.62 39.04,67.24" id="Shape" stroke="#000000" stroke-width="1.5" stroke-linecap="round"></path>
                <path d="M49.7,51.58 L49.8,51.56" id="Shape" stroke="#000000" stroke-width="1.5" stroke-linecap="round"></path>
                <path d="M18.22,68.72 C20.66,70.46 23.3,71.96 27.28,71.6 C30.66,71.28 34.54,69.92 37.88,67.98" id="Shape" stroke="#000000" stroke-width="1.5" stroke-linecap="round"></path>
                <path d="M49.7,51.58 C49.72,51.56 49.76,51.56 49.8,51.56" id="Shape" stroke="#000000" stroke-width="1.5" stroke-linecap="round"></path>
                <path d="M34.28,48.06 C33.36,47.52 32.46,46.86 31.56,46.16" id="Shape" stroke="#000000" stroke-width="1.5" stroke-linecap="round"></path>
                <path d="M49.76,51.46 C49.38,51 46.84,52.08 43.02,51.5 C40.64,51.12 38.32,50.34 34.66,48.3 C34.54,48.24 34.4,48.16 34.28,48.06" id="Shape" stroke="#000000" stroke-width="1.5" stroke-linecap="round"></path>
                <path d="M23.7,26.82 C24.58,24.04 25.78,21.32 25.52,18.14 C28.1,19.2 30.68,19.1 33.26,19.08" id="Shape" stroke="#000000" stroke-width="1.5" stroke-linecap="round"></path>
                <path d="M30.48,45.28 C27.58,42.72 25.08,39.42 23.76,36.32 C22.18,32.62 22.78,29.68 23.68,26.82" id="Shape" stroke="#000000" stroke-width="1.5" stroke-linecap="round"></path>
                <path d="M49.76,51.46 L49.8,51.56" id="Shape" stroke="#000000" stroke-width="1.5" stroke-linecap="round"></path>
                <path d="M49.76,51.46 C49.78,51.48 49.8,51.52 49.8,51.54" id="Shape" stroke="#000000" stroke-width="1.5" stroke-linecap="round"></path>
                <path d="M30.48,45.28 C30.84,45.6 31.2,45.88 31.54,46.18" id="Shape" stroke="#000000" stroke-width="1.5" stroke-linecap="round"></path>
                <path d="M49.86,51.48 L49.8,51.56" id="Shape" stroke="#000000" stroke-width="1.5" stroke-linecap="round"></path>
                <path d="M49.86,51.48 C49.84,51.5 49.82,51.52 49.8,51.54" id="Shape" stroke="#000000" stroke-width="1.5" stroke-linecap="round"></path>
                <path d="M48.32,35.72 C48.56,34.68 48.88,33.6 49.28,32.56" id="Shape" stroke="#000000" stroke-width="1.5" stroke-linecap="round"></path>
                <path d="M49.86,51.48 C50.2,50.98 48.34,48.9 47.74,45.1 C47.36,42.72 47.38,40.28 48.2,36.14 C48.22,36 48.26,35.84 48.28,35.7" id="Shape" stroke="#000000" stroke-width="1.5" stroke-linecap="round"></path>
                <path d="M65.24,19.08 C62.24,19.1 59.24,19.46 56.22,22.08 C53.68,24.3 51.34,27.7 49.78,31.22" id="Shape" stroke="#000000" stroke-width="1.5" stroke-linecap="round"></path>
                <path d="M65.24,19.08 C68.18,19.06 71.12,19.36 74.08,18.14 C73.88,20.92 74.76,23.34 75.56,25.78" id="Shape" stroke="#000000" stroke-width="1.5" stroke-linecap="round"></path>
                <path d="M49.28,32.54 C49.44,32.1 49.62,31.68 49.8,31.26" id="Shape" stroke="#000000" stroke-width="1.5" stroke-linecap="round"></path>
            </g>
        </g>
    </g>
</svg>